<svg width="2448" height="2452" viewBox="0 0 2448 2452" fill="none" xmlns="http://www.w3.org/2000/svg">
<path opacity="0.05" d="M2448 1224C2448 1505.92 2407.15 1976.57 2247 2183.5C2023.13 2472.76 1618.08 2448 1224 2448C829.919 2448 427.874 2501.76 204 2212.5C43.8469 2005.57 0 1505.92 0 1224C0 548.003 548.003 0 1224 0C1900 0 2448 548.003 2448 1224Z" fill="#146957"/>
<circle cx="1224" cy="1177" r="663" fill="white"/>
<path d="M1091 1487C1091 1484.24 1093.24 1482 1096 1482H1364C1366.76 1482 1369 1484.24 1369 1487V1533C1369 1535.76 1366.76 1538 1364 1538H1096C1093.24 1538 1091 1535.76 1091 1533V1487Z" fill="#F3F8F7"/>
<path d="M1149.83 1507.35V1515H1150.68V1506.63H1144.33V1515H1145.18V1507.35H1149.83ZM1156.95 1514.41C1155.13 1514.41 1153.78 1513.03 1153.78 1510.89V1510.76C1153.78 1508.58 1155.16 1507.22 1156.95 1507.22C1158.74 1507.22 1160.1 1508.54 1160.1 1510.76V1510.89C1160.1 1513.05 1158.74 1514.41 1156.95 1514.41ZM1156.94 1515.13C1159.19 1515.13 1160.98 1513.38 1160.98 1510.87V1510.74C1160.98 1508.2 1159.21 1506.5 1156.95 1506.5C1154.71 1506.5 1152.9 1508.25 1152.9 1510.76V1510.89C1152.9 1513.37 1154.68 1515.13 1156.94 1515.13ZM1163.2 1506.63V1515H1166.46C1168.27 1515 1169.31 1514.22 1169.31 1512.62V1512.57C1169.31 1511.42 1168.59 1510.79 1167.42 1510.6C1168.38 1510.36 1168.89 1509.7 1168.89 1508.79V1508.74C1168.89 1507.22 1167.71 1506.63 1166.19 1506.63H1163.2ZM1164.04 1507.32H1166.17C1167.32 1507.32 1168 1507.74 1168 1508.78V1508.82C1168 1509.82 1167.39 1510.31 1166.19 1510.31H1164.04V1507.32ZM1164.04 1511H1166.32C1167.68 1511 1168.41 1511.51 1168.41 1512.62V1512.66C1168.41 1513.77 1167.74 1514.31 1166.38 1514.31H1164.04V1511ZM1178.82 1506.63V1515H1179.66V1506.63H1178.82ZM1171.62 1506.63V1515H1174.43C1176.13 1515 1177.38 1514.1 1177.38 1512.33V1512.28C1177.38 1510.5 1176.06 1509.7 1174.27 1509.7H1172.46V1506.63H1171.62ZM1174.48 1514.31H1172.46V1510.38H1174.32C1175.81 1510.38 1176.53 1511.06 1176.53 1512.28V1512.33C1176.53 1513.61 1175.84 1514.31 1174.48 1514.31ZM1182.5 1506.63V1515H1192.61V1506.63H1191.77V1514.28H1187.97V1506.63H1187.13V1514.28H1183.35V1506.63H1182.5ZM1197.68 1515.13C1199.08 1515.13 1199.98 1514.54 1200.51 1513.72V1515H1201.36V1509.46C1201.36 1507.34 1200.16 1506.5 1198.43 1506.5C1196.86 1506.5 1195.39 1507.26 1195.21 1509H1196.04C1196.24 1507.77 1197.12 1507.22 1198.4 1507.22C1199.87 1507.22 1200.51 1507.88 1200.51 1509.46V1510.22H1198.76C1196.7 1510.22 1194.84 1510.81 1194.84 1512.74C1194.84 1514.33 1196.01 1515.13 1197.68 1515.13ZM1197.74 1514.44C1196.35 1514.44 1195.69 1513.83 1195.69 1512.74C1195.69 1511.24 1197.05 1510.87 1198.8 1510.87H1200.51V1512.3C1200.51 1513.53 1199.28 1514.44 1197.74 1514.44ZM1207.47 1515.13C1209.27 1515.13 1210.57 1514.26 1210.94 1512.66H1210.09C1209.79 1513.83 1208.87 1514.41 1207.47 1514.41C1205.47 1514.41 1204.43 1513.14 1204.38 1510.89H1211V1510.58C1211 1507.82 1209.35 1506.5 1207.34 1506.5C1205.1 1506.5 1203.5 1508.26 1203.5 1510.78V1510.9C1203.5 1513.42 1205.05 1515.13 1207.47 1515.13ZM1210.12 1510.2H1204.41C1204.59 1508.36 1205.71 1507.22 1207.34 1507.22C1208.99 1507.22 1210.04 1508.15 1210.12 1510.2ZM1218.75 1507.35V1506.63H1212.11V1507.35H1215.01V1515H1215.86V1507.35H1218.75ZM1223.73 1515.13C1225.63 1515.13 1227.09 1513.9 1227.29 1512.1H1226.51C1226.3 1513.59 1225.12 1514.41 1223.73 1514.41C1221.97 1514.41 1220.61 1513.11 1220.61 1510.9V1510.78C1220.61 1508.57 1221.98 1507.22 1223.73 1507.22C1225.05 1507.22 1226.17 1507.88 1226.38 1509.29H1227.21C1227.01 1507.4 1225.42 1506.5 1223.73 1506.5C1221.5 1506.5 1219.73 1508.22 1219.73 1510.78V1510.9C1219.73 1513.45 1221.47 1515.13 1223.73 1515.13ZM1232.08 1507.32H1234.1V1510.94H1232.24C1230.75 1510.94 1230.03 1510.33 1230.03 1509.18V1509.13C1230.03 1507.93 1230.72 1507.32 1232.08 1507.32ZM1229.66 1515L1232.1 1511.59H1234.1V1515H1234.96V1506.63H1232.13C1230.43 1506.63 1229.18 1507.38 1229.18 1509.13V1509.18C1229.18 1510.57 1230.05 1511.24 1231.25 1511.45L1228.67 1515H1229.66ZM1242.84 1510.63L1247.15 1515H1248.2L1243.85 1510.58L1247.93 1506.63H1246.92L1242.84 1510.63V1506.63H1242V1515H1242.84V1510.63ZM1253.1 1514.41C1251.28 1514.41 1249.94 1513.03 1249.94 1510.89V1510.76C1249.94 1508.58 1251.31 1507.22 1253.1 1507.22C1254.9 1507.22 1256.26 1508.54 1256.26 1510.76V1510.89C1256.26 1513.05 1254.9 1514.41 1253.1 1514.41ZM1253.09 1515.13C1255.34 1515.13 1257.14 1513.38 1257.14 1510.87V1510.74C1257.14 1508.2 1255.36 1506.5 1253.1 1506.5C1250.86 1506.5 1249.06 1508.25 1249.06 1510.76V1510.89C1249.06 1513.37 1250.83 1515.13 1253.09 1515.13ZM1265.01 1511.03V1515H1265.86V1506.63H1265.01V1510.31H1260.2V1506.63H1259.35V1515H1260.2V1511.03H1265.01ZM1275.59 1517.03H1276.27V1514.28H1275.07V1506.63H1274.23V1514.28H1269.57V1506.63H1268.72V1515H1275.52L1275.59 1517.03ZM1281.44 1515.13C1283.25 1515.13 1284.54 1514.26 1284.91 1512.66H1284.06C1283.76 1513.83 1282.85 1514.41 1281.44 1514.41C1279.44 1514.41 1278.4 1513.14 1278.35 1510.89H1284.97V1510.58C1284.97 1507.82 1283.33 1506.5 1281.31 1506.5C1279.07 1506.5 1277.47 1508.26 1277.47 1510.78V1510.9C1277.47 1513.42 1279.02 1515.13 1281.44 1515.13ZM1284.09 1510.2H1278.38C1278.56 1508.36 1279.68 1507.22 1281.31 1507.22C1282.96 1507.22 1284.01 1508.15 1284.09 1510.2ZM1292.83 1511.03V1515H1293.68V1506.63H1292.83V1510.31H1288.02V1506.63H1287.17V1515H1288.02V1511.03H1292.83ZM1302.25 1507.35V1506.63H1295.61V1507.35H1298.51V1515H1299.36V1507.35H1302.25ZM1304.16 1506.63V1517.91H1305.01V1513.1C1305.44 1514.12 1306.55 1515.13 1308.19 1515.13C1310.37 1515.13 1311.95 1513.48 1311.95 1510.86V1510.73C1311.95 1508.12 1310.31 1506.5 1308.19 1506.5C1306.72 1506.5 1305.47 1507.51 1305.01 1508.58V1506.63H1304.16ZM1308.13 1514.41C1306.4 1514.41 1304.99 1513.18 1304.99 1510.89V1510.76C1304.99 1508.46 1306.48 1507.22 1308.11 1507.22C1309.71 1507.22 1311.07 1508.46 1311.07 1510.76V1510.89C1311.07 1513.14 1309.91 1514.41 1308.13 1514.41ZM1316.38 1515.13C1317.79 1515.13 1318.69 1514.54 1319.21 1513.72V1515H1320.06V1509.46C1320.06 1507.34 1318.86 1506.5 1317.13 1506.5C1315.57 1506.5 1314.09 1507.26 1313.92 1509H1314.75C1314.94 1507.77 1315.82 1507.22 1317.1 1507.22C1318.57 1507.22 1319.21 1507.88 1319.21 1509.46V1510.22H1317.47C1315.41 1510.22 1313.55 1510.81 1313.55 1512.74C1313.55 1514.33 1314.72 1515.13 1316.38 1515.13ZM1316.45 1514.44C1315.05 1514.44 1314.4 1513.83 1314.4 1512.74C1314.4 1511.24 1315.76 1510.87 1317.5 1510.87H1319.21V1512.3C1319.21 1513.53 1317.98 1514.44 1316.45 1514.44ZM1329.71 1517.03H1330.4V1514.28H1329.2V1506.63H1328.35V1514.28H1323.69V1506.63H1322.84V1515H1329.64L1329.71 1517.03ZM1332.31 1515H1333.16L1338.13 1507.86V1515H1338.98V1506.63H1338.13L1333.16 1513.75V1506.63H1332.31V1515ZM1344.37 1507.32H1346.38V1510.94H1344.53C1343.04 1510.94 1342.32 1510.33 1342.32 1509.18V1509.13C1342.32 1507.93 1343.01 1507.32 1344.37 1507.32ZM1341.95 1515L1344.38 1511.59H1346.38V1515H1347.25V1506.63H1344.42C1342.72 1506.63 1341.47 1507.38 1341.47 1509.13V1509.18C1341.47 1510.57 1342.34 1511.24 1343.54 1511.45L1340.96 1515H1341.95Z" fill="#1D1D1D"/>
<circle cx="1121.5" cy="1510.5" r="10" stroke="#1D1D1D"/>
<circle cx="1121.5" cy="1510.5" r="5.22727" stroke="#1D1D1D"/>
<circle cx="1121.54" cy="1510.55" r="1" fill="#1D1D1D"/>
<path d="M1533 1321C1533 1318.24 1535.24 1316 1538 1316H1784C1786.76 1316 1789 1318.24 1789 1321V1367C1789 1369.76 1786.76 1372 1784 1372H1538C1535.24 1372 1533 1369.76 1533 1367V1321Z" fill="#F3F8F7"/>
<path d="M1557 1335.5H1570C1571.38 1335.5 1572.5 1336.62 1572.5 1338V1342.72C1572.5 1343.36 1572.42 1344 1572.24 1344.6C1569.95 1352.18 1565.46 1354.96 1563.54 1355.48C1560.83 1354.31 1555.75 1350.54 1554.59 1344.23C1554.52 1343.89 1554.5 1343.54 1554.5 1343.17V1338C1554.5 1336.62 1555.62 1335.5 1557 1335.5Z" stroke="#1D1D1D"/>
<path d="M1560.5 1339.92H1566.5C1567.05 1339.92 1567.5 1340.37 1567.5 1340.92V1343.56C1567.5 1343.83 1567.47 1344.1 1567.4 1344.35C1566.38 1348.19 1564.4 1349.62 1563.54 1349.94C1562.26 1349.28 1559.94 1347.3 1559.5 1343.99V1340.92C1559.5 1340.37 1559.95 1339.92 1560.5 1339.92Z" stroke="#1D1D1D"/>
<path d="M1589.71 1348.28L1588.19 1351.91H1589.07L1593.71 1340.63H1592.85L1590.18 1347.3L1587.31 1340.63H1586.4L1589.71 1348.28ZM1596.48 1344.63L1600.79 1349H1601.85L1597.49 1344.58L1601.57 1340.63H1600.57L1596.48 1344.63V1340.63H1595.64V1349H1596.48V1344.63ZM1603.63 1340.63V1351.91H1604.48V1347.1C1604.91 1348.12 1606.02 1349.13 1607.67 1349.13C1609.84 1349.13 1611.43 1347.48 1611.43 1344.86V1344.73C1611.43 1342.12 1609.78 1340.5 1607.67 1340.5C1606.19 1340.5 1604.95 1341.51 1604.48 1342.58V1340.63H1603.63ZM1607.6 1348.41C1605.87 1348.41 1604.47 1347.18 1604.47 1344.89V1344.76C1604.47 1342.46 1605.95 1341.22 1607.59 1341.22C1609.19 1341.22 1610.55 1342.46 1610.55 1344.76V1344.89C1610.55 1347.14 1609.38 1348.41 1607.6 1348.41ZM1616.97 1349.13C1618.78 1349.13 1620.08 1348.26 1620.45 1346.66H1619.6C1619.29 1347.83 1618.38 1348.41 1616.97 1348.41C1614.97 1348.41 1613.93 1347.14 1613.89 1344.89H1620.51V1344.58C1620.51 1341.82 1618.86 1340.5 1616.85 1340.5C1614.61 1340.5 1613.01 1342.26 1613.01 1344.78V1344.9C1613.01 1347.42 1614.56 1349.13 1616.97 1349.13ZM1619.63 1344.2H1613.92C1614.09 1342.36 1615.21 1341.22 1616.85 1341.22C1618.49 1341.22 1619.55 1342.15 1619.63 1344.2ZM1628.21 1341.35V1349H1629.06V1340.63H1622.71V1349H1623.55V1341.35H1628.21ZM1633.39 1345.27C1633.52 1344.07 1633.59 1342.25 1633.63 1341.35H1637.25V1349H1638.1V1340.63H1632.87C1632.85 1341.19 1632.83 1341.74 1632.8 1342.28C1632.75 1343.22 1632.69 1344.36 1632.61 1345.19C1632.43 1346.98 1632.21 1348.25 1631.35 1348.25C1631.19 1348.25 1631.06 1348.23 1630.96 1348.2L1630.8 1348.14V1348.95L1630.96 1349.02C1631.06 1349.05 1631.2 1349.06 1631.41 1349.06C1632.74 1349.06 1633.19 1347.7 1633.39 1345.27ZM1643.57 1341.32H1645.59V1344.94H1643.73C1642.25 1344.94 1641.53 1344.33 1641.53 1343.18V1343.13C1641.53 1341.93 1642.21 1341.32 1643.57 1341.32ZM1641.16 1349L1643.59 1345.59H1645.59V1349H1646.45V1340.63H1643.62C1641.93 1340.63 1640.68 1341.38 1640.68 1343.13V1343.18C1640.68 1344.57 1641.54 1345.24 1642.74 1345.45L1640.17 1349H1641.16ZM1652.62 1349.13C1654.43 1349.13 1655.72 1348.26 1656.09 1346.66H1655.24C1654.94 1347.83 1654.03 1348.41 1652.62 1348.41C1650.62 1348.41 1649.58 1347.14 1649.53 1344.89H1656.15V1344.58C1656.15 1341.82 1654.51 1340.5 1652.49 1340.5C1650.25 1340.5 1648.65 1342.26 1648.65 1344.78V1344.9C1648.65 1347.42 1650.2 1349.13 1652.62 1349.13ZM1655.27 1344.2H1649.56C1649.74 1342.36 1650.86 1341.22 1652.49 1341.22C1654.14 1341.22 1655.19 1342.15 1655.27 1344.2ZM1663.91 1341.35V1340.63H1657.27V1341.35H1660.16V1349H1661.01V1341.35H1663.91ZM1668.88 1349.13C1670.78 1349.13 1672.24 1347.9 1672.45 1346.1H1671.66C1671.45 1347.59 1670.27 1348.41 1668.88 1348.41C1667.12 1348.41 1665.76 1347.11 1665.76 1344.9V1344.78C1665.76 1342.57 1667.13 1341.22 1668.88 1341.22C1670.21 1341.22 1671.33 1341.88 1671.53 1343.29H1672.37C1672.16 1341.4 1670.57 1340.5 1668.88 1340.5C1666.65 1340.5 1664.88 1342.22 1664.88 1344.78V1344.9C1664.88 1347.45 1666.62 1349.13 1668.88 1349.13ZM1677.23 1341.32H1679.25V1344.94H1677.39C1675.91 1344.94 1675.19 1344.33 1675.19 1343.18V1343.13C1675.19 1341.93 1675.87 1341.32 1677.23 1341.32ZM1674.82 1349L1677.25 1345.59H1679.25V1349H1680.11V1340.63H1677.28C1675.59 1340.63 1674.34 1341.38 1674.34 1343.13V1343.18C1674.34 1344.57 1675.2 1345.24 1676.4 1345.45L1673.83 1349H1674.82ZM1687.17 1349H1688.01L1692.99 1341.86V1349H1693.84V1340.63H1692.99L1688.01 1347.75V1340.63H1687.17V1349ZM1697.34 1341.51L1700.47 1349H1700.87L1704.06 1341.51V1349H1704.9V1340.63H1703.74L1700.73 1347.66L1697.82 1340.63H1696.6V1349H1697.34V1341.51ZM1708.49 1341.51L1711.63 1349H1712.03L1715.21 1341.51V1349H1716.06V1340.63H1714.89L1711.88 1347.66L1708.97 1340.63H1707.75V1349H1708.49V1341.51ZM1721.29 1348.28L1719.77 1351.91H1720.65L1725.29 1340.63H1724.43L1721.75 1347.3L1718.89 1340.63H1717.98L1721.29 1348.28ZM1732.9 1345.03V1349H1733.74V1340.63H1732.9V1344.31H1728.08V1340.63H1727.23V1349H1728.08V1345.03H1732.9ZM1736.6 1349H1737.45L1742.43 1341.86V1349H1743.27V1340.63H1742.43L1737.45 1347.75V1340.63H1736.6V1349ZM1751.75 1341.35V1340.63H1745.11V1341.35H1748.01V1349H1748.85V1341.35H1751.75ZM1756.69 1349.13C1758.5 1349.13 1759.79 1348.26 1760.16 1346.66H1759.31C1759.01 1347.83 1758.1 1348.41 1756.69 1348.41C1754.69 1348.41 1753.65 1347.14 1753.6 1344.89H1760.23V1344.58C1760.23 1341.82 1758.58 1340.5 1756.56 1340.5C1754.32 1340.5 1752.72 1342.26 1752.72 1344.78V1344.9C1752.72 1347.42 1754.27 1349.13 1756.69 1349.13ZM1759.35 1344.2H1753.63C1753.81 1342.36 1754.93 1341.22 1756.56 1341.22C1758.21 1341.22 1759.27 1342.15 1759.35 1344.2ZM1767.98 1341.35V1340.63H1761.34V1341.35H1764.23V1349H1765.08V1341.35H1767.98Z" fill="#1D1D1D"/>
<path d="M732 1321C732 1318.24 734.239 1316 737 1316H924C926.761 1316 929 1318.24 929 1321V1367C929 1369.76 926.761 1372 924 1372H737C734.239 1372 732 1369.76 732 1367V1321Z" fill="#F3F8F7"/>
<path d="M788.736 1348.41C786.912 1348.41 785.568 1347.03 785.568 1344.89V1344.76C785.568 1342.58 786.944 1341.22 788.736 1341.22C790.528 1341.22 791.888 1342.54 791.888 1344.76V1344.89C791.888 1347.05 790.528 1348.41 788.736 1348.41ZM788.72 1349.13C790.976 1349.13 792.768 1347.38 792.768 1344.87V1344.74C792.768 1342.2 790.992 1340.5 788.736 1340.5C786.496 1340.5 784.688 1342.25 784.688 1344.76V1344.89C784.688 1347.37 786.464 1349.13 788.72 1349.13ZM800.089 1349H800.937V1340.63H800.089V1343.94C799.833 1344.23 799.113 1345.24 797.609 1345.24C796.249 1345.24 795.449 1344.52 795.449 1342.73V1340.63H794.601V1342.76C794.601 1345.08 795.817 1345.98 797.417 1345.98C798.825 1345.98 799.609 1345.32 800.089 1344.79V1349ZM803.947 1349H804.795L809.771 1341.86V1349H810.619V1340.63H809.771L804.795 1347.75V1340.63H803.947V1349ZM824.005 1351.03H824.693V1348.28H823.493V1340.63H822.645V1348.28H818.853V1340.63H818.005V1348.28H814.229V1340.63H813.381V1349H823.941L824.005 1351.03ZM828.82 1349.13C830.228 1349.13 831.124 1348.54 831.652 1347.72V1349H832.5V1343.46C832.5 1341.34 831.3 1340.5 829.572 1340.5C828.004 1340.5 826.532 1341.26 826.356 1343H827.188C827.38 1341.77 828.26 1341.22 829.54 1341.22C831.012 1341.22 831.652 1341.88 831.652 1343.46V1344.22H829.908C827.844 1344.22 825.988 1344.81 825.988 1346.74C825.988 1348.33 827.156 1349.13 828.82 1349.13ZM828.884 1348.44C827.492 1348.44 826.836 1347.83 826.836 1346.74C826.836 1345.24 828.196 1344.87 829.94 1344.87H831.652V1346.3C831.652 1347.53 830.42 1348.44 828.884 1348.44ZM838.609 1349.13C840.417 1349.13 841.713 1348.26 842.081 1346.66H841.233C840.929 1347.83 840.017 1348.41 838.609 1348.41C836.609 1348.41 835.569 1347.14 835.521 1344.89H842.145V1344.58C842.145 1341.82 840.497 1340.5 838.481 1340.5C836.241 1340.5 834.641 1342.26 834.641 1344.78V1344.9C834.641 1347.42 836.193 1349.13 838.609 1349.13ZM841.265 1344.2H835.553C835.729 1342.36 836.849 1341.22 838.481 1341.22C840.129 1341.22 841.185 1342.15 841.265 1344.2ZM849.896 1341.35V1340.63H843.256V1341.35H846.152V1349H847V1341.35H849.896ZM854.869 1349.13C856.773 1349.13 858.229 1347.9 858.437 1346.1H857.653C857.445 1347.59 856.261 1348.41 854.869 1348.41C853.109 1348.41 851.749 1347.11 851.749 1344.9V1344.78C851.749 1342.57 853.125 1341.22 854.869 1341.22C856.197 1341.22 857.317 1341.88 857.525 1343.29H858.357C858.149 1341.4 856.565 1340.5 854.869 1340.5C852.645 1340.5 850.869 1342.22 850.869 1344.78V1344.9C850.869 1347.45 852.613 1349.13 854.869 1349.13ZM863.224 1341.32H865.24V1344.94H863.384C861.896 1344.94 861.176 1344.33 861.176 1343.18V1343.13C861.176 1341.93 861.864 1341.32 863.224 1341.32ZM860.808 1349L863.24 1345.59H865.24V1349H866.104V1340.63H863.272C861.576 1340.63 860.328 1341.38 860.328 1343.13V1343.18C860.328 1344.57 861.192 1345.24 862.392 1345.45L859.816 1349H860.808ZM873.988 1344.63L878.292 1349H879.348L874.996 1344.58L879.076 1340.63H878.068L873.988 1344.63V1340.63H873.14V1349H873.988V1344.63ZM884.248 1348.41C882.424 1348.41 881.08 1347.03 881.08 1344.89V1344.76C881.08 1342.58 882.456 1341.22 884.248 1341.22C886.04 1341.22 887.4 1342.54 887.4 1344.76V1344.89C887.4 1347.05 886.04 1348.41 884.248 1348.41ZM884.232 1349.13C886.488 1349.13 888.28 1347.38 888.28 1344.87V1344.74C888.28 1342.2 886.504 1340.5 884.248 1340.5C882.008 1340.5 880.2 1342.25 880.2 1344.76V1344.89C880.2 1347.37 881.976 1349.13 884.232 1349.13ZM893.861 1340.63V1349H894.693V1340.63H893.861ZM898.437 1349H899.413L895.589 1344.58L899.141 1340.63H898.197L894.709 1344.63L898.437 1349ZM889.141 1349H890.117L893.845 1344.63L890.341 1340.63H889.413L892.965 1344.58L889.141 1349ZM903.355 1349.13C904.763 1349.13 905.659 1348.54 906.187 1347.72V1349H907.035V1343.46C907.035 1341.34 905.835 1340.5 904.107 1340.5C902.539 1340.5 901.067 1341.26 900.891 1343H901.723C901.915 1341.77 902.795 1341.22 904.075 1341.22C905.547 1341.22 906.187 1341.88 906.187 1343.46V1344.22H904.443C902.379 1344.22 900.523 1344.81 900.523 1346.74C900.523 1348.33 901.691 1349.13 903.355 1349.13ZM903.419 1348.44C902.027 1348.44 901.371 1347.83 901.371 1346.74C901.371 1345.24 902.731 1344.87 904.475 1344.87H906.187V1346.3C906.187 1347.53 904.955 1348.44 903.419 1348.44Z" fill="#1D1D1D"/>
<path d="M768.996 1354C769.058 1352.38 768.368 1349.03 765.117 1348.58H763.346C762.793 1348.58 762.346 1348.14 762.346 1347.58V1346.52M762.346 1346.52C763.109 1345.8 764.502 1344.57 764.964 1343.57C765.122 1343.23 765.339 1342.88 765.625 1342.64C766.101 1342.23 766.517 1341.57 766.161 1340.78C766.092 1340.62 766.037 1340.46 766.023 1340.3C765.995 1339.98 765.947 1339.62 765.874 1339.25M762.346 1346.52C760.564 1348.2 758.466 1346.7 756.988 1345.04L755.51 1343.35M755.51 1343.35L754.956 1342.79C754.409 1342.35 754.436 1341.47 754.586 1340.79M755.51 1343.35C753.478 1344.55 750.669 1347.29 754.771 1348.77M758.612 1346.52C760.3 1348.61 760.209 1350.91 759.206 1351.85C758.608 1352.41 758.106 1351.12 757.671 1350.42C757.297 1349.82 756.594 1349.3 756.064 1349.14C755.573 1349.03 755.143 1348.91 754.771 1348.77M754.586 1340.79C754.621 1340.63 754.663 1340.49 754.706 1340.36C754.746 1340.24 754.77 1340.11 754.779 1339.99C754.832 1339.22 755.191 1337.04 756.803 1335.53M754.586 1340.79C755.572 1340.53 757.69 1339.51 758.281 1337.56M758.281 1337.56C757.542 1337.12 756.988 1336.02 756.803 1335.53M758.281 1337.56C760.203 1340.25 764.144 1339.81 765.874 1339.25M756.803 1335.53C757.647 1334.74 758.833 1334.14 760.498 1334.02C763.945 1333.77 765.41 1336.87 765.874 1339.25M752 1353.81C752.493 1352.2 753.737 1348.93 754.771 1348.77" stroke="#1D1D1D" stroke-linecap="round"/>
<path d="M625 1155C625 1152.24 627.239 1150 630 1150H891C893.761 1150 896 1152.24 896 1155V1201C896 1203.76 893.761 1206 891 1206H630C627.239 1206 625 1203.76 625 1201V1155Z" fill="#F3F8F7"/>
<path d="M680.712 1182.28L679.192 1185.91H680.072L684.712 1174.63H683.848L681.176 1181.3L678.312 1174.63H677.4L680.712 1182.28ZM687.562 1179.27C687.691 1178.07 687.754 1176.25 687.803 1175.35H691.418V1183H692.266V1174.63H687.034C687.018 1175.19 687.002 1175.74 686.97 1176.28C686.922 1177.22 686.859 1178.36 686.778 1179.19C686.602 1180.98 686.378 1182.25 685.514 1182.25C685.354 1182.25 685.226 1182.23 685.13 1182.2L684.97 1182.14V1182.95L685.13 1183.02C685.226 1183.05 685.37 1183.06 685.578 1183.06C686.906 1183.06 687.354 1181.7 687.562 1179.27ZM697.503 1182.28L695.983 1185.91H696.863L701.503 1174.63H700.639L697.967 1181.3L695.103 1174.63H694.191L697.503 1182.28ZM708.708 1183H709.556V1174.63H708.708V1177.94C708.452 1178.23 707.732 1179.24 706.228 1179.24C704.868 1179.24 704.068 1178.52 704.068 1176.73V1174.63H703.22V1176.76C703.22 1179.08 704.436 1179.98 706.036 1179.98C707.444 1179.98 708.228 1179.32 708.708 1178.79V1183ZM712.565 1174.63V1183H722.677V1174.63H721.83V1182.28H718.037V1174.63H717.189V1182.28H713.413V1174.63H712.565ZM727.739 1183.13C729.147 1183.13 730.043 1182.54 730.571 1181.72V1183H731.419V1177.46C731.419 1175.34 730.219 1174.5 728.491 1174.5C726.923 1174.5 725.451 1175.26 725.275 1177H726.107C726.299 1175.77 727.179 1175.22 728.459 1175.22C729.931 1175.22 730.571 1175.88 730.571 1177.46V1178.22H728.827C726.763 1178.22 724.907 1178.81 724.907 1180.74C724.907 1182.33 726.075 1183.13 727.739 1183.13ZM727.803 1182.44C726.411 1182.44 725.755 1181.83 725.755 1180.74C725.755 1179.24 727.115 1178.87 728.859 1178.87H730.571V1180.3C730.571 1181.53 729.339 1182.44 727.803 1182.44ZM737.528 1183.13C739.336 1183.13 740.632 1182.26 741 1180.66H740.152C739.848 1181.83 738.936 1182.41 737.528 1182.41C735.528 1182.41 734.488 1181.14 734.44 1178.89H741.064V1178.58C741.064 1175.82 739.416 1174.5 737.4 1174.5C735.16 1174.5 733.56 1176.26 733.56 1178.78V1178.9C733.56 1181.42 735.112 1183.13 737.528 1183.13ZM740.184 1178.2H734.472C734.648 1176.36 735.768 1175.22 737.4 1175.22C739.048 1175.22 740.104 1176.15 740.184 1178.2ZM748.815 1175.35V1174.63H742.175V1175.35H745.071V1183H745.919V1175.35H748.815ZM753.788 1183.13C755.692 1183.13 757.148 1181.9 757.356 1180.1H756.572C756.364 1181.59 755.18 1182.41 753.788 1182.41C752.028 1182.41 750.668 1181.11 750.668 1178.9V1178.78C750.668 1176.57 752.044 1175.22 753.788 1175.22C755.116 1175.22 756.236 1175.88 756.444 1177.29H757.276C757.068 1175.4 755.484 1174.5 753.788 1174.5C751.564 1174.5 749.788 1176.22 749.788 1178.78V1178.9C749.788 1181.45 751.532 1183.13 753.788 1183.13ZM762.143 1175.32H764.159V1178.94H762.303C760.815 1178.94 760.095 1178.33 760.095 1177.18V1177.13C760.095 1175.93 760.783 1175.32 762.143 1175.32ZM759.727 1183L762.159 1179.59H764.159V1183H765.023V1174.63H762.191C760.495 1174.63 759.247 1175.38 759.247 1177.13V1177.18C759.247 1178.57 760.111 1179.24 761.311 1179.45L758.735 1183H759.727ZM777.579 1175.35V1183H778.427V1174.63H772.075V1183H772.923V1175.35H777.579ZM781.291 1183H782.139L787.115 1175.86V1183H787.963V1174.63H787.115L782.139 1181.75V1174.63H781.291V1183ZM801.349 1185.03H802.037V1182.28H800.837V1174.63H799.989V1182.28H796.197V1174.63H795.349V1182.28H791.573V1174.63H790.725V1183H801.285L801.349 1185.03ZM807.206 1183.13C809.014 1183.13 810.31 1182.26 810.678 1180.66H809.83C809.526 1181.83 808.614 1182.41 807.206 1182.41C805.206 1182.41 804.166 1181.14 804.118 1178.89H810.742V1178.58C810.742 1175.82 809.094 1174.5 807.078 1174.5C804.838 1174.5 803.238 1176.26 803.238 1178.78V1178.9C803.238 1181.42 804.79 1183.13 807.206 1183.13ZM809.862 1178.2H804.15C804.326 1176.36 805.446 1175.22 807.078 1175.22C808.726 1175.22 809.782 1176.15 809.862 1178.2ZM812.937 1174.63V1183H816.201C818.009 1183 819.049 1182.22 819.049 1180.62V1180.57C819.049 1179.42 818.329 1178.79 817.161 1178.6C818.121 1178.36 818.633 1177.7 818.633 1176.79V1176.74C818.633 1175.22 817.449 1174.63 815.929 1174.63H812.937ZM813.785 1175.32H815.913C817.065 1175.32 817.737 1175.74 817.737 1176.78V1176.82C817.737 1177.82 817.129 1178.31 815.929 1178.31H813.785V1175.32ZM813.785 1179H816.057C817.417 1179 818.153 1179.51 818.153 1180.62V1180.66C818.153 1181.77 817.481 1182.31 816.121 1182.31H813.785V1179ZM823.642 1183.13C825.05 1183.13 825.946 1182.54 826.474 1181.72V1183H827.322V1177.46C827.322 1175.34 826.122 1174.5 824.394 1174.5C822.826 1174.5 821.354 1175.26 821.178 1177H822.01C822.202 1175.77 823.082 1175.22 824.362 1175.22C825.834 1175.22 826.474 1175.88 826.474 1177.46V1178.22H824.73C822.666 1178.22 820.81 1178.81 820.81 1180.74C820.81 1182.33 821.978 1183.13 823.642 1183.13ZM823.706 1182.44C822.314 1182.44 821.658 1181.83 821.658 1180.74C821.658 1179.24 823.018 1178.87 824.762 1178.87H826.474V1180.3C826.474 1181.53 825.242 1182.44 823.706 1182.44ZM830.087 1174.63V1185.91H830.935V1181.1C831.367 1182.12 832.471 1183.13 834.119 1183.13C836.295 1183.13 837.879 1181.48 837.879 1178.86V1178.73C837.879 1176.12 836.231 1174.5 834.119 1174.5C832.647 1174.5 831.399 1175.51 830.935 1176.58V1174.63H830.087ZM834.055 1182.41C832.327 1182.41 830.919 1181.18 830.919 1178.89V1178.76C830.919 1176.46 832.407 1175.22 834.039 1175.22C835.639 1175.22 836.999 1176.46 836.999 1178.76V1178.89C836.999 1181.14 835.831 1182.41 834.055 1182.41ZM843.428 1183.13C845.236 1183.13 846.532 1182.26 846.9 1180.66H846.052C845.748 1181.83 844.836 1182.41 843.428 1182.41C841.428 1182.41 840.388 1181.14 840.34 1178.89H846.964V1178.58C846.964 1175.82 845.316 1174.5 843.3 1174.5C841.06 1174.5 839.46 1176.26 839.46 1178.78V1178.9C839.46 1181.42 841.012 1183.13 843.428 1183.13ZM846.084 1178.2H840.372C840.548 1176.36 841.668 1175.22 843.3 1175.22C844.948 1175.22 846.004 1176.15 846.084 1178.2ZM854.823 1179.03V1183H855.671V1174.63H854.823V1178.31H850.007V1174.63H849.159V1183H850.007V1179.03H854.823ZM858.531 1183H859.379L864.355 1175.86V1183H865.203V1174.63H864.355L859.379 1181.75V1174.63H858.531V1183ZM871.293 1183.13C873.101 1183.13 874.397 1182.26 874.765 1180.66H873.917C873.613 1181.83 872.701 1182.41 871.293 1182.41C869.293 1182.41 868.253 1181.14 868.205 1178.89H874.829V1178.58C874.829 1175.82 873.181 1174.5 871.165 1174.5C868.925 1174.5 867.325 1176.26 867.325 1178.78V1178.9C867.325 1181.42 868.877 1183.13 871.293 1183.13ZM873.949 1178.2H868.237C868.413 1176.36 869.533 1175.22 871.165 1175.22C872.813 1175.22 873.869 1176.15 873.949 1178.2Z" fill="#1D1D1D"/>
<path d="M653.902 1172.12H649.891V1173.12H653.902V1172.12ZM649.891 1175.72H661.45V1174.72H649.891V1175.72ZM661.45 1177.54H646.28V1178.54H661.45V1177.54ZM646.28 1181.1H664.786V1180.1H646.28V1181.1ZM664.786 1182.53H649.94V1183.53H664.786V1182.53ZM649.94 1186.22H660.4V1185.22H649.94V1186.22ZM660.4 1187.74H657.743V1188.74H660.4V1187.74ZM657.743 1187.74C655.944 1187.74 654.486 1189.2 654.486 1191H655.486C655.486 1189.75 656.497 1188.74 657.743 1188.74V1187.74ZM661.163 1186.98C661.163 1187.4 660.821 1187.74 660.4 1187.74V1188.74C661.374 1188.74 662.163 1187.95 662.163 1186.98H661.163ZM660.4 1186.22C660.821 1186.22 661.163 1186.56 661.163 1186.98H662.163C662.163 1186.01 661.374 1185.22 660.4 1185.22V1186.22ZM648.095 1184.37C648.095 1185.39 648.921 1186.22 649.94 1186.22V1185.22C649.474 1185.22 649.095 1184.84 649.095 1184.37H648.095ZM649.94 1182.53C648.921 1182.53 648.095 1183.35 648.095 1184.37H649.095C649.095 1183.9 649.474 1183.53 649.94 1183.53V1182.53ZM665.5 1181.81C665.5 1182.21 665.18 1182.53 664.786 1182.53V1183.53C665.733 1183.53 666.5 1182.76 666.5 1181.81H665.5ZM664.786 1181.1C665.18 1181.1 665.5 1181.42 665.5 1181.81H666.5C666.5 1180.86 665.733 1180.1 664.786 1180.1V1181.1ZM644.5 1179.32C644.5 1180.3 645.297 1181.1 646.28 1181.1V1180.1C645.849 1180.1 645.5 1179.75 645.5 1179.32H644.5ZM646.28 1177.54C645.297 1177.54 644.5 1178.33 644.5 1179.32H645.5C645.5 1178.89 645.849 1178.54 646.28 1178.54V1177.54ZM662.361 1176.63C662.361 1177.13 661.954 1177.54 661.45 1177.54V1178.54C662.506 1178.54 663.361 1177.68 663.361 1176.63H662.361ZM661.45 1175.72C661.954 1175.72 662.361 1176.12 662.361 1176.63H663.361C663.361 1175.57 662.506 1174.72 661.45 1174.72V1175.72ZM648.095 1173.92C648.095 1174.91 648.899 1175.72 649.891 1175.72V1174.72C649.452 1174.72 649.095 1174.36 649.095 1173.92H648.095ZM649.891 1172.12C648.899 1172.12 648.095 1172.93 648.095 1173.92H649.095C649.095 1173.48 649.452 1173.12 649.891 1173.12V1172.12ZM656.027 1170C656.027 1171.17 655.076 1172.12 653.902 1172.12V1173.12C655.628 1173.12 657.027 1171.72 657.027 1170H656.027Z" fill="#1D1D1D"/>
<path d="M1568 1155C1568 1152.24 1570.24 1150 1573 1150H1783C1785.76 1150 1788 1152.24 1788 1155V1201C1788 1203.76 1785.76 1206 1783 1206H1573C1570.24 1206 1568 1203.76 1568 1201V1155Z" fill="#F3F8F7"/>
<path d="M1626.99 1179.03V1183H1627.84V1174.63H1626.99V1178.31H1622.18V1174.63H1621.33V1183H1622.18V1179.03H1626.99ZM1634.11 1182.41C1632.28 1182.41 1630.94 1181.03 1630.94 1178.89V1178.76C1630.94 1176.58 1632.32 1175.22 1634.11 1175.22C1635.9 1175.22 1637.26 1176.54 1637.26 1178.76V1178.89C1637.26 1181.05 1635.9 1182.41 1634.11 1182.41ZM1634.09 1183.13C1636.35 1183.13 1638.14 1181.38 1638.14 1178.87V1178.74C1638.14 1176.2 1636.36 1174.5 1634.11 1174.5C1631.87 1174.5 1630.06 1176.25 1630.06 1178.76V1178.89C1630.06 1181.37 1631.84 1183.13 1634.09 1183.13ZM1640.34 1174.63V1185.91H1641.18V1181.1C1641.62 1182.12 1642.72 1183.13 1644.37 1183.13C1646.55 1183.13 1648.13 1181.48 1648.13 1178.86V1178.73C1648.13 1176.12 1646.48 1174.5 1644.37 1174.5C1642.9 1174.5 1641.65 1175.51 1641.18 1176.58V1174.63H1640.34ZM1644.3 1182.41C1642.58 1182.41 1641.17 1181.18 1641.17 1178.89V1178.76C1641.17 1176.46 1642.66 1175.22 1644.29 1175.22C1645.89 1175.22 1647.25 1176.46 1647.25 1178.76V1178.89C1647.25 1181.14 1646.08 1182.41 1644.3 1182.41ZM1651.09 1175.51L1654.22 1183H1654.62L1657.81 1175.51V1183H1658.65V1174.63H1657.49L1654.48 1181.66L1651.57 1174.63H1650.35V1183H1651.09V1175.51ZM1663.71 1183.13C1665.12 1183.13 1666.01 1182.54 1666.54 1181.72V1183H1667.39V1177.46C1667.39 1175.34 1666.19 1174.5 1664.46 1174.5C1662.89 1174.5 1661.42 1175.26 1661.25 1177H1662.08C1662.27 1175.77 1663.15 1175.22 1664.43 1175.22C1665.9 1175.22 1666.54 1175.88 1666.54 1177.46V1178.22H1664.8C1662.73 1178.22 1660.88 1178.81 1660.88 1180.74C1660.88 1182.33 1662.05 1183.13 1663.71 1183.13ZM1663.77 1182.44C1662.38 1182.44 1661.73 1181.83 1661.73 1180.74C1661.73 1179.24 1663.09 1178.87 1664.83 1178.87H1666.54V1180.3C1666.54 1181.53 1665.31 1182.44 1663.77 1182.44ZM1671.64 1179.27C1671.77 1178.07 1671.84 1176.25 1671.88 1175.35H1675.5V1183H1676.35V1174.63H1671.12C1671.1 1175.19 1671.08 1175.74 1671.05 1176.28C1671 1177.22 1670.94 1178.36 1670.86 1179.19C1670.68 1180.98 1670.46 1182.25 1669.6 1182.25C1669.44 1182.25 1669.31 1182.23 1669.21 1182.2L1669.05 1182.14V1182.95L1669.21 1183.02C1669.31 1183.05 1669.45 1183.06 1669.66 1183.06C1670.99 1183.06 1671.44 1181.7 1671.64 1179.27ZM1679.2 1183H1680.05L1685.02 1175.86V1183H1685.87V1174.63H1685.02L1680.05 1181.75V1174.63H1679.2V1183ZM1693.8 1176.73V1176.68C1693.8 1175.29 1692.67 1174.5 1691.16 1174.5C1689.69 1174.5 1688.44 1175.26 1688.27 1176.9H1689.08C1689.27 1175.8 1689.98 1175.22 1691.11 1175.22C1692.31 1175.22 1692.91 1175.8 1692.91 1176.71V1176.76C1692.91 1177.8 1692.31 1178.31 1691.13 1178.31H1689.87V1179H1691.24C1692.63 1179 1693.32 1179.54 1693.32 1180.62V1180.7C1693.32 1181.7 1692.59 1182.42 1691.18 1182.42C1689.66 1182.42 1688.99 1181.69 1688.81 1180.6H1687.98C1688.12 1182.15 1689.24 1183.14 1691.18 1183.14C1693.05 1183.14 1694.2 1182.06 1694.2 1180.65V1180.57C1694.2 1179.42 1693.47 1178.74 1692.31 1178.6C1693.26 1178.42 1693.8 1177.67 1693.8 1176.73ZM1698.77 1182.28L1697.25 1185.91H1698.13L1702.77 1174.63H1701.9L1699.23 1181.3L1696.37 1174.63H1695.45L1698.77 1182.28ZM1707.8 1183.13C1709.61 1183.13 1710.9 1182.26 1711.27 1180.66H1710.42C1710.12 1181.83 1709.21 1182.41 1707.8 1182.41C1705.8 1182.41 1704.76 1181.14 1704.71 1178.89H1711.34V1178.58C1711.34 1175.82 1709.69 1174.5 1707.67 1174.5C1705.43 1174.5 1703.83 1176.26 1703.83 1178.78V1178.9C1703.83 1181.42 1705.38 1183.13 1707.8 1183.13ZM1710.46 1178.2H1704.74C1704.92 1176.36 1706.04 1175.22 1707.67 1175.22C1709.32 1175.22 1710.38 1176.15 1710.46 1178.2ZM1719.09 1175.35V1174.63H1712.45V1175.35H1715.34V1183H1716.19V1175.35H1719.09ZM1724.06 1183.13C1725.96 1183.13 1727.42 1181.9 1727.63 1180.1H1726.84C1726.64 1181.59 1725.45 1182.41 1724.06 1182.41C1722.3 1182.41 1720.94 1181.11 1720.94 1178.9V1178.78C1720.94 1176.57 1722.32 1175.22 1724.06 1175.22C1725.39 1175.22 1726.51 1175.88 1726.72 1177.29H1727.55C1727.34 1175.4 1725.76 1174.5 1724.06 1174.5C1721.84 1174.5 1720.06 1176.22 1720.06 1178.78V1178.9C1720.06 1181.45 1721.8 1183.13 1724.06 1183.13ZM1732.41 1175.32H1734.43V1178.94H1732.57C1731.09 1178.94 1730.37 1178.33 1730.37 1177.18V1177.13C1730.37 1175.93 1731.05 1175.32 1732.41 1175.32ZM1730 1183L1732.43 1179.59H1734.43V1183H1735.29V1174.63H1732.46C1730.77 1174.63 1729.52 1175.38 1729.52 1177.13V1177.18C1729.52 1178.57 1730.38 1179.24 1731.58 1179.45L1729.01 1183H1730ZM1742.35 1174.63V1183H1745.61C1747.42 1183 1748.46 1182.22 1748.46 1180.62V1180.57C1748.46 1179.42 1747.74 1178.79 1746.57 1178.6C1747.53 1178.36 1748.04 1177.7 1748.04 1176.79V1176.74C1748.04 1175.22 1746.86 1174.63 1745.34 1174.63H1742.35ZM1743.19 1175.32H1745.32C1746.47 1175.32 1747.15 1175.74 1747.15 1176.78V1176.82C1747.15 1177.82 1746.54 1178.31 1745.34 1178.31H1743.19V1175.32ZM1743.19 1179H1745.47C1746.83 1179 1747.56 1179.51 1747.56 1180.62V1180.66C1747.56 1181.77 1746.89 1182.31 1745.53 1182.31H1743.19V1179ZM1754.09 1183.13C1755.9 1183.13 1757.2 1182.26 1757.57 1180.66H1756.72C1756.41 1181.83 1755.5 1182.41 1754.09 1182.41C1752.09 1182.41 1751.05 1181.14 1751.01 1178.89H1757.63V1178.58C1757.63 1175.82 1755.98 1174.5 1753.97 1174.5C1751.73 1174.5 1750.13 1176.26 1750.13 1178.78V1178.9C1750.13 1181.42 1751.68 1183.13 1754.09 1183.13ZM1756.75 1178.2H1751.04C1751.21 1176.36 1752.33 1175.22 1753.97 1175.22C1755.61 1175.22 1756.67 1176.15 1756.75 1178.2ZM1763.18 1183.13C1765.09 1183.13 1766.54 1181.9 1766.75 1180.1H1765.97C1765.76 1181.59 1764.58 1182.41 1763.18 1182.41C1761.42 1182.41 1760.06 1181.11 1760.06 1178.9V1178.78C1760.06 1176.57 1761.44 1175.22 1763.18 1175.22C1764.51 1175.22 1765.63 1175.88 1765.84 1177.29H1766.67C1766.46 1175.4 1764.88 1174.5 1763.18 1174.5C1760.96 1174.5 1759.18 1176.22 1759.18 1178.78V1178.9C1759.18 1181.45 1760.93 1183.13 1763.18 1183.13Z" fill="#1D1D1D"/>
<rect x="1588.5" y="1169.5" width="18" height="19" rx="4.56667" stroke="#1D1D1D"/>
<path d="M1599.15 1175.22L1597.41 1177.67C1596.03 1177.57 1593.67 1177.98 1592.65 1178.19L1591.5 1173.73C1593.34 1173.18 1598.34 1172.41 1603.65 1173.73L1602.54 1178.19C1602.01 1178.05 1600.82 1177.77 1600.3 1177.77" stroke="#1D1D1D"/>
<rect x="701" y="984" width="228" height="56" rx="5" fill="#F3F8F7"/>
<path d="M754.832 1009.35V1017H755.68V1008.63H749.328V1017H750.176V1009.35H754.832ZM761.952 1016.41C760.128 1016.41 758.784 1015.03 758.784 1012.89V1012.76C758.784 1010.58 760.16 1009.22 761.952 1009.22C763.744 1009.22 765.104 1010.54 765.104 1012.76V1012.89C765.104 1015.05 763.744 1016.41 761.952 1016.41ZM761.936 1017.13C764.192 1017.13 765.984 1015.38 765.984 1012.87V1012.74C765.984 1010.2 764.208 1008.5 761.952 1008.5C759.712 1008.5 757.904 1010.25 757.904 1012.76V1012.89C757.904 1015.37 759.68 1017.13 761.936 1017.13ZM768.197 1008.63V1017H771.461C773.269 1017 774.309 1016.22 774.309 1014.62V1014.57C774.309 1013.42 773.589 1012.79 772.421 1012.6C773.381 1012.36 773.893 1011.7 773.893 1010.79V1010.74C773.893 1009.22 772.709 1008.63 771.189 1008.63H768.197ZM769.045 1009.32H771.173C772.325 1009.32 772.997 1009.74 772.997 1010.78V1010.82C772.997 1011.82 772.389 1012.31 771.189 1012.31H769.045V1009.32ZM769.045 1013H771.317C772.677 1013 773.413 1013.51 773.413 1014.62V1014.66C773.413 1015.77 772.741 1016.31 771.381 1016.31H769.045V1013ZM783.816 1008.63V1017H784.664V1008.63H783.816ZM776.616 1008.63V1017H779.432C781.128 1017 782.376 1016.1 782.376 1014.33V1014.28C782.376 1012.5 781.064 1011.7 779.272 1011.7H777.464V1008.63H776.616ZM779.48 1016.31H777.464V1012.38H779.32C780.808 1012.38 781.528 1013.06 781.528 1014.28V1014.33C781.528 1015.61 780.84 1016.31 779.48 1016.31ZM787.503 1008.63V1017H797.615V1008.63H796.767V1016.28H792.975V1008.63H792.127V1016.28H788.351V1008.63H787.503ZM802.677 1017.13C804.085 1017.13 804.981 1016.54 805.509 1015.72V1017H806.357V1011.46C806.357 1009.34 805.157 1008.5 803.429 1008.5C801.861 1008.5 800.389 1009.26 800.213 1011H801.045C801.237 1009.77 802.117 1009.22 803.397 1009.22C804.869 1009.22 805.509 1009.88 805.509 1011.46V1012.22H803.765C801.701 1012.22 799.845 1012.81 799.845 1014.74C799.845 1016.33 801.013 1017.13 802.677 1017.13ZM802.741 1016.44C801.349 1016.44 800.693 1015.83 800.693 1014.74C800.693 1013.24 802.053 1012.87 803.797 1012.87H805.509V1014.3C805.509 1015.53 804.277 1016.44 802.741 1016.44ZM812.465 1017.13C814.273 1017.13 815.569 1016.26 815.937 1014.66H815.089C814.785 1015.83 813.873 1016.41 812.465 1016.41C810.465 1016.41 809.425 1015.14 809.377 1012.89H816.001V1012.58C816.001 1009.82 814.353 1008.5 812.337 1008.5C810.097 1008.5 808.497 1010.26 808.497 1012.78V1012.9C808.497 1015.42 810.049 1017.13 812.465 1017.13ZM815.121 1012.2H809.409C809.585 1010.36 810.705 1009.22 812.337 1009.22C813.985 1009.22 815.041 1010.15 815.121 1012.2ZM823.753 1009.35V1008.63H817.113V1009.35H820.009V1017H820.857V1009.35H823.753ZM828.725 1017.13C830.629 1017.13 832.085 1015.9 832.293 1014.1H831.509C831.301 1015.59 830.117 1016.41 828.725 1016.41C826.965 1016.41 825.605 1015.11 825.605 1012.9V1012.78C825.605 1010.57 826.981 1009.22 828.725 1009.22C830.053 1009.22 831.173 1009.88 831.381 1011.29H832.213C832.005 1009.4 830.421 1008.5 828.725 1008.5C826.501 1008.5 824.725 1010.22 824.725 1012.78V1012.9C824.725 1015.45 826.469 1017.13 828.725 1017.13ZM837.08 1009.32H839.096V1012.94H837.24C835.752 1012.94 835.032 1012.33 835.032 1011.18V1011.13C835.032 1009.93 835.72 1009.32 837.08 1009.32ZM834.664 1017L837.096 1013.59H839.096V1017H839.96V1008.63H837.128C835.432 1008.63 834.184 1009.38 834.184 1011.13V1011.18C834.184 1012.57 835.048 1013.24 836.248 1013.45L833.672 1017H834.664ZM849.988 1017.13C852.212 1017.13 853.892 1015.38 853.892 1012.82V1012.7C853.892 1010.14 852.228 1008.5 849.924 1008.5C848.068 1008.5 846.66 1009.67 846.356 1011.42H847.156C847.476 1009.94 848.564 1009.22 849.908 1009.22C851.588 1009.22 852.852 1010.33 852.996 1012.33H848.468V1013.02H852.996C852.916 1015.13 851.716 1016.41 849.988 1016.41C848.548 1016.41 847.428 1015.74 847.172 1014.22H846.34C846.596 1016.2 848.196 1017.13 849.988 1017.13ZM861.767 1013.03V1017H862.615V1008.63H861.767V1012.31H856.951V1008.63H856.103V1017H856.951V1013.03H861.767ZM868.803 1017.13C870.611 1017.13 871.907 1016.26 872.275 1014.66H871.427C871.123 1015.83 870.211 1016.41 868.803 1016.41C866.803 1016.41 865.763 1015.14 865.715 1012.89H872.339V1012.58C872.339 1009.82 870.691 1008.5 868.675 1008.5C866.435 1008.5 864.835 1010.26 864.835 1012.78V1012.9C864.835 1015.42 866.387 1017.13 868.803 1017.13ZM871.459 1012.2H865.747C865.923 1010.36 867.043 1009.22 868.675 1009.22C870.323 1009.22 871.379 1010.15 871.459 1012.2ZM874.518 1008.63V1019.91H875.366V1015.1C875.798 1016.12 876.902 1017.13 878.55 1017.13C880.726 1017.13 882.31 1015.48 882.31 1012.86V1012.73C882.31 1010.12 880.662 1008.5 878.55 1008.5C877.078 1008.5 875.83 1009.51 875.366 1010.58V1008.63H874.518ZM878.486 1016.41C876.758 1016.41 875.35 1015.18 875.35 1012.89V1012.76C875.35 1010.46 876.838 1009.22 878.47 1009.22C880.07 1009.22 881.43 1010.46 881.43 1012.76V1012.89C881.43 1015.14 880.262 1016.41 878.486 1016.41ZM885.379 1009.35H889.843V1008.63H884.531V1017H885.379V1009.35ZM891.809 1017H892.657L897.633 1009.86V1017H898.481V1008.63H897.633L892.657 1015.75V1008.63H891.809V1017ZM907.676 1017.13C909.932 1017.13 911.564 1015.38 911.564 1012.87V1012.74C911.564 1010.2 909.948 1008.5 907.708 1008.5C905.612 1008.5 904.012 1010.04 903.836 1012.31H902.092V1008.63H901.244V1017H902.092V1013.03H903.82C903.82 1013.08 903.836 1013.13 903.836 1013.18C903.964 1015.54 905.532 1017.13 907.676 1017.13ZM907.692 1016.41C905.884 1016.41 904.684 1015.03 904.684 1012.89V1012.76C904.684 1010.58 905.916 1009.22 907.708 1009.22C909.484 1009.22 910.7 1010.54 910.7 1012.76V1012.89C910.7 1015.05 909.484 1016.41 907.692 1016.41Z" fill="#1D1D1D"/>
<path d="M722.967 1009.56C718.399 1017.77 722.897 1021.07 725.316 1022.2C725.388 1022.23 725.459 1022.15 725.425 1022.08C724.275 1019.69 724.727 1016.53 726.388 1014.83C728.045 1013.12 727.963 1010.8 727.891 1009.66C727.888 1009.61 727.936 1009.57 727.989 1009.58C729.801 1009.98 731.271 1011.97 731.305 1014.3C731.306 1014.35 731.344 1014.39 731.385 1014.37C731.769 1014.17 732.262 1012.67 732.198 1011.78C732.192 1011.7 732.292 1011.64 732.351 1011.7C735.359 1014.42 735.157 1019.44 733.399 1021.84C733.342 1021.92 733.453 1022.03 733.534 1021.98C742.627 1016.2 735.216 1005.26 734.026 1003.61C733.978 1003.55 733.879 1003.59 733.881 1003.67C733.9 1004.47 733.87 1006.82 732.893 1007.12C732.846 1007.13 732.8 1007.1 732.796 1007.05C732.528 1003.39 728.804 999.971 726.671 1000.32C726.631 1000.32 726.603 1000.36 726.605 1000.4C726.799 1004.08 725.516 1004.97 722.967 1009.56Z" stroke="#1D1D1D"/>
<rect x="1533" y="984" width="279" height="56" rx="5" fill="#F3F8F7"/>
<path d="M1591.83 1009.35V1017H1592.68V1008.63H1586.33V1017H1587.18V1009.35H1591.83ZM1598.95 1016.41C1597.13 1016.41 1595.78 1015.03 1595.78 1012.89V1012.76C1595.78 1010.58 1597.16 1009.22 1598.95 1009.22C1600.74 1009.22 1602.1 1010.54 1602.1 1012.76V1012.89C1602.1 1015.05 1600.74 1016.41 1598.95 1016.41ZM1598.94 1017.13C1601.19 1017.13 1602.98 1015.38 1602.98 1012.87V1012.74C1602.98 1010.2 1601.21 1008.5 1598.95 1008.5C1596.71 1008.5 1594.9 1010.25 1594.9 1012.76V1012.89C1594.9 1015.37 1596.68 1017.13 1598.94 1017.13ZM1605.2 1008.63V1017H1608.46C1610.27 1017 1611.31 1016.22 1611.31 1014.62V1014.57C1611.31 1013.42 1610.59 1012.79 1609.42 1012.6C1610.38 1012.36 1610.89 1011.7 1610.89 1010.79V1010.74C1610.89 1009.22 1609.71 1008.63 1608.19 1008.63H1605.2ZM1606.04 1009.32H1608.17C1609.32 1009.32 1610 1009.74 1610 1010.78V1010.82C1610 1011.82 1609.39 1012.31 1608.19 1012.31H1606.04V1009.32ZM1606.04 1013H1608.32C1609.68 1013 1610.41 1013.51 1610.41 1014.62V1014.66C1610.41 1015.77 1609.74 1016.31 1608.38 1016.31H1606.04V1013ZM1620.82 1008.63V1017H1621.66V1008.63H1620.82ZM1613.62 1008.63V1017H1616.43C1618.13 1017 1619.38 1016.1 1619.38 1014.33V1014.28C1619.38 1012.5 1618.06 1011.7 1616.27 1011.7H1614.46V1008.63H1613.62ZM1616.48 1016.31H1614.46V1012.38H1616.32C1617.81 1012.38 1618.53 1013.06 1618.53 1014.28V1014.33C1618.53 1015.61 1617.84 1016.31 1616.48 1016.31ZM1624.5 1008.63V1017H1634.61V1008.63H1633.77V1016.28H1629.97V1008.63H1629.13V1016.28H1625.35V1008.63H1624.5ZM1639.68 1017.13C1641.08 1017.13 1641.98 1016.54 1642.51 1015.72V1017H1643.36V1011.46C1643.36 1009.34 1642.16 1008.5 1640.43 1008.5C1638.86 1008.5 1637.39 1009.26 1637.21 1011H1638.04C1638.24 1009.77 1639.12 1009.22 1640.4 1009.22C1641.87 1009.22 1642.51 1009.88 1642.51 1011.46V1012.22H1640.76C1638.7 1012.22 1636.84 1012.81 1636.84 1014.74C1636.84 1016.33 1638.01 1017.13 1639.68 1017.13ZM1639.74 1016.44C1638.35 1016.44 1637.69 1015.83 1637.69 1014.74C1637.69 1013.24 1639.05 1012.87 1640.8 1012.87H1642.51V1014.3C1642.51 1015.53 1641.28 1016.44 1639.74 1016.44ZM1649.47 1017.13C1651.27 1017.13 1652.57 1016.26 1652.94 1014.66H1652.09C1651.79 1015.83 1650.87 1016.41 1649.47 1016.41C1647.47 1016.41 1646.43 1015.14 1646.38 1012.89H1653V1012.58C1653 1009.82 1651.35 1008.5 1649.34 1008.5C1647.1 1008.5 1645.5 1010.26 1645.5 1012.78V1012.9C1645.5 1015.42 1647.05 1017.13 1649.47 1017.13ZM1652.12 1012.2H1646.41C1646.59 1010.36 1647.71 1009.22 1649.34 1009.22C1650.99 1009.22 1652.04 1010.15 1652.12 1012.2ZM1660.75 1009.35V1008.63H1654.11V1009.35H1657.01V1017H1657.86V1009.35H1660.75ZM1665.73 1017.13C1667.63 1017.13 1669.09 1015.9 1669.29 1014.1H1668.51C1668.3 1015.59 1667.12 1016.41 1665.73 1016.41C1663.97 1016.41 1662.61 1015.11 1662.61 1012.9V1012.78C1662.61 1010.57 1663.98 1009.22 1665.73 1009.22C1667.05 1009.22 1668.17 1009.88 1668.38 1011.29H1669.21C1669.01 1009.4 1667.42 1008.5 1665.73 1008.5C1663.5 1008.5 1661.73 1010.22 1661.73 1012.78V1012.9C1661.73 1015.45 1663.47 1017.13 1665.73 1017.13ZM1674.08 1009.32H1676.1V1012.94H1674.24C1672.75 1012.94 1672.03 1012.33 1672.03 1011.18V1011.13C1672.03 1009.93 1672.72 1009.32 1674.08 1009.32ZM1671.66 1017L1674.1 1013.59H1676.1V1017H1676.96V1008.63H1674.13C1672.43 1008.63 1671.18 1009.38 1671.18 1011.13V1011.18C1671.18 1012.57 1672.05 1013.24 1673.25 1013.45L1670.67 1017H1671.66ZM1684.01 1008.63V1017H1687.28C1689.08 1017 1690.12 1016.22 1690.12 1014.62V1014.57C1690.12 1013.42 1689.4 1012.79 1688.24 1012.6C1689.2 1012.36 1689.71 1011.7 1689.71 1010.79V1010.74C1689.71 1009.22 1688.52 1008.63 1687 1008.63H1684.01ZM1684.86 1009.32H1686.99C1688.14 1009.32 1688.81 1009.74 1688.81 1010.78V1010.82C1688.81 1011.82 1688.2 1012.31 1687 1012.31H1684.86V1009.32ZM1684.86 1013H1687.13C1688.49 1013 1689.23 1013.51 1689.23 1014.62V1014.66C1689.23 1015.77 1688.56 1016.31 1687.2 1016.31H1684.86V1013ZM1699.63 1008.63V1017H1700.48V1008.63H1699.63ZM1692.43 1008.63V1017H1695.25C1696.94 1017 1698.19 1016.1 1698.19 1014.33V1014.28C1698.19 1012.5 1696.88 1011.7 1695.09 1011.7H1693.28V1008.63H1692.43ZM1695.3 1016.31H1693.28V1012.38H1695.14C1696.62 1012.38 1697.34 1013.06 1697.34 1014.28V1014.33C1697.34 1015.61 1696.66 1016.31 1695.3 1016.31ZM1708.98 1013.03V1017H1709.83V1008.63H1708.98V1012.31H1704.17V1008.63H1703.32V1017H1704.17V1013.03H1708.98ZM1716.1 1016.41C1714.27 1016.41 1712.93 1015.03 1712.93 1012.89V1012.76C1712.93 1010.58 1714.31 1009.22 1716.1 1009.22C1717.89 1009.22 1719.25 1010.54 1719.25 1012.76V1012.89C1719.25 1015.05 1717.89 1016.41 1716.1 1016.41ZM1716.08 1017.13C1718.34 1017.13 1720.13 1015.38 1720.13 1012.87V1012.74C1720.13 1010.2 1718.35 1008.5 1716.1 1008.5C1713.86 1008.5 1712.05 1010.25 1712.05 1012.76V1012.89C1712.05 1015.37 1713.83 1017.13 1716.08 1017.13ZM1725.7 1017.13C1727.61 1017.13 1729.06 1015.9 1729.27 1014.1H1728.49C1728.28 1015.59 1727.1 1016.41 1725.7 1016.41C1723.94 1016.41 1722.58 1015.11 1722.58 1012.9V1012.78C1722.58 1010.57 1723.96 1009.22 1725.7 1009.22C1727.03 1009.22 1728.15 1009.88 1728.36 1011.29H1729.19C1728.98 1009.4 1727.4 1008.5 1725.7 1008.5C1723.48 1008.5 1721.7 1010.22 1721.7 1012.78V1012.9C1721.7 1015.45 1723.45 1017.13 1725.7 1017.13ZM1732.91 1013.27C1733.03 1012.07 1733.1 1010.25 1733.15 1009.35H1736.76V1017H1737.61V1008.63H1732.38C1732.36 1009.19 1732.35 1009.74 1732.31 1010.28C1732.27 1011.22 1732.2 1012.36 1732.12 1013.19C1731.95 1014.98 1731.72 1016.25 1730.86 1016.25C1730.7 1016.25 1730.57 1016.23 1730.47 1016.2L1730.31 1016.14V1016.95L1730.47 1017.02C1730.57 1017.05 1730.71 1017.06 1730.92 1017.06C1732.25 1017.06 1732.7 1015.7 1732.91 1013.27ZM1740.46 1017H1741.31L1746.29 1009.86V1017H1747.13V1008.63H1746.29L1741.31 1015.75V1008.63H1740.46V1017ZM1749.9 1008.63V1017H1753.16C1754.97 1017 1756.01 1016.22 1756.01 1014.62V1014.57C1756.01 1013.42 1755.29 1012.79 1754.12 1012.6C1755.08 1012.36 1755.59 1011.7 1755.59 1010.79V1010.74C1755.59 1009.22 1754.41 1008.63 1752.89 1008.63H1749.9ZM1750.74 1009.32H1752.87C1754.02 1009.32 1754.7 1009.74 1754.7 1010.78V1010.82C1754.7 1011.82 1754.09 1012.31 1752.89 1012.31H1750.74V1009.32ZM1750.74 1013H1753.02C1754.38 1013 1755.11 1013.51 1755.11 1014.62V1014.66C1755.11 1015.77 1754.44 1016.31 1753.08 1016.31H1750.74V1013ZM1761.72 1016.41C1759.9 1016.41 1758.56 1015.03 1758.56 1012.89V1012.76C1758.56 1010.58 1759.93 1009.22 1761.72 1009.22C1763.52 1009.22 1764.88 1010.54 1764.88 1012.76V1012.89C1764.88 1015.05 1763.52 1016.41 1761.72 1016.41ZM1761.71 1017.13C1763.96 1017.13 1765.76 1015.38 1765.76 1012.87V1012.74C1765.76 1010.2 1763.98 1008.5 1761.72 1008.5C1759.48 1008.5 1757.68 1010.25 1757.68 1012.76V1012.89C1757.68 1015.37 1759.45 1017.13 1761.71 1017.13ZM1771.33 1017.13C1773.23 1017.13 1774.69 1015.9 1774.9 1014.1H1774.11C1773.9 1015.59 1772.72 1016.41 1771.33 1016.41C1769.57 1016.41 1768.21 1015.11 1768.21 1012.9V1012.78C1768.21 1010.57 1769.58 1009.22 1771.33 1009.22C1772.66 1009.22 1773.78 1009.88 1773.98 1011.29H1774.82C1774.61 1009.4 1773.02 1008.5 1771.33 1008.5C1769.1 1008.5 1767.33 1010.22 1767.33 1012.78V1012.9C1767.33 1015.45 1769.07 1017.13 1771.33 1017.13ZM1782.77 1009.35V1008.63H1776.13V1009.35H1779.03V1017H1779.88V1009.35H1782.77ZM1784.7 1008.63V1017H1787.51C1789.21 1017 1790.46 1016.17 1790.46 1014.38V1014.33C1790.46 1012.57 1789.16 1011.7 1787.35 1011.7H1785.54V1008.63H1784.7ZM1787.56 1016.33H1785.54V1012.38H1787.4C1788.87 1012.38 1789.61 1013.05 1789.61 1014.33V1014.38C1789.61 1015.59 1788.97 1016.33 1787.56 1016.33Z" fill="#1D1D1D"/>
<path d="M1567.2 1009.47C1560.58 1008.5 1558.52 1015.29 1553.05 1011.9M1567.2 1009.47C1568.66 1011.12 1568.8 1013.97 1568.34 1016.96M1567.2 1009.47C1565.12 1007.13 1564.97 1004.73 1565.4 1002.99C1565.61 1002.13 1565.96 1001.44 1566.28 1000.98M1555.1 1000.98C1555.1 1001.46 1555.4 1002.24 1555.31 1002.99C1555.07 1004.93 1554.19 1007.4 1553.5 1009.47C1553.27 1010.17 1553.12 1010.99 1553.05 1011.9M1553.05 1011.9C1552.94 1013.29 1553.01 1014.88 1553.22 1016.5M1553.22 1016.5C1554.46 1016.1 1557.7 1015.82 1560.26 1017.96C1561.7 1016.64 1565.23 1014.6 1568.34 1016.96M1553.22 1016.5C1553.44 1018.18 1553.81 1019.9 1554.29 1021.48M1568.34 1016.96C1568.11 1018.48 1567.72 1020.03 1567.28 1021.48M1561.07 1015.27C1560.48 1016.19 1560.01 1017.87 1559.63 1021.48" stroke="#1D1D1D" stroke-linecap="round"/>
<ellipse cx="1558.19" cy="1007.5" rx="0.576699" ry="0.931591" fill="#1D1D1D"/>
</svg>
