<svg width="116" height="116" viewBox="0 0 116 116" fill="none" xmlns="http://www.w3.org/2000/svg">
<circle opacity="0.15" cx="58" cy="58" r="58" fill="#B0CDC7"/>
<path d="M44.9396 87.4142C46.9643 84.4032 49.7996 79.9614 52.8595 74.8102M69.214 41.1994C68.5114 43.4156 67.6307 45.7693 66.6199 48.2017M64.5702 52.8698L60.8114 46.3344M64.5702 52.8698C65.297 51.2924 65.9842 49.7315 66.6199 48.2017M64.5702 52.8698C63.1305 55.9945 61.5355 59.1839 59.8777 62.324M66.6199 48.2017L73.4154 46.3344M59.8777 62.324H67.8136M59.8777 62.324C58.6436 64.6618 57.3746 66.9722 56.109 69.2084M56.109 69.2084L51.9418 62.324M56.109 69.2084C55.0151 71.1413 53.9237 73.0186 52.8595 74.8102M52.8595 74.8102C41.6704 77.1443 37.7506 64.2602 46.3401 59.4053C37.9369 49.1353 50.0741 44.0003 53.8087 47.2681C49.1405 37.4648 59.8777 34.6641 62.6782 37.4649C65.9449 24.394 83.2171 30.4627 76.6827 43.0668C81.8166 44.0003 87.4184 51.9362 77.6163 56.6045C84.6175 59.4053 84.6175 72.9429 69.214 73.4098C72.9471 81.3456 55.6749 86.9474 52.8595 74.8102Z" stroke="white"/>
<path d="M42.6058 85.5468C43.6204 83.3146 45.2966 79.5871 46.3403 77.16M47.2739 74.81C47.2739 74.94 46.8972 75.8649 46.3403 77.16M46.3403 77.16C39.8027 79.0115 28.1323 72.4761 37.4698 62.2061C32.3336 59.8721 29.9999 48.2017 41.6718 48.6683C39.8027 44.4671 39.8027 35.5976 49.1406 37.9316C49.1406 31.3963 55.2076 23.9273 64.5456 32.7966" stroke="white"/>
</svg>
