<svg width="116" height="116" viewBox="0 0 116 116" fill="none" xmlns="http://www.w3.org/2000/svg">
<circle opacity="0.15" cx="58" cy="58" r="58" fill="#B0CDC7"/>
<path d="M34 45.7191V73.2328C34 74.8896 35.3431 76.2328 37 76.2328H66.774M34 45.7191V40.8081C34 39.1512 35.3431 37.8081 37 37.8081H74.6986C76.3555 37.8081 77.6986 39.1513 77.6986 40.8081V45.7191M34 45.7191H77.6986M77.6986 45.7191V64.5547" stroke="white"/>
<path d="M77.584 69.324V76.5881H82.7727" stroke="white" stroke-linecap="round" stroke-linejoin="bevel"/>
<path d="M43.418 34.041V41.5753M68.281 34.041V41.5753" stroke="white" stroke-linecap="round" stroke-linejoin="round"/>
<circle cx="51.3291" cy="52.1233" r="1.50685" fill="white"/>
<circle cx="51.3291" cy="60.4109" r="1.50685" fill="white"/>
<circle cx="51.3291" cy="68.6985" r="1.50685" fill="white"/>
<circle cx="42.2881" cy="60.4109" r="1.50685" fill="white"/>
<circle cx="42.2881" cy="68.6985" r="1.50685" fill="white"/>
<circle cx="60.3701" cy="52.1233" r="1.50685" fill="white"/>
<circle cx="60.3701" cy="60.4109" r="1.50685" fill="white"/>
<circle cx="60.3701" cy="68.6985" r="1.50685" fill="white"/>
<circle cx="69.4111" cy="52.1233" r="1.50685" fill="white"/>
<circle cx="69.4111" cy="60.4109" r="1.50685" fill="white"/>
<circle cx="77.6979" cy="75.4793" r="10.8014" stroke="white"/>
</svg>
