<svg width="116" height="116" viewBox="0 0 116 116" fill="none" xmlns="http://www.w3.org/2000/svg">
<circle opacity="0.15" cx="58" cy="58" r="58" fill="#B0CDC7"/>
<path d="M26.1992 39.4675V49.0624" stroke="white" stroke-linecap="round" stroke-linejoin="round"/>
<path d="M28.7578 39.4675V49.0624" stroke="white" stroke-linecap="round" stroke-linejoin="round"/>
<path d="M23.4478 40.377L23 52.8046L25.8657 55.7288L25.2388 74.1875C25.2388 75.1927 25.9015 76.1978 27.4776 76.1978" stroke="white" stroke-linecap="round" stroke-linejoin="round"/>
<path d="M31.5073 40.377L31.9551 52.8046L29.0894 55.7288L29.7163 74.1875C29.7163 75.1927 29.0536 76.1978 27.4775 76.1978" stroke="white" stroke-linecap="round" stroke-linejoin="round"/>
<path d="M87.859 55.0586C87.8642 54.8575 87.7484 54.6729 87.5651 54.5901C85.2691 53.5522 83.5 50.4884 83.5 46.739C83.5 44.4195 84.1818 42.3401 85.2593 40.8529C86.3371 39.3652 87.7831 38.5 89.3312 38.5C90.8792 38.5 92.3252 39.3652 93.4031 40.8529C94.4805 42.3401 95.1623 44.4195 95.1623 46.739C95.1623 50.4884 93.3932 53.5522 91.0972 54.5901C90.9131 54.6733 90.7972 54.8592 90.8034 55.0611L91.4259 75.1989C91.425 75.709 91.3268 76.2738 91.0341 76.6988C90.7623 77.0934 90.2771 77.4351 89.3312 77.4351C88.3952 77.4351 87.9421 77.0964 87.694 76.7115C87.4214 76.2887 87.3409 75.723 87.3402 75.1977L87.859 55.0586Z" stroke="white" stroke-linecap="round" stroke-linejoin="round"/>
<path d="M52.9902 48.4473C55.2787 47.5319 59.4895 44.2364 58.0249 38.3779" stroke="white" stroke-linecap="round"/>
<path d="M60.3105 48.4473C62.599 47.5319 66.8098 44.2364 65.3452 38.3779" stroke="white" stroke-linecap="round"/>
<path d="M68.1657 72.7549V75.0011H48.1116V72.7549C48.1116 72.584 48.0243 72.4249 47.8801 72.3331C45.5882 70.8746 41.8085 67.0248 39.8188 61.165C39.057 58.9214 38.5579 56.3842 38.5047 53.574H77.8275C78.0736 56.254 77.6226 58.8127 76.7672 61.1542C74.8466 66.4109 70.9026 70.5283 68.3735 72.3492C68.243 72.4431 68.1657 72.5941 68.1657 72.7549Z" stroke="white" stroke-linecap="round" stroke-linejoin="round"/>
</svg>
