<svg width="88" height="62" viewBox="0 0 88 62" fill="none" xmlns="http://www.w3.org/2000/svg">
<path d="M86.4986 30.0424C86.7034 31.9299 83.9831 34.8102 81.5463 34.8064C79.8309 34.8064 77.6574 34.0081 77.3622 30.8087C76.8258 25.0028 80.6096 20.9107 80.5475 20.3463C80.4853 19.782 79.4189 19.2289 78.826 19.2931C78.826 19.2931 78.7829 19.3365 78.7054 19.4196C78.3591 18.2512 76.6813 17.6944 75.6763 17.768C74.1978 17.8794 72.2899 20.1123 71.419 21.8318C70.7849 21.9205 70.1625 22.0742 69.5598 22.2904C70.0094 18.9194 68.5437 18.0983 67.067 18.2588C66.1358 18.3504 65.241 18.6713 64.4629 19.1931C64.4789 19.0951 64.4826 18.9956 64.4746 18.8967C64.3934 18.1417 61.7992 17.1697 61.9025 18.1417C62.0907 19.8405 57.7634 25.7861 55.9817 31.6996C55.7823 31.8318 55.7146 31.8148 55.4794 31.7506C54.5895 31.5071 53.7692 28.8307 52.8812 27.9189C54.3186 27.1847 59.1068 22.6566 59.231 20.7653C59.2761 20.0802 56.8548 18.5003 56.5405 19.4686C55.9761 21.2108 52.8304 25.7653 50.8963 26.6411C51.7561 23.6532 53.2612 20.9975 53.2405 20.8088C53.201 20.4313 51.709 19.8537 50.6536 20.0217C50.2283 20.0896 48.8417 23.2927 48.0195 25.6408C45.8935 29.0798 39.1072 36.9054 38.5202 36.9658C38.0913 37.013 37.811 35.9522 37.811 34.9725C37.811 29.7366 43.1505 23.9722 45.2238 23.7476C45.7882 23.6853 46.8738 24.6328 46.7703 23.6778C46.6235 22.3169 44.9641 21.5014 43.935 21.5449C39.8128 21.7185 36.1534 26.4127 34.9813 29.1421C33.4761 31.7525 28.2778 38.0454 26.5149 40.3481C26.4914 40.379 26.4584 40.4012 26.421 40.4114C26.3837 40.4217 26.344 40.4193 26.3081 40.4047C26.2723 40.3902 26.2421 40.3642 26.2223 40.3308C26.2026 40.2974 26.1944 40.2584 26.1988 40.2198C27.1865 32.1243 34.4056 24.2629 34.4112 23.3625C34.4112 22.5641 32.8685 21.9885 31.4555 22.1414C29.7321 22.3301 18.0221 39.1987 14.2386 43.0209C14.2005 43.0589 14.1522 43.0849 14.0995 43.0957C14.0469 43.1064 13.9922 43.1014 13.9424 43.0814C13.8925 43.0613 13.8496 43.027 13.819 42.9827C13.7884 42.9384 13.7714 42.886 13.7701 42.8321C13.4559 32.583 34.7518 12.9039 34.8891 11.2788C34.9794 10.1973 32.4602 9.39125 31.2317 9.42901C21.911 9.72345 0 27.5943 0 31.9035C0 33.9797 3.6462 36.6958 3.62551 35.3595C3.54649 30.6408 24.2911 11.3675 30.8741 11.6789C28.5431 13.1455 7.90388 31.4165 7.02332 44.5327C6.76372 48.4021 10.0675 49.361 12.3215 49.361C13.8567 49.361 15.5687 48.3832 22.4661 37.4697C22.2647 38.3172 22.024 40.4803 22.0729 40.9465C22.2742 42.8057 24.9289 43.8797 26.5713 43.6721C27.3992 43.5701 30.8986 38.1624 33.6398 34.6121C33.5834 37.3905 35.3219 39.7083 39.1223 39.3044C40.904 39.1156 45.3554 32.9774 46.648 30.5407C46.3225 31.9054 45.6697 33.589 45.7769 34.58C45.8239 35.0235 48.9753 36.9922 48.7665 35.0405C48.6461 33.9269 49.5191 31.4543 50.0703 29.2931C51.8295 29.8461 52.1719 35.2236 55.1709 34.8989L55.265 34.865C55.0354 36.1749 54.8886 37.2678 55.0241 38.4927C55.0937 39.1345 55.4944 39.3233 55.6732 39.814C36.0819 42.2149 10.5492 54.159 5.17015 55.4161C3.17584 55.8785 3.06295 54.8782 2.7243 55.3331C1.79676 56.5561 4.91426 61.6861 7.90947 61.2598C16.6111 60.0216 34.1798 45.9409 58.58 41.7827L58.3919 40.703C58.0757 27.868 66.134 19.6649 66.9655 20.352C67.3419 20.671 67.2761 21.811 66.9465 23.4928C63.771 26.0428 60.9111 29.193 61.2799 32.6245C61.3401 33.1908 61.7032 35.0914 63.5373 34.8272C66.2053 34.4497 68.5099 28.4361 69.3119 24.0798C69.7197 23.754 70.1822 23.5029 70.6773 23.338C70.2222 24.6593 69.7369 25.822 69.7369 27.6283C69.7369 28.2418 69.7652 31.6109 72.5083 31.6109C73.4487 31.6109 74.3331 30.9503 75.1683 29.9877C75.5183 33.0435 76.8615 34.631 78.6132 35.7615C74.4567 36.1351 70.3292 36.7845 66.2582 37.7057C64.8922 37.8548 64.8787 40.3482 65.4187 40.4803C77.6635 37.4471 83.7309 37.734 85.0686 37.532C85.6873 37.4395 85.3355 36.7053 84.7525 35.7918C87.3412 34.5875 87.7625 32.583 87.9507 31.8091C88.3271 30.1613 86.4229 29.3365 86.4986 30.0424ZM63.2685 33.3493C63.1142 33.3663 63.0016 32.9718 62.9635 32.6207C62.8134 31.2315 64.3541 28.4248 66.3505 25.8899C65.3529 29.444 63.9721 33.2719 63.2685 33.3493ZM72.5925 29.5422C72.3201 29.5837 72.1866 29.1232 72.1675 28.8269C71.9043 24.6045 75.3301 20.0406 76.3578 19.7235C77.0614 19.5064 77.3566 19.9122 77.3923 20.2368C77.4132 20.4445 77.8062 20.2803 78.043 20.4256C77.6352 20.9786 76.8597 22.2357 76.7262 22.5018C75.53 24.5668 73.3792 29.4252 72.5925 29.5422Z" fill="url(#paint0_linear)"/>
<path d="M57.9959 0.0917344C58.6426 0.393502 59.8635 3.23408 59.6989 4.35442C58.7191 11.0023 40.9818 9.65434 37.9972 16.5064C37.1153 18.5357 35.82 16.071 36.2159 15.1078C38.9732 8.42195 55.8971 6.56075 56.9769 0.711519C57.1023 0.0320916 57.5237 -0.126911 57.9959 0.0917344Z" fill="url(#paint1_linear)"/>
<path d="M65.7766 9.93883C65.8213 9.90718 65.8713 9.88465 65.9238 9.87236C65.9751 9.85834 66.0281 9.85133 66.0806 9.85151C66.1808 9.85021 66.2797 9.87162 66.3708 9.91419C66.457 9.9577 66.5312 10.023 66.5867 10.104L67.0735 9.65788C67.021 9.59104 66.9589 9.53283 66.8889 9.4851C66.8153 9.43403 66.7363 9.39195 66.6531 9.3598C66.5668 9.32498 66.4781 9.29892 66.387 9.28198C66.2978 9.26392 66.2067 9.25498 66.1162 9.25535C65.9534 9.25442 65.7917 9.27875 65.6361 9.32753C65.4943 9.37308 65.3616 9.44377 65.2434 9.53636C65.1324 9.6253 65.0419 9.73806 64.9774 9.86672C64.9116 10.0008 64.8779 10.1492 64.8797 10.2995C64.8773 10.4114 64.8972 10.5226 64.9388 10.6261C64.975 10.7136 65.0275 10.7929 65.0938 10.8596C65.1614 10.926 65.2386 10.9812 65.3224 11.0229C65.4147 11.0697 65.5094 11.1103 65.6065 11.1444C65.7296 11.1832 65.8454 11.2408 65.9515 11.3152C65.9926 11.3435 66.0263 11.382 66.0487 11.4272C66.071 11.4723 66.0824 11.5226 66.0806 11.5734C66.083 11.635 66.0686 11.6958 66.0402 11.75C66.0137 11.798 65.9763 11.839 65.9316 11.8696C65.8834 11.902 65.8291 11.9245 65.773 11.936C65.7121 11.9499 65.6505 11.9569 65.5884 11.9569C65.463 11.9558 65.3399 11.9253 65.2283 11.8677C65.1209 11.8171 65.0287 11.7378 64.9611 11.6379L64.4297 12.0822C64.4924 12.1639 64.5672 12.2355 64.6511 12.2948C64.7379 12.3579 64.832 12.4096 64.9315 12.4486C65.0335 12.4887 65.139 12.5192 65.247 12.5398C65.3556 12.5594 65.4654 12.5695 65.5752 12.5701C65.7253 12.57 65.8749 12.5502 66.0197 12.5113C66.1651 12.4738 66.3026 12.4094 66.4257 12.3214C66.5469 12.2368 66.6476 12.1251 66.7212 11.9949C66.8002 11.8468 66.84 11.6797 66.8358 11.5108C66.8376 11.4024 66.8189 11.2947 66.7803 11.1937C66.7423 11.0993 66.6862 11.0134 66.6163 10.9412C66.5366 10.8662 66.448 10.8024 66.3521 10.7514C66.2381 10.6901 66.1192 10.6374 65.998 10.5938C65.8967 10.5609 65.8007 10.5122 65.7139 10.4495C65.6813 10.4256 65.6554 10.3939 65.6373 10.3572C65.6198 10.3204 65.6113 10.2798 65.6119 10.2388C65.6101 10.1777 65.6258 10.1174 65.6584 10.0661C65.6873 10.0147 65.7278 9.9711 65.7766 9.93883ZM67.2768 9.33131L67.164 9.96732H68.0199L67.594 12.479H68.31L68.7419 9.96732H69.5791L69.6865 9.33131H67.2768ZM71.8544 9.33131L71.522 11.2469C71.5088 11.3275 71.4895 11.4069 71.4635 11.4842C71.4376 11.5615 71.399 11.6335 71.3489 11.6968C71.2952 11.7627 71.2289 11.8159 71.1535 11.8525C71.0594 11.8958 70.9574 11.9165 70.8543 11.9132C70.7735 11.9152 70.6926 11.9016 70.616 11.8734C70.5551 11.8506 70.5002 11.8135 70.4556 11.7652C70.4158 11.7196 70.3856 11.6659 70.3675 11.6076C70.3482 11.5462 70.3392 11.4821 70.3398 11.4178C70.3398 11.3912 70.3398 11.3627 70.3398 11.3285C70.3416 11.2973 70.3452 11.2662 70.3506 11.2355L70.6794 9.33702H69.9652L69.6292 11.3114C69.6292 11.3551 69.6184 11.4007 69.6141 11.4481C69.6105 11.4956 69.6141 11.5392 69.6141 11.581C69.6123 11.7223 69.6407 11.8625 69.6974 11.9911C69.7535 12.1118 69.8361 12.2172 69.9393 12.2987C70.0533 12.3859 70.1823 12.4503 70.3193 12.4885C70.4821 12.5359 70.6504 12.5589 70.8193 12.5568C71.0075 12.5604 71.1945 12.5301 71.373 12.4676C71.5263 12.4127 71.6674 12.3283 71.7899 12.2189C71.9075 12.1127 72.0034 11.9836 72.0721 11.8392C72.1469 11.678 72.1994 11.5067 72.2272 11.3304L72.5631 9.34081L71.8544 9.33131ZM75.1756 9.63697C75.0374 9.5296 74.88 9.45091 74.7129 9.40535C74.5452 9.35645 74.3721 9.33156 74.1978 9.33131H73.065L72.5264 12.479H73.7756C74.0271 12.4814 74.2768 12.4377 74.5133 12.3499C74.7322 12.27 74.9331 12.1454 75.1038 11.9835C75.2715 11.824 75.4048 11.6299 75.4953 11.414C75.5918 11.1734 75.6394 10.9149 75.6352 10.6545C75.6412 10.4446 75.596 10.2365 75.5043 10.0489C75.4235 9.88689 75.3089 9.74545 75.1683 9.63504L75.1756 9.63697ZM74.8251 11.1557C74.7787 11.2894 74.7051 11.4115 74.6098 11.5142C74.5145 11.6168 74.3993 11.6978 74.2714 11.7519C74.1212 11.8151 73.9601 11.8462 73.7973 11.843H73.3358L73.6555 9.96353H74.0615C74.1869 9.96105 74.3118 9.98234 74.43 10.0262C74.5283 10.0628 74.6176 10.1204 74.6924 10.1951C74.7612 10.2657 74.8137 10.3514 74.8456 10.4457C74.8788 10.5433 74.8957 10.646 74.8951 10.7495C74.8933 10.8856 74.8685 11.0203 74.8233 11.1482L74.8251 11.1557ZM75.7275 12.4846H76.4489L76.9876 9.33895H76.2662L75.7275 12.4846ZM79.9583 9.63697C79.8244 9.51135 79.6657 9.41628 79.4932 9.35788C79.2936 9.2888 79.0843 9.25541 78.8737 9.2592C78.6234 9.25672 78.3761 9.30786 78.1463 9.40914C77.931 9.50416 77.7367 9.64299 77.5745 9.81732C77.414 9.99382 77.2886 10.2008 77.2053 10.4268C77.1148 10.6689 77.0696 10.9266 77.0726 11.1861C77.0708 11.3809 77.1052 11.5743 77.174 11.7557C77.2397 11.9222 77.3398 12.0719 77.4677 12.1942C77.6034 12.3199 77.7627 12.4155 77.9364 12.4752C78.1385 12.5427 78.3508 12.5754 78.5637 12.572C78.8134 12.5754 79.0613 12.5242 79.2906 12.422C79.5047 12.327 79.6983 12.1881 79.8588 12.0139C80.0192 11.8373 80.1447 11.6304 80.2279 11.4045C80.316 11.1656 80.3606 10.912 80.3588 10.6564C80.3612 10.4616 80.3268 10.2681 80.2575 10.0869C80.1947 9.9132 80.0952 9.75625 79.9661 9.62747L79.9583 9.63697ZM79.5361 11.1557C79.4926 11.2938 79.4251 11.4224 79.3364 11.5354C79.2508 11.6471 79.1428 11.7384 79.0191 11.8032C78.8876 11.871 78.7423 11.9056 78.5951 11.9038C78.4799 11.9062 78.3659 11.8849 78.2591 11.8411C78.1674 11.8029 78.0842 11.7453 78.0154 11.6721C77.9485 11.6005 77.8972 11.5151 77.864 11.4215C77.829 11.3224 77.8115 11.2176 77.8127 11.1121C77.8127 10.963 77.8363 10.8149 77.8827 10.6736C77.9292 10.536 77.9973 10.4076 78.0854 10.2939C78.1734 10.1837 78.282 10.0927 78.4051 10.0262C78.5215 9.9667 78.6482 9.93225 78.7778 9.92512C78.9075 9.91792 79.0378 9.93809 79.1597 9.98439C79.2514 10.0224 79.3346 10.0799 79.4034 10.1534C79.4685 10.2266 79.5192 10.3124 79.5523 10.4058C79.5879 10.5043 79.6054 10.6085 79.6042 10.7134C79.6024 10.8587 79.5789 11.0028 79.5342 11.1406L79.5361 11.1557ZM67.6899 8.48654C67.9083 8.40592 68.1092 8.2813 68.2805 8.12006C68.4482 7.96081 68.5815 7.76669 68.6713 7.55053C68.7691 7.31023 68.8167 7.05155 68.8119 6.79114C68.8173 6.58063 68.7721 6.37204 68.681 6.18366C68.6008 6.02307 68.4862 5.88295 68.3468 5.77359C68.2081 5.66634 68.0507 5.58711 67.8836 5.54008C67.7159 5.49272 67.5428 5.46846 67.369 5.46794H66.2356L65.6988 8.6137H66.9462C67.1995 8.61134 67.4511 8.56318 67.6881 8.47133L67.6899 8.48654ZM66.8334 6.09632H67.2339C67.3594 6.09422 67.4843 6.11479 67.6031 6.15708C67.7008 6.19443 67.7901 6.25194 67.8649 6.32606C67.9336 6.39761 67.9861 6.48382 68.0181 6.57852C68.0519 6.67608 68.0688 6.77886 68.0681 6.88231C68.0675 7.02071 68.0446 7.15805 68 7.28857C67.9529 7.42225 67.88 7.54432 67.7846 7.64703C67.6893 7.74968 67.5741 7.83067 67.4463 7.88467C67.2961 7.94797 67.1344 7.97894 66.9721 7.97583H66.5107L66.8334 6.09632ZM68.8987 8.61562H69.6202L70.1588 5.46983H69.4374L68.8987 8.61562ZM71.2826 6.39631C71.3749 6.28665 71.4883 6.19695 71.6143 6.1324C71.7446 6.06786 71.887 6.03412 72.0317 6.03367C72.1596 6.0307 72.2869 6.06071 72.4009 6.12099C72.495 6.17277 72.5758 6.24697 72.6367 6.33741L73.1591 5.85143C73.0397 5.69234 72.878 5.57176 72.694 5.50399C72.4835 5.42254 72.2603 5.38261 72.0354 5.38629C71.7874 5.38341 71.5419 5.43521 71.3157 5.53818C71.0992 5.63613 70.9044 5.77747 70.7421 5.95393C70.5768 6.13257 70.4477 6.34288 70.3615 6.57281C70.2704 6.81498 70.2252 7.07259 70.227 7.3322C70.224 7.52744 70.2602 7.72126 70.3319 7.90179C70.4001 8.06576 70.5014 8.21278 70.6293 8.33275C70.7626 8.45482 70.9194 8.54779 71.0889 8.60613C71.2814 8.67104 71.4834 8.70313 71.6867 8.70102C72.0782 8.70083 72.4642 8.60656 72.8141 8.42572L73.0946 6.76266H71.8472L71.738 7.3721H72.3339L72.2362 7.96255C72.1717 7.99551 72.1029 8.01915 72.0317 8.03274C71.9521 8.0464 71.8719 8.05459 71.7917 8.05744C71.6734 8.05931 71.5558 8.0387 71.4448 7.99669C71.3495 7.95908 71.2627 7.90155 71.1903 7.82769C71.1209 7.75427 71.0678 7.66615 71.0353 7.56952C70.9997 7.46656 70.9822 7.35795 70.9834 7.24872C70.981 6.93699 71.0871 6.63463 71.2826 6.39631ZM73.2514 8.61749H73.9728L74.5115 5.46983H73.79L73.2514 8.61749ZM75.1297 8.61749H75.8475L76.2776 6.10772H77.1148L77.224 5.47173H74.8125L74.7015 6.10772H75.5556L75.1297 8.61749ZM78.5486 7.98911L78.6542 8.61562H79.4124L78.8327 5.46983H78.121L76.1739 8.61749H76.9954L77.364 7.99104L78.5486 7.98911ZM78.3164 6.2805L78.4769 7.3968H77.6758L78.3164 6.2805ZM80.5156 7.97391L80.9457 5.47173H80.2243L79.6857 8.61749H81.6044L81.7154 7.97199L80.5156 7.97391ZM68.0145 3.48972H69.1587L69.2619 2.88221H68.1182L68.234 2.21205H69.4483L69.5574 1.58177H67.6345L67.0958 4.72942H67.8046L68.0145 3.48972ZM69.5424 3.82385C69.5399 3.96478 69.5695 4.10438 69.6274 4.23203C69.6829 4.35331 69.7661 4.45934 69.8693 4.54148C69.9839 4.62769 70.1124 4.69199 70.2493 4.73132C70.4109 4.7789 70.5786 4.80192 70.7475 4.79967C70.9357 4.8024 71.1227 4.77223 71.3007 4.71045C71.4533 4.65827 71.5938 4.57485 71.7138 4.46521C71.8345 4.35557 71.9316 4.222 72.0004 4.07256C72.0746 3.91119 72.127 3.73994 72.1554 3.56376L72.4932 1.57227H71.7844L71.4521 3.48781C71.4376 3.56829 71.4171 3.64759 71.3911 3.72512C71.3658 3.80303 71.3272 3.87567 71.2771 3.93965C71.2241 4.00538 71.1577 4.05851 71.0829 4.09534C70.9888 4.13813 70.8857 4.15824 70.7825 4.15418C70.7011 4.15612 70.6209 4.14261 70.5443 4.11432C70.4839 4.09102 70.4303 4.05402 70.3856 4.00609C70.3452 3.9608 70.315 3.90704 70.2969 3.84853C70.2782 3.78717 70.2686 3.72307 70.2692 3.65868C70.2692 3.63211 70.2692 3.60173 70.2692 3.56946C70.2692 3.5381 70.2728 3.50683 70.2807 3.47644L70.607 1.57796H69.8946L69.5592 3.55048C69.5592 3.59414 69.5478 3.6416 69.5424 3.68717C69.5369 3.73273 69.5405 3.765 69.5405 3.80677L69.5424 3.82385ZM74.3751 4.72563L74.4873 4.08014H73.2864L73.7183 1.57796H72.9968L72.4576 4.72372L74.3751 4.72563ZM76.7553 4.08014H75.5538L75.9857 1.57796H75.2642L74.7256 4.72372H76.6444L76.7553 4.08014Z" fill="#1D1D1D"/>
<defs>
<linearGradient id="paint0_linear" x1="3.5" y1="65" x2="54.8548" y2="-1.22391" gradientUnits="userSpaceOnUse">
<stop stop-color="#429382"/>
<stop offset="1" stop-color="#146957"/>
</linearGradient>
<linearGradient id="paint1_linear" x1="3.5" y1="65" x2="54.8548" y2="-1.22391" gradientUnits="userSpaceOnUse">
<stop stop-color="#429382"/>
<stop offset="1" stop-color="#146957"/>
</linearGradient>
</defs>
</svg>
