<svg width="215" height="266" viewBox="0 0 215 266" fill="none" xmlns="http://www.w3.org/2000/svg">
<path d="M41.978 11.308V18H42.72V10.678H37.162V18H37.904V11.308H41.978ZM48.1272 17.482C46.5312 17.482 45.3552 16.278 45.3552 14.402V14.29C45.3552 12.386 46.5592 11.196 48.1272 11.196C49.6952 11.196 50.8852 12.344 50.8852 14.29V14.402C50.8852 16.292 49.6952 17.482 48.1272 17.482ZM48.1132 18.112C50.0872 18.112 51.6552 16.586 51.6552 14.388V14.276C51.6552 12.05 50.1012 10.566 48.1272 10.566C46.1672 10.566 44.5852 12.092 44.5852 14.29V14.402C44.5852 16.572 46.1392 18.112 48.1132 18.112ZM53.5112 10.678V18H56.3672C57.9492 18 58.8592 17.314 58.8592 15.914V15.872C58.8592 14.864 58.2292 14.318 57.2072 14.15C58.0472 13.94 58.4952 13.366 58.4952 12.568V12.526C58.4952 11.196 57.4592 10.678 56.1292 10.678H53.5112ZM54.2532 11.28H56.1152C57.1232 11.28 57.7112 11.644 57.7112 12.554V12.596C57.7112 13.464 57.1792 13.898 56.1292 13.898H54.2532V11.28ZM54.2532 14.5H56.2412C57.4312 14.5 58.0752 14.948 58.0752 15.914V15.956C58.0752 16.922 57.4872 17.398 56.2972 17.398H54.2532V14.5ZM67.0971 10.678V18H67.8391V10.678H67.0971ZM60.7971 10.678V18H63.2611C64.7451 18 65.8371 17.216 65.8371 15.662V15.62C65.8371 14.066 64.6891 13.366 63.1211 13.366H61.5391V10.678H60.7971ZM63.3031 17.398H61.5391V13.954H63.1631C64.4651 13.954 65.0951 14.556 65.0951 15.62V15.662C65.0951 16.782 64.4931 17.398 63.3031 17.398ZM70.2432 10.678V18H79.0912V10.678H78.3492V17.37H75.0312V10.678H74.2892V17.37H70.9852V10.678H70.2432ZM83.4397 18.112C84.6717 18.112 85.4557 17.594 85.9177 16.88V18H86.6597V13.156C86.6597 11.294 85.6097 10.566 84.0977 10.566C82.7257 10.566 81.4377 11.224 81.2837 12.75H82.0117C82.1797 11.672 82.9497 11.196 84.0697 11.196C85.3577 11.196 85.9177 11.77 85.9177 13.156V13.814H84.3917C82.5857 13.814 80.9617 14.332 80.9617 16.026C80.9617 17.412 81.9837 18.112 83.4397 18.112ZM83.4957 17.51C82.2777 17.51 81.7037 16.978 81.7037 16.026C81.7037 14.71 82.8937 14.388 84.4197 14.388H85.9177V15.634C85.9177 16.712 84.8397 17.51 83.4957 17.51ZM91.9244 18.112C93.5064 18.112 94.6404 17.356 94.9624 15.956H94.2204C93.9544 16.978 93.1564 17.482 91.9244 17.482C90.1744 17.482 89.2644 16.376 89.2224 14.402H95.0184V14.136C95.0184 11.714 93.5764 10.566 91.8124 10.566C89.8524 10.566 88.4524 12.106 88.4524 14.304V14.416C88.4524 16.614 89.8104 18.112 91.9244 18.112ZM94.2484 13.8H89.2504C89.4044 12.19 90.3844 11.196 91.8124 11.196C93.2544 11.196 94.1784 12.008 94.2484 13.8ZM101.72 11.308V10.678H95.9101V11.308H98.4441V18H99.1861V11.308H101.72ZM105.991 18.112C107.657 18.112 108.931 17.034 109.113 15.466H108.427C108.245 16.768 107.209 17.482 105.991 17.482C104.451 17.482 103.261 16.348 103.261 14.416V14.304C103.261 12.372 104.465 11.196 105.991 11.196C107.153 11.196 108.133 11.77 108.315 13.002H109.043C108.861 11.35 107.475 10.566 105.991 10.566C104.045 10.566 102.491 12.064 102.491 14.304V14.416C102.491 16.642 104.017 18.112 105.991 18.112ZM113.221 11.28H114.985V14.444H113.361C112.059 14.444 111.429 13.912 111.429 12.904V12.862C111.429 11.812 112.031 11.28 113.221 11.28ZM111.107 18L113.235 15.018H114.985V18H115.741V10.678H113.263C111.779 10.678 110.687 11.336 110.687 12.862V12.904C110.687 14.122 111.443 14.71 112.493 14.892L110.239 18H111.107ZM124.355 18.112C126.301 18.112 127.771 16.586 127.771 14.346V14.234C127.771 11.994 126.315 10.566 124.299 10.566C122.675 10.566 121.443 11.588 121.177 13.114H121.877C122.157 11.826 123.109 11.196 124.285 11.196C125.755 11.196 126.861 12.162 126.987 13.912H123.025V14.514H126.987C126.917 16.362 125.867 17.482 124.355 17.482C123.095 17.482 122.115 16.894 121.891 15.564H121.163C121.387 17.3 122.787 18.112 124.355 18.112ZM134.58 14.528V18H135.322V10.678H134.58V13.898H130.366V10.678H129.624V18H130.366V14.528H134.58ZM140.656 18.112C142.238 18.112 143.372 17.356 143.694 15.956H142.952C142.686 16.978 141.888 17.482 140.656 17.482C138.906 17.482 137.996 16.376 137.954 14.402H143.75V14.136C143.75 11.714 142.308 10.566 140.544 10.566C138.584 10.566 137.184 12.106 137.184 14.304V14.416C137.184 16.614 138.542 18.112 140.656 18.112ZM142.98 13.8H137.982C138.136 12.19 139.116 11.196 140.544 11.196C141.986 11.196 142.91 12.008 142.98 13.8ZM145.577 10.678V20.548H146.319V16.334C146.697 17.23 147.663 18.112 149.105 18.112C151.009 18.112 152.395 16.67 152.395 14.374V14.262C152.395 11.98 150.953 10.566 149.105 10.566C147.817 10.566 146.725 11.448 146.319 12.386V10.678H145.577ZM149.049 17.482C147.537 17.482 146.305 16.404 146.305 14.402V14.29C146.305 12.274 147.607 11.196 149.035 11.196C150.435 11.196 151.625 12.274 151.625 14.29V14.402C151.625 16.376 150.603 17.482 149.049 17.482ZM155 11.308H158.906V10.678H154.258V18H155V11.308ZM160.546 18H161.288L165.642 11.756V18H166.384V10.678H165.642L161.288 16.908V10.678H160.546V18ZM171.016 11.28H172.78V14.444H171.156C169.854 14.444 169.224 13.912 169.224 12.904V12.862C169.224 11.812 169.826 11.28 171.016 11.28ZM168.902 18L171.03 15.018H172.78V18H173.536V10.678H171.058C169.574 10.678 168.482 11.336 168.482 12.862V12.904C168.482 14.122 169.238 14.71 170.288 14.892L168.034 18H168.902Z" fill="#1D1D1D"/>
<path d="M6.22793 11.9456C0.796865 21.6444 6.13939 25.5512 9.0189 26.883C9.10485 26.9228 9.19149 26.8298 9.15033 26.7445C7.78545 23.9165 8.32283 20.1902 10.2975 18.1751C12.2677 16.1645 12.1713 13.4239 12.0862 12.0739C12.0821 12.0088 12.1403 11.9572 12.204 11.9712C14.3585 12.4472 16.1054 14.7975 16.1469 17.5556C16.1477 17.6109 16.1943 17.6556 16.2435 17.6305C16.6991 17.3987 17.2829 15.6337 17.2091 14.5802C17.2024 14.4841 17.323 14.4156 17.3947 14.48C20.9645 17.6893 20.7286 23.6121 18.646 26.4513C18.5774 26.5449 18.7108 26.6854 18.809 26.6234C29.6027 19.797 20.8087 6.88218 19.3862 4.9283C19.3283 4.8488 19.2095 4.90104 19.2118 4.99936C19.234 5.95012 19.1966 8.70567 18.0371 9.06454C17.9801 9.08217 17.925 9.03849 17.9206 8.97904C17.6001 4.65666 13.1734 0.619622 10.6363 1.02864C10.5872 1.03655 10.5541 1.0825 10.5568 1.13213C10.7858 5.47061 9.25983 6.53127 6.22793 11.9456Z" stroke="#1D1D1D"/>
<path d="M39.248 57.37L37.918 60.548H38.688L42.748 50.678H41.992L39.654 56.516L37.148 50.678H36.35L39.248 57.37ZM45.1617 54.738C45.2737 53.688 45.3297 52.092 45.3717 51.308H48.5357V58H49.2777V50.678H44.6997C44.6857 51.168 44.6717 51.644 44.6437 52.12C44.6017 52.946 44.5457 53.94 44.4757 54.668C44.3217 56.236 44.1257 57.342 43.3697 57.342C43.2297 57.342 43.1177 57.328 43.0337 57.3L42.8937 57.244V57.958L43.0337 58.014C43.1177 58.042 43.2437 58.056 43.4257 58.056C44.5877 58.056 44.9797 56.866 45.1617 54.738ZM53.7788 57.37L52.4488 60.548H53.2188L57.2788 50.678H56.5228L54.1848 56.516L51.6788 50.678H50.8808L53.7788 57.37ZM63.5028 58H64.2448V50.678H63.5028V53.576C63.2788 53.828 62.6488 54.71 61.3328 54.71C60.1428 54.71 59.4428 54.08 59.4428 52.512V50.678H58.7008V52.54C58.7008 54.57 59.7648 55.354 61.1648 55.354C62.3968 55.354 63.0828 54.78 63.5028 54.318V58ZM66.7979 50.678V58H75.6459V50.678H74.9039V57.37H71.5859V50.678H70.8439V57.37H67.5399V50.678H66.7979ZM79.9944 58.112C81.2264 58.112 82.0104 57.594 82.4724 56.88V58H83.2144V53.156C83.2144 51.294 82.1644 50.566 80.6524 50.566C79.2804 50.566 77.9924 51.224 77.8384 52.75H78.5664C78.7344 51.672 79.5044 51.196 80.6244 51.196C81.9124 51.196 82.4724 51.77 82.4724 53.156V53.814H80.9464C79.1404 53.814 77.5164 54.332 77.5164 56.026C77.5164 57.412 78.5384 58.112 79.9944 58.112ZM80.0504 57.51C78.8324 57.51 78.2584 56.978 78.2584 56.026C78.2584 54.71 79.4484 54.388 80.9744 54.388H82.4724V55.634C82.4724 56.712 81.3944 57.51 80.0504 57.51ZM88.479 58.112C90.061 58.112 91.195 57.356 91.517 55.956H90.775C90.509 56.978 89.711 57.482 88.479 57.482C86.729 57.482 85.819 56.376 85.777 54.402H91.573V54.136C91.573 51.714 90.131 50.566 88.367 50.566C86.407 50.566 85.007 52.106 85.007 54.304V54.416C85.007 56.614 86.365 58.112 88.479 58.112ZM90.803 53.8H85.805C85.959 52.19 86.939 51.196 88.367 51.196C89.809 51.196 90.733 52.008 90.803 53.8ZM98.2748 51.308V50.678H92.4648V51.308H94.9988V58H95.7408V51.308H98.2748ZM102.546 58.112C104.212 58.112 105.486 57.034 105.668 55.466H104.982C104.8 56.768 103.764 57.482 102.546 57.482C101.006 57.482 99.8157 56.348 99.8157 54.416V54.304C99.8157 52.372 101.02 51.196 102.546 51.196C103.708 51.196 104.688 51.77 104.87 53.002H105.598C105.416 51.35 104.03 50.566 102.546 50.566C100.6 50.566 99.0457 52.064 99.0457 54.304V54.416C99.0457 56.642 100.572 58.112 102.546 58.112ZM109.776 51.28H111.54V54.444H109.916C108.614 54.444 107.984 53.912 107.984 52.904V52.862C107.984 51.812 108.586 51.28 109.776 51.28ZM107.662 58L109.79 55.018H111.54V58H112.296V50.678H109.818C108.334 50.678 107.242 51.336 107.242 52.862V52.904C107.242 54.122 107.998 54.71 109.048 54.892L106.794 58H107.662ZM123.121 51.308V58H123.863V50.678H118.305V58H119.047V51.308H123.121ZM126.289 58H127.031L131.385 51.756V58H132.127V50.678H131.385L127.031 56.908V50.678H126.289V58ZM143.759 59.778H144.361V57.37H143.311V50.678H142.569V57.37H139.251V50.678H138.509V57.37H135.205V50.678H134.463V58H143.703L143.759 59.778ZM148.804 58.112C150.386 58.112 151.52 57.356 151.842 55.956H151.1C150.834 56.978 150.036 57.482 148.804 57.482C147.054 57.482 146.144 56.376 146.102 54.402H151.898V54.136C151.898 51.714 150.456 50.566 148.692 50.566C146.732 50.566 145.332 52.106 145.332 54.304V54.416C145.332 56.614 146.69 58.112 148.804 58.112ZM151.128 53.8H146.13C146.284 52.19 147.264 51.196 148.692 51.196C150.134 51.196 151.058 52.008 151.128 53.8ZM153.738 50.678V58H156.594C158.176 58 159.086 57.314 159.086 55.914V55.872C159.086 54.864 158.456 54.318 157.434 54.15C158.274 53.94 158.722 53.366 158.722 52.568V52.526C158.722 51.196 157.686 50.678 156.356 50.678H153.738ZM154.48 51.28H156.342C157.35 51.28 157.938 51.644 157.938 52.554V52.596C157.938 53.464 157.406 53.898 156.356 53.898H154.48V51.28ZM154.48 54.5H156.468C157.658 54.5 158.302 54.948 158.302 55.914V55.956C158.302 56.922 157.714 57.398 156.524 57.398H154.48V54.5ZM163.024 58.112C164.256 58.112 165.04 57.594 165.502 56.88V58H166.244V53.156C166.244 51.294 165.194 50.566 163.682 50.566C162.31 50.566 161.022 51.224 160.868 52.75H161.596C161.764 51.672 162.534 51.196 163.654 51.196C164.942 51.196 165.502 51.77 165.502 53.156V53.814H163.976C162.17 53.814 160.546 54.332 160.546 56.026C160.546 57.412 161.568 58.112 163.024 58.112ZM163.08 57.51C161.862 57.51 161.288 56.978 161.288 56.026C161.288 54.71 162.478 54.388 164.004 54.388H165.502V55.634C165.502 56.712 164.424 57.51 163.08 57.51ZM168.583 50.678V60.548H169.325V56.334C169.703 57.23 170.669 58.112 172.111 58.112C174.015 58.112 175.401 56.67 175.401 54.374V54.262C175.401 51.98 173.959 50.566 172.111 50.566C170.823 50.566 169.731 51.448 169.325 52.386V50.678H168.583ZM172.055 57.482C170.543 57.482 169.311 56.404 169.311 54.402V54.29C169.311 52.274 170.613 51.196 172.041 51.196C173.441 51.196 174.631 52.274 174.631 54.29V54.402C174.631 56.376 173.609 57.482 172.055 57.482ZM180.176 58.112C181.758 58.112 182.892 57.356 183.214 55.956H182.472C182.206 56.978 181.408 57.482 180.176 57.482C178.426 57.482 177.516 56.376 177.474 54.402H183.27V54.136C183.27 51.714 181.828 50.566 180.064 50.566C178.104 50.566 176.704 52.106 176.704 54.304V54.416C176.704 56.614 178.062 58.112 180.176 58.112ZM182.5 53.8H177.502C177.656 52.19 178.636 51.196 180.064 51.196C181.506 51.196 182.43 52.008 182.5 53.8ZM190.066 54.528V58H190.808V50.678H190.066V53.898H185.852V50.678H185.11V58H185.852V54.528H190.066ZM193.23 58H193.972L198.326 51.756V58H199.068V50.678H198.326L193.972 56.908V50.678H193.23V58ZM204.317 58.112C205.899 58.112 207.033 57.356 207.355 55.956H206.613C206.347 56.978 205.549 57.482 204.317 57.482C202.567 57.482 201.657 56.376 201.615 54.402H207.411V54.136C207.411 51.714 205.969 50.566 204.205 50.566C202.245 50.566 200.845 52.106 200.845 54.304V54.416C200.845 56.614 202.203 58.112 204.317 58.112ZM206.641 53.8H201.643C201.797 52.19 202.777 51.196 204.205 51.196C205.647 51.196 206.571 52.008 206.641 53.8Z" fill="#1D1D1D"/>
<path d="M11.9542 44.75H7.5051V45.75H11.9542V44.75ZM7.5051 48.9594H20.8869V47.9594H7.5051V48.9594ZM20.8869 51.4531H3.26797V52.4531H20.8869V51.4531ZM3.26797 55.6219H24.812V54.6219H3.26797V55.6219ZM24.812 57.6281H7.56604V58.6281H24.812V57.6281ZM7.56604 61.9594H19.6642V60.9594H7.56604V61.9594ZM19.6642 64.0875H16.8095V65.0875H19.6642V64.0875ZM16.8095 64.0875C14.6487 64.0875 12.897 65.8392 12.897 68H13.897C13.897 66.3915 15.201 65.0875 16.8095 65.0875V64.0875ZM20.7282 63.0234C20.7282 63.6111 20.2518 64.0875 19.6642 64.0875V65.0875C20.8041 65.0875 21.7282 64.1634 21.7282 63.0234H20.7282ZM19.6642 61.9594C20.2518 61.9594 20.7282 62.4358 20.7282 63.0234H21.7282C21.7282 61.8835 20.8041 60.9594 19.6642 60.9594V61.9594ZM5.40041 59.7938C5.40041 60.9898 6.37 61.9594 7.56604 61.9594V60.9594C6.92228 60.9594 6.40041 60.4375 6.40041 59.7938H5.40041ZM7.56604 57.6281C6.37 57.6281 5.40041 58.5977 5.40041 59.7938H6.40041C6.40041 59.15 6.92228 58.6281 7.56604 58.6281V57.6281ZM25.8152 56.625C25.8152 57.179 25.3661 57.6281 24.812 57.6281V58.6281C25.9183 58.6281 26.8152 57.7313 26.8152 56.625H25.8152ZM24.812 55.6219C25.3661 55.6219 25.8152 56.071 25.8152 56.625H26.8152C26.8152 55.5187 25.9183 54.6219 24.812 54.6219V55.6219ZM1.18359 53.5375C1.18359 54.6887 2.1168 55.6219 3.26797 55.6219V54.6219C2.66908 54.6219 2.18359 54.1364 2.18359 53.5375H1.18359ZM3.26797 51.4531C2.1168 51.4531 1.18359 52.3863 1.18359 53.5375H2.18359C2.18359 52.9386 2.66908 52.4531 3.26797 52.4531V51.4531ZM22.1338 50.2063C22.1338 50.8949 21.5756 51.4531 20.8869 51.4531V52.4531C22.1279 52.4531 23.1338 51.4472 23.1338 50.2063H22.1338ZM20.8869 48.9594C21.5756 48.9594 22.1338 49.5176 22.1338 50.2063H23.1338C23.1338 48.9653 22.1279 47.9594 20.8869 47.9594V48.9594ZM5.40041 46.8547C5.40041 48.0171 6.34271 48.9594 7.5051 48.9594V47.9594C6.895 47.9594 6.40041 47.4648 6.40041 46.8547H5.40041ZM7.5051 44.75C6.34271 44.75 5.40041 45.6923 5.40041 46.8547H6.40041C6.40041 46.2446 6.895 45.75 7.5051 45.75V44.75ZM14.7042 42C14.7042 43.5188 13.473 44.75 11.9542 44.75V45.75C14.0253 45.75 15.7042 44.0711 15.7042 42H14.7042Z" fill="#1D1D1D"/>
<path d="M41.978 248.43V255.122H42.72V247.8H37.162V255.122H37.904V248.43H41.978ZM48.1272 254.604C46.5312 254.604 45.3552 253.4 45.3552 251.524V251.412C45.3552 249.508 46.5592 248.318 48.1272 248.318C49.6952 248.318 50.8852 249.466 50.8852 251.412V251.524C50.8852 253.414 49.6952 254.604 48.1272 254.604ZM48.1132 255.234C50.0872 255.234 51.6552 253.708 51.6552 251.51V251.398C51.6552 249.172 50.1012 247.688 48.1272 247.688C46.1672 247.688 44.5852 249.214 44.5852 251.412V251.524C44.5852 253.694 46.1392 255.234 48.1132 255.234ZM53.5112 247.8V255.122H56.3672C57.9492 255.122 58.8592 254.436 58.8592 253.036V252.994C58.8592 251.986 58.2292 251.44 57.2072 251.272C58.0472 251.062 58.4952 250.488 58.4952 249.69V249.648C58.4952 248.318 57.4592 247.8 56.1292 247.8H53.5112ZM54.2532 248.402H56.1152C57.1232 248.402 57.7112 248.766 57.7112 249.676V249.718C57.7112 250.586 57.1792 251.02 56.1292 251.02H54.2532V248.402ZM54.2532 251.622H56.2412C57.4312 251.622 58.0752 252.07 58.0752 253.036V253.078C58.0752 254.044 57.4872 254.52 56.2972 254.52H54.2532V251.622ZM67.0971 247.8V255.122H67.8391V247.8H67.0971ZM60.7971 247.8V255.122H63.2611C64.7451 255.122 65.8371 254.338 65.8371 252.784V252.742C65.8371 251.188 64.6891 250.488 63.1211 250.488H61.5391V247.8H60.7971ZM63.3031 254.52H61.5391V251.076H63.1631C64.4651 251.076 65.0951 251.678 65.0951 252.742V252.784C65.0951 253.904 64.4931 254.52 63.3031 254.52ZM70.2432 247.8V255.122H79.0912V247.8H78.3492V254.492H75.0312V247.8H74.2892V254.492H70.9852V247.8H70.2432ZM83.4397 255.234C84.6717 255.234 85.4557 254.716 85.9177 254.002V255.122H86.6597V250.278C86.6597 248.416 85.6097 247.688 84.0977 247.688C82.7257 247.688 81.4377 248.346 81.2837 249.872H82.0117C82.1797 248.794 82.9497 248.318 84.0697 248.318C85.3577 248.318 85.9177 248.892 85.9177 250.278V250.936H84.3917C82.5857 250.936 80.9617 251.454 80.9617 253.148C80.9617 254.534 81.9837 255.234 83.4397 255.234ZM83.4957 254.632C82.2777 254.632 81.7037 254.1 81.7037 253.148C81.7037 251.832 82.8937 251.51 84.4197 251.51H85.9177V252.756C85.9177 253.834 84.8397 254.632 83.4957 254.632ZM91.9244 255.234C93.5064 255.234 94.6404 254.478 94.9624 253.078H94.2204C93.9544 254.1 93.1564 254.604 91.9244 254.604C90.1744 254.604 89.2644 253.498 89.2224 251.524H95.0184V251.258C95.0184 248.836 93.5764 247.688 91.8124 247.688C89.8524 247.688 88.4524 249.228 88.4524 251.426V251.538C88.4524 253.736 89.8104 255.234 91.9244 255.234ZM94.2484 250.922H89.2504C89.4044 249.312 90.3844 248.318 91.8124 248.318C93.2544 248.318 94.1784 249.13 94.2484 250.922ZM101.72 248.43V247.8H95.9101V248.43H98.4441V255.122H99.1861V248.43H101.72ZM105.991 255.234C107.657 255.234 108.931 254.156 109.113 252.588H108.427C108.245 253.89 107.209 254.604 105.991 254.604C104.451 254.604 103.261 253.47 103.261 251.538V251.426C103.261 249.494 104.465 248.318 105.991 248.318C107.153 248.318 108.133 248.892 108.315 250.124H109.043C108.861 248.472 107.475 247.688 105.991 247.688C104.045 247.688 102.491 249.186 102.491 251.426V251.538C102.491 253.764 104.017 255.234 105.991 255.234ZM113.221 248.402H114.985V251.566H113.361C112.059 251.566 111.429 251.034 111.429 250.026V249.984C111.429 248.934 112.031 248.402 113.221 248.402ZM111.107 255.122L113.235 252.14H114.985V255.122H115.741V247.8H113.263C111.779 247.8 110.687 248.458 110.687 249.984V250.026C110.687 251.244 111.443 251.832 112.493 252.014L110.239 255.122H111.107ZM122.479 251.3L126.245 255.122H127.169L123.361 251.258L126.931 247.8H126.049L122.479 251.3V247.8H121.737V255.122H122.479V251.3ZM131.376 254.604C129.78 254.604 128.604 253.4 128.604 251.524V251.412C128.604 249.508 129.808 248.318 131.376 248.318C132.944 248.318 134.134 249.466 134.134 251.412V251.524C134.134 253.414 132.944 254.604 131.376 254.604ZM131.362 255.234C133.336 255.234 134.904 253.708 134.904 251.51V251.398C134.904 249.172 133.35 247.688 131.376 247.688C129.416 247.688 127.834 249.214 127.834 251.412V251.524C127.834 253.694 129.388 255.234 131.362 255.234ZM141.716 251.65V255.122H142.458V247.8H141.716V251.02H137.502V247.8H136.76V255.122H137.502V251.65H141.716ZM150.886 256.9H151.488V254.492H150.438V247.8H149.696V254.492H145.622V247.8H144.88V255.122H150.83L150.886 256.9ZM155.925 255.234C157.507 255.234 158.641 254.478 158.963 253.078H158.221C157.955 254.1 157.157 254.604 155.925 254.604C154.175 254.604 153.265 253.498 153.223 251.524H159.019V251.258C159.019 248.836 157.577 247.688 155.813 247.688C153.853 247.688 152.453 249.228 152.453 251.426V251.538C152.453 253.736 153.811 255.234 155.925 255.234ZM158.249 250.922H153.251C153.405 249.312 154.385 248.318 155.813 248.318C157.255 248.318 158.179 249.13 158.249 250.922ZM165.816 251.65V255.122H166.558V247.8H165.816V251.02H161.602V247.8H160.86V255.122H161.602V251.65H165.816ZM173.978 248.43V247.8H168.168V248.43H170.702V255.122H171.444V248.43H173.978ZM175.568 247.8V257.67H176.31V253.456C176.688 254.352 177.654 255.234 179.096 255.234C181 255.234 182.386 253.792 182.386 251.496V251.384C182.386 249.102 180.944 247.688 179.096 247.688C177.808 247.688 176.716 248.57 176.31 249.508V247.8H175.568ZM179.04 254.604C177.528 254.604 176.296 253.526 176.296 251.524V251.412C176.296 249.396 177.598 248.318 179.026 248.318C180.426 248.318 181.616 249.396 181.616 251.412V251.524C181.616 253.498 180.594 254.604 179.04 254.604ZM186.181 255.234C187.413 255.234 188.197 254.716 188.659 254.002V255.122H189.401V250.278C189.401 248.416 188.351 247.688 186.839 247.688C185.467 247.688 184.179 248.346 184.025 249.872H184.753C184.921 248.794 185.691 248.318 186.811 248.318C188.099 248.318 188.659 248.892 188.659 250.278V250.936H187.133C185.327 250.936 183.703 251.454 183.703 253.148C183.703 254.534 184.725 255.234 186.181 255.234ZM186.237 254.632C185.019 254.632 184.445 254.1 184.445 253.148C184.445 251.832 185.635 251.51 187.161 251.51H188.659V252.756C188.659 253.834 187.581 254.632 186.237 254.632ZM197.76 256.9H198.362V254.492H197.312V247.8H196.57V254.492H192.496V247.8H191.754V255.122H197.704L197.76 256.9ZM199.956 255.122H200.698L205.052 248.878V255.122H205.794V247.8H205.052L200.698 254.03V247.8H199.956V255.122ZM210.426 248.402H212.19V251.566H210.566C209.264 251.566 208.634 251.034 208.634 250.026V249.984C208.634 248.934 209.236 248.402 210.426 248.402ZM208.312 255.122L210.44 252.14H212.19V255.122H212.946V247.8H210.468C208.984 247.8 207.892 248.458 207.892 249.984V250.026C207.892 251.244 208.648 251.832 209.698 252.014L207.444 255.122H208.312Z" fill="#1D1D1D"/>
<circle cx="14" cy="252.122" r="12.5" stroke="#1D1D1D"/>
<circle cx="14.0009" cy="252.123" r="7.02632" stroke="#1D1D1D"/>
<circle cx="13.9993" cy="252.123" r="0.868421" stroke="#1D1D1D"/>
<path d="M41.978 129.691V136.383H42.72V129.061H37.162V136.383H37.904V129.691H41.978ZM48.1272 135.865C46.5312 135.865 45.3552 134.661 45.3552 132.785V132.673C45.3552 130.769 46.5592 129.579 48.1272 129.579C49.6952 129.579 50.8852 130.727 50.8852 132.673V132.785C50.8852 134.675 49.6952 135.865 48.1272 135.865ZM48.1132 136.495C50.0872 136.495 51.6552 134.969 51.6552 132.771V132.659C51.6552 130.433 50.1012 128.949 48.1272 128.949C46.1672 128.949 44.5852 130.475 44.5852 132.673V132.785C44.5852 134.955 46.1392 136.495 48.1132 136.495ZM53.5112 129.061V136.383H56.3672C57.9492 136.383 58.8592 135.697 58.8592 134.297V134.255C58.8592 133.247 58.2292 132.701 57.2072 132.533C58.0472 132.323 58.4952 131.749 58.4952 130.951V130.909C58.4952 129.579 57.4592 129.061 56.1292 129.061H53.5112ZM54.2532 129.663H56.1152C57.1232 129.663 57.7112 130.027 57.7112 130.937V130.979C57.7112 131.847 57.1792 132.281 56.1292 132.281H54.2532V129.663ZM54.2532 132.883H56.2412C57.4312 132.883 58.0752 133.331 58.0752 134.297V134.339C58.0752 135.305 57.4872 135.781 56.2972 135.781H54.2532V132.883ZM67.0971 129.061V136.383H67.8391V129.061H67.0971ZM60.7971 129.061V136.383H63.2611C64.7451 136.383 65.8371 135.599 65.8371 134.045V134.003C65.8371 132.449 64.6891 131.749 63.1211 131.749H61.5391V129.061H60.7971ZM63.3031 135.781H61.5391V132.337H63.1631C64.4651 132.337 65.0951 132.939 65.0951 134.003V134.045C65.0951 135.165 64.4931 135.781 63.3031 135.781ZM70.2432 129.061V136.383H79.0912V129.061H78.3492V135.753H75.0312V129.061H74.2892V135.753H70.9852V129.061H70.2432ZM83.4397 136.495C84.6717 136.495 85.4557 135.977 85.9177 135.263V136.383H86.6597V131.539C86.6597 129.677 85.6097 128.949 84.0977 128.949C82.7257 128.949 81.4377 129.607 81.2837 131.133H82.0117C82.1797 130.055 82.9497 129.579 84.0697 129.579C85.3577 129.579 85.9177 130.153 85.9177 131.539V132.197H84.3917C82.5857 132.197 80.9617 132.715 80.9617 134.409C80.9617 135.795 81.9837 136.495 83.4397 136.495ZM83.4957 135.893C82.2777 135.893 81.7037 135.361 81.7037 134.409C81.7037 133.093 82.8937 132.771 84.4197 132.771H85.9177V134.017C85.9177 135.095 84.8397 135.893 83.4957 135.893ZM91.9244 136.495C93.5064 136.495 94.6404 135.739 94.9624 134.339H94.2204C93.9544 135.361 93.1564 135.865 91.9244 135.865C90.1744 135.865 89.2644 134.759 89.2224 132.785H95.0184V132.519C95.0184 130.097 93.5764 128.949 91.8124 128.949C89.8524 128.949 88.4524 130.489 88.4524 132.687V132.799C88.4524 134.997 89.8104 136.495 91.9244 136.495ZM94.2484 132.183H89.2504C89.4044 130.573 90.3844 129.579 91.8124 129.579C93.2544 129.579 94.1784 130.391 94.2484 132.183ZM101.72 129.691V129.061H95.9101V129.691H98.4441V136.383H99.1861V129.691H101.72ZM105.991 136.495C107.657 136.495 108.931 135.417 109.113 133.849H108.427C108.245 135.151 107.209 135.865 105.991 135.865C104.451 135.865 103.261 134.731 103.261 132.799V132.687C103.261 130.755 104.465 129.579 105.991 129.579C107.153 129.579 108.133 130.153 108.315 131.385H109.043C108.861 129.733 107.475 128.949 105.991 128.949C104.045 128.949 102.491 130.447 102.491 132.687V132.799C102.491 135.025 104.017 136.495 105.991 136.495ZM113.221 129.663H114.985V132.827H113.361C112.059 132.827 111.429 132.295 111.429 131.287V131.245C111.429 130.195 112.031 129.663 113.221 129.663ZM111.107 136.383L113.235 133.401H114.985V136.383H115.741V129.061H113.263C111.779 129.061 110.687 129.719 110.687 131.245V131.287C110.687 132.505 111.443 133.093 112.493 133.275L110.239 136.383H111.107ZM121.751 129.061V136.383H124.607C126.189 136.383 127.099 135.697 127.099 134.297V134.255C127.099 133.247 126.469 132.701 125.447 132.533C126.287 132.323 126.735 131.749 126.735 130.951V130.909C126.735 129.579 125.699 129.061 124.369 129.061H121.751ZM122.493 129.663H124.355C125.363 129.663 125.951 130.027 125.951 130.937V130.979C125.951 131.847 125.419 132.281 124.369 132.281H122.493V129.663ZM122.493 132.883H124.481C125.671 132.883 126.315 133.331 126.315 134.297V134.339C126.315 135.305 125.727 135.781 124.537 135.781H122.493V132.883ZM135.337 129.061V136.383H136.079V129.061H135.337ZM129.037 129.061V136.383H131.501C132.985 136.383 134.077 135.599 134.077 134.045V134.003C134.077 132.449 132.929 131.749 131.361 131.749H129.779V129.061H129.037ZM131.543 135.781H129.779V132.337H131.403C132.705 132.337 133.335 132.939 133.335 134.003V134.045C133.335 135.165 132.733 135.781 131.543 135.781ZM143.439 132.911V136.383H144.181V129.061H143.439V132.281H139.225V129.061H138.483V136.383H139.225V132.911H143.439ZM149.585 135.865C147.989 135.865 146.813 134.661 146.813 132.785V132.673C146.813 130.769 148.017 129.579 149.585 129.579C151.153 129.579 152.343 130.727 152.343 132.673V132.785C152.343 134.675 151.153 135.865 149.585 135.865ZM149.571 136.495C151.545 136.495 153.113 134.969 153.113 132.771V132.659C153.113 130.433 151.559 128.949 149.585 128.949C147.625 128.949 146.043 130.475 146.043 132.673V132.785C146.043 134.955 147.597 136.495 149.571 136.495ZM157.909 136.495C159.575 136.495 160.849 135.417 161.031 133.849H160.345C160.163 135.151 159.127 135.865 157.909 135.865C156.369 135.865 155.179 134.731 155.179 132.799V132.687C155.179 130.755 156.383 129.579 157.909 129.579C159.071 129.579 160.051 130.153 160.233 131.385H160.961C160.779 129.733 159.393 128.949 157.909 128.949C155.963 128.949 154.409 130.447 154.409 132.687V132.799C154.409 135.025 155.935 136.495 157.909 136.495ZM164.13 133.121C164.242 132.071 164.298 130.475 164.34 129.691H167.504V136.383H168.246V129.061H163.668C163.654 129.551 163.64 130.027 163.612 130.503C163.57 131.329 163.514 132.323 163.444 133.051C163.29 134.619 163.094 135.725 162.338 135.725C162.198 135.725 162.086 135.711 162.002 135.683L161.862 135.627V136.341L162.002 136.397C162.086 136.425 162.212 136.439 162.394 136.439C163.556 136.439 163.948 135.249 164.13 133.121ZM170.662 136.383H171.404L175.758 130.139V136.383H176.5V129.061H175.758L171.404 135.291V129.061H170.662V136.383ZM178.836 129.061V136.383H181.692C183.274 136.383 184.184 135.697 184.184 134.297V134.255C184.184 133.247 183.554 132.701 182.532 132.533C183.372 132.323 183.82 131.749 183.82 130.951V130.909C183.82 129.579 182.784 129.061 181.454 129.061H178.836ZM179.578 129.663H181.44C182.448 129.663 183.036 130.027 183.036 130.937V130.979C183.036 131.847 182.504 132.281 181.454 132.281H179.578V129.663ZM179.578 132.883H181.566C182.756 132.883 183.4 133.331 183.4 134.297V134.339C183.4 135.305 182.812 135.781 181.622 135.781H179.578V132.883ZM189.104 135.865C187.508 135.865 186.332 134.661 186.332 132.785V132.673C186.332 130.769 187.536 129.579 189.104 129.579C190.672 129.579 191.862 130.727 191.862 132.673V132.785C191.862 134.675 190.672 135.865 189.104 135.865ZM189.09 136.495C191.064 136.495 192.632 134.969 192.632 132.771V132.659C192.632 130.433 191.078 128.949 189.104 128.949C187.144 128.949 185.562 130.475 185.562 132.673V132.785C185.562 134.955 187.116 136.495 189.09 136.495ZM197.428 136.495C199.094 136.495 200.368 135.417 200.55 133.849H199.864C199.682 135.151 198.646 135.865 197.428 135.865C195.888 135.865 194.698 134.731 194.698 132.799V132.687C194.698 130.755 195.902 129.579 197.428 129.579C198.59 129.579 199.57 130.153 199.752 131.385H200.48C200.298 129.733 198.912 128.949 197.428 128.949C195.482 128.949 193.928 130.447 193.928 132.687V132.799C193.928 135.025 195.454 136.495 197.428 136.495ZM207.36 129.691V129.061H201.55V129.691H204.084V136.383H204.826V129.691H207.36ZM208.964 129.061V136.383H211.428C212.912 136.383 214.004 135.655 214.004 134.087V134.045C214.004 132.505 212.87 131.749 211.288 131.749H209.706V129.061H208.964ZM211.47 135.795H209.706V132.337H211.33C212.618 132.337 213.262 132.925 213.262 134.045V134.087C213.262 135.151 212.702 135.795 211.47 135.795Z" fill="#1D1D1D"/>
<path d="M21.1933 130.51C14.0881 129.543 11.883 136.312 6.00957 132.927M21.1933 130.51C22.7623 132.149 22.908 134.996 22.4183 137.97M21.1933 130.51C18.9595 128.177 18.8032 125.785 19.2626 124.05C19.4886 123.196 19.8633 122.501 20.2133 122.05M8.20804 122.05C8.20804 122.521 8.52881 123.306 8.42932 124.05C8.17114 125.98 7.23009 128.45 6.493 130.51C6.24417 131.206 6.08659 132.026 6.00957 132.927M6.00957 132.927C5.89077 134.318 5.96366 135.902 6.18898 137.52M6.18898 137.52C7.51532 137.117 10.9977 136.843 13.7417 138.971C15.2934 137.659 19.0862 135.623 22.4183 137.97M6.18898 137.52C6.42221 139.195 6.81874 140.907 7.33507 142.478M22.4183 137.97C22.1684 139.488 21.7533 141.038 21.2773 142.478M14.6198 136.288C13.9804 137.206 13.4801 138.883 13.0722 142.478" stroke="#1D1D1D" stroke-linecap="round"/>
<ellipse cx="11.5233" cy="128.55" rx="0.619048" ry="0.928571" fill="#1D1D1D"/>
<path d="M1 125.764H5.33333M5.33333 125.764L4.15152 124.526M5.33333 125.764L4.09524 127.002" stroke="#1D1D1D" stroke-linecap="round" stroke-linejoin="round"/>
<path d="M25.7617 125.764H21.4284M21.4284 125.764L22.6102 124.526M21.4284 125.764L22.6102 127.002" stroke="#1D1D1D" stroke-linecap="round" stroke-linejoin="round"/>
<path d="M40.142 98.482C38.546 98.482 37.37 97.278 37.37 95.402V95.29C37.37 93.386 38.574 92.196 40.142 92.196C41.71 92.196 42.9 93.344 42.9 95.29V95.402C42.9 97.292 41.71 98.482 40.142 98.482ZM40.128 99.112C42.102 99.112 43.67 97.586 43.67 95.388V95.276C43.67 93.05 42.116 91.566 40.142 91.566C38.182 91.566 36.6 93.092 36.6 95.29V95.402C36.6 97.572 38.154 99.112 40.128 99.112ZM49.9953 99H50.7373V91.678H49.9953V94.576C49.7713 94.828 49.1413 95.71 47.8253 95.71C46.6353 95.71 45.9353 95.08 45.9353 93.512V91.678H45.1933V93.54C45.1933 95.57 46.2573 96.354 47.6573 96.354C48.8893 96.354 49.5753 95.78 49.9953 95.318V99ZM53.2905 99H54.0325L58.3865 92.756V99H59.1285V91.678H58.3865L54.0325 97.908V91.678H53.2905V99ZM70.7611 100.778H71.3631V98.37H70.3131V91.678H69.5711V98.37H66.2531V91.678H65.5111V98.37H62.2071V91.678H61.4651V99H70.7051L70.7611 100.778ZM74.894 99.112C76.126 99.112 76.91 98.594 77.372 97.88V99H78.114V94.156C78.114 92.294 77.064 91.566 75.552 91.566C74.18 91.566 72.892 92.224 72.738 93.75H73.466C73.634 92.672 74.404 92.196 75.524 92.196C76.812 92.196 77.372 92.77 77.372 94.156V94.814H75.846C74.04 94.814 72.416 95.332 72.416 97.026C72.416 98.412 73.438 99.112 74.894 99.112ZM74.95 98.51C73.732 98.51 73.158 97.978 73.158 97.026C73.158 95.71 74.348 95.388 75.874 95.388H77.372V96.634C77.372 97.712 76.294 98.51 74.95 98.51ZM83.3787 99.112C84.9607 99.112 86.0947 98.356 86.4167 96.956H85.6747C85.4087 97.978 84.6107 98.482 83.3787 98.482C81.6287 98.482 80.7187 97.376 80.6767 95.402H86.4727V95.136C86.4727 92.714 85.0307 91.566 83.2667 91.566C81.3067 91.566 79.9067 93.106 79.9067 95.304V95.416C79.9067 97.614 81.2647 99.112 83.3787 99.112ZM85.7027 94.8H80.7047C80.8587 93.19 81.8387 92.196 83.2667 92.196C84.7087 92.196 85.6327 93.008 85.7027 94.8ZM93.1744 92.308V91.678H87.3644V92.308H89.8984V99H90.6404V92.308H93.1744ZM97.4453 99.112C99.1113 99.112 100.385 98.034 100.567 96.466H99.8813C99.6993 97.768 98.6633 98.482 97.4453 98.482C95.9053 98.482 94.7153 97.348 94.7153 95.416V95.304C94.7153 93.372 95.9193 92.196 97.4453 92.196C98.6073 92.196 99.5873 92.77 99.7693 94.002H100.497C100.315 92.35 98.9293 91.566 97.4453 91.566C95.4993 91.566 93.9453 93.064 93.9453 95.304V95.416C93.9453 97.642 95.4713 99.112 97.4453 99.112ZM104.675 92.28H106.439V95.444H104.815C103.513 95.444 102.883 94.912 102.883 93.904V93.862C102.883 92.812 103.485 92.28 104.675 92.28ZM102.561 99L104.689 96.018H106.439V99H107.195V91.678H104.717C103.233 91.678 102.141 92.336 102.141 93.862V93.904C102.141 95.122 102.897 95.71 103.947 95.892L101.693 99H102.561ZM113.933 95.178L117.699 99H118.623L114.815 95.136L118.385 91.678H117.503L113.933 95.178V91.678H113.191V99H113.933V95.178ZM122.83 98.482C121.234 98.482 120.058 97.278 120.058 95.402V95.29C120.058 93.386 121.262 92.196 122.83 92.196C124.398 92.196 125.588 93.344 125.588 95.29V95.402C125.588 97.292 124.398 98.482 122.83 98.482ZM122.816 99.112C124.79 99.112 126.358 97.586 126.358 95.388V95.276C126.358 93.05 124.804 91.566 122.83 91.566C120.87 91.566 119.288 93.092 119.288 95.29V95.402C119.288 97.572 120.842 99.112 122.816 99.112ZM131.161 91.678V99H131.889V91.678H131.161ZM135.165 99H136.019L132.673 95.136L135.781 91.678H134.955L131.903 95.178L135.165 99ZM127.031 99H127.885L131.147 95.178L128.081 91.678H127.269L130.377 95.136L127.031 99ZM139.387 99.112C140.619 99.112 141.403 98.594 141.865 97.88V99H142.607V94.156C142.607 92.294 141.557 91.566 140.045 91.566C138.673 91.566 137.385 92.224 137.231 93.75H137.959C138.127 92.672 138.897 92.196 140.017 92.196C141.305 92.196 141.865 92.77 141.865 94.156V94.814H140.339C138.533 94.814 136.909 95.332 136.909 97.026C136.909 98.412 137.931 99.112 139.387 99.112ZM139.443 98.51C138.225 98.51 137.651 97.978 137.651 97.026C137.651 95.71 138.841 95.388 140.367 95.388H141.865V96.634C141.865 97.712 140.787 98.51 139.443 98.51Z" fill="#1D1D1D"/>
<path d="M24.2193 107.05C24.2947 105.103 23.4508 101.075 19.4725 100.536H17.082C16.5297 100.536 16.082 100.089 16.082 99.5364V98.0487M16.082 98.0487C17.0446 97.156 18.827 95.6129 19.3345 94.3978C19.4808 94.0475 19.6953 93.7 19.9948 93.4667C20.6239 92.9766 21.2285 92.1359 20.7291 91.1052C20.655 90.9523 20.5989 90.7891 20.5851 90.6197C20.5525 90.2199 20.4923 89.7747 20.3991 89.306M16.082 98.0487C13.9023 100.07 11.3352 98.2734 9.52689 96.2688M7.71855 94.2473L7.04045 93.5735C6.37081 93.0412 6.40377 91.9832 6.58836 91.166M7.71855 94.2473L9.52689 96.2688M7.71855 94.2473C5.23175 95.6888 1.79503 98.9804 6.81441 100.764M9.52689 96.2688C7.71859 98.2903 9.79331 99.3618 11.3352 99.8456C14.6138 100.874 13.8087 103.867 11.9368 104.733C11.187 105.08 10.8697 103.834 10.5403 103.077C10.1697 102.225 9.14267 101.428 8.39672 101.21C7.79497 101.076 7.26988 100.926 6.81441 100.764M6.58836 91.166C6.63449 90.9618 6.6901 90.7726 6.74657 90.6104C6.78865 90.4896 6.81337 90.3647 6.82132 90.237C6.87685 89.3446 7.30168 86.6735 9.30082 84.8363M6.58836 91.166C7.7939 90.8455 10.3858 89.6204 11.1091 87.2845M11.1091 87.2845C10.2049 86.7454 9.52684 85.4277 9.30082 84.8363M11.1091 87.2845C13.4599 90.5189 18.2819 89.9798 20.3991 89.306M9.30082 84.8363C10.3329 83.8878 11.7845 83.1615 13.8216 83.0169C18.0394 82.7176 19.8312 86.4499 20.3991 89.306M3.42383 106.825C4.02659 104.881 5.54857 100.947 6.81441 100.764" stroke="#1D1D1D" stroke-linecap="round"/>
<path d="M42.118 170.007V173.479H42.86V166.157H42.118V169.377H37.904V166.157H37.162V173.479H37.904V170.007H42.118ZM48.2639 172.961C46.6679 172.961 45.4919 171.757 45.4919 169.881V169.769C45.4919 167.865 46.6959 166.675 48.2639 166.675C49.8319 166.675 51.0219 167.823 51.0219 169.769V169.881C51.0219 171.771 49.8319 172.961 48.2639 172.961ZM48.2499 173.591C50.2239 173.591 51.7919 172.065 51.7919 169.867V169.755C51.7919 167.529 50.2379 166.045 48.2639 166.045C46.3039 166.045 44.7219 167.571 44.7219 169.769V169.881C44.7219 172.051 46.2759 173.591 48.2499 173.591ZM53.6339 166.157V176.027H54.3759V171.813C54.7539 172.709 55.7199 173.591 57.1619 173.591C59.0659 173.591 60.4519 172.149 60.4519 169.853V169.741C60.4519 167.459 59.0099 166.045 57.1619 166.045C55.8739 166.045 54.7819 166.927 54.3759 167.865V166.157H53.6339ZM57.1059 172.961C55.5939 172.961 54.3619 171.883 54.3619 169.881V169.769C54.3619 167.753 55.6639 166.675 57.0919 166.675C58.4919 166.675 59.6819 167.753 59.6819 169.769V169.881C59.6819 171.855 58.6599 172.961 57.1059 172.961ZM62.9587 166.927L65.7027 173.479H66.0527L68.8387 166.927V173.479H69.5807V166.157H68.5587L65.9267 172.303L63.3787 166.157H62.3147V173.479H62.9587V166.927ZM73.9252 173.591C75.1572 173.591 75.9412 173.073 76.4032 172.359V173.479H77.1452V168.635C77.1452 166.773 76.0952 166.045 74.5832 166.045C73.2112 166.045 71.9232 166.703 71.7692 168.229H72.4972C72.6652 167.151 73.4352 166.675 74.5552 166.675C75.8432 166.675 76.4032 167.249 76.4032 168.635V169.293H74.8772C73.0712 169.293 71.4472 169.811 71.4472 171.505C71.4472 172.891 72.4692 173.591 73.9252 173.591ZM73.9812 172.989C72.7632 172.989 72.1892 172.457 72.1892 171.505C72.1892 170.189 73.3792 169.867 74.9052 169.867H76.4032V171.113C76.4032 172.191 75.3252 172.989 73.9812 172.989ZM80.7859 170.217C80.8979 169.167 80.9539 167.571 80.9959 166.787H84.1599V173.479H84.9019V166.157H80.3239C80.3099 166.647 80.2959 167.123 80.2679 167.599C80.2259 168.425 80.1699 169.419 80.0999 170.147C79.9459 171.715 79.7499 172.821 78.9939 172.821C78.8539 172.821 78.7419 172.807 78.6579 172.779L78.5179 172.723V173.437L78.6579 173.493C78.7419 173.521 78.8679 173.535 79.0499 173.535C80.2119 173.535 80.6039 172.345 80.7859 170.217ZM87.317 173.479H88.059L92.413 167.235V173.479H93.155V166.157H92.413L88.059 172.387V166.157H87.317V173.479ZM100.014 167.991V167.949C100.014 166.731 99.0197 166.045 97.7037 166.045C96.4157 166.045 95.3237 166.703 95.1697 168.145H95.8837C96.0517 167.179 96.6677 166.675 97.6617 166.675C98.7117 166.675 99.2297 167.179 99.2297 167.977V168.019C99.2297 168.929 98.7117 169.377 97.6757 169.377H96.5697V169.979H97.7737C98.9917 169.979 99.5937 170.455 99.5937 171.393V171.463C99.5937 172.345 98.9497 172.975 97.7177 172.975C96.3877 172.975 95.7997 172.331 95.6457 171.379H94.9177C95.0437 172.737 96.0237 173.605 97.7177 173.605C99.3557 173.605 100.364 172.653 100.364 171.421V171.351C100.364 170.343 99.7197 169.755 98.7117 169.629C99.5377 169.475 100.014 168.817 100.014 167.991ZM104.276 172.849L102.946 176.027H103.716L107.776 166.157H107.02L104.682 171.995L102.176 166.157H101.378L104.276 172.849ZM112.264 164.855C113.216 164.855 114.014 164.141 114.084 163.133H113.426C113.37 163.791 112.936 164.323 112.264 164.323C111.606 164.323 111.214 163.791 111.172 163.133H110.5C110.57 164.141 111.312 164.855 112.264 164.855ZM109.394 173.479H110.136L114.49 167.235V173.479H115.232V166.157H114.49L110.136 172.387V166.157H109.394V173.479ZM122.566 166.787V166.157H116.756V166.787H119.29V173.479H120.032V166.787H122.566ZM126.809 173.591C128.391 173.591 129.525 172.835 129.847 171.435H129.105C128.839 172.457 128.041 172.961 126.809 172.961C125.059 172.961 124.149 171.855 124.107 169.881H129.903V169.615C129.903 167.193 128.461 166.045 126.697 166.045C124.737 166.045 123.337 167.585 123.337 169.783V169.895C123.337 172.093 124.695 173.591 126.809 173.591ZM129.133 169.279H124.135C124.289 167.669 125.269 166.675 126.697 166.675C128.139 166.675 129.063 167.487 129.133 169.279ZM135.352 166.157V173.479H138.208C139.79 173.479 140.7 172.793 140.7 171.393V171.351C140.7 170.343 140.07 169.797 139.048 169.629C139.888 169.419 140.336 168.845 140.336 168.047V168.005C140.336 166.675 139.3 166.157 137.97 166.157H135.352ZM136.094 166.759H137.956C138.964 166.759 139.552 167.123 139.552 168.033V168.075C139.552 168.943 139.02 169.377 137.97 169.377H136.094V166.759ZM136.094 169.979H138.082C139.272 169.979 139.916 170.427 139.916 171.393V171.435C139.916 172.401 139.328 172.877 138.138 172.877H136.094V169.979ZM145.55 173.591C147.132 173.591 148.266 172.835 148.588 171.435H147.846C147.58 172.457 146.782 172.961 145.55 172.961C143.8 172.961 142.89 171.855 142.848 169.881H148.644V169.615C148.644 167.193 147.202 166.045 145.438 166.045C143.478 166.045 142.078 167.585 142.078 169.783V169.895C142.078 172.093 143.436 173.591 145.55 173.591ZM147.874 169.279H142.876C143.03 167.669 144.01 166.675 145.438 166.675C146.88 166.675 147.804 167.487 147.874 169.279ZM153.424 173.591C155.09 173.591 156.364 172.513 156.546 170.945H155.86C155.678 172.247 154.642 172.961 153.424 172.961C151.884 172.961 150.694 171.827 150.694 169.895V169.783C150.694 167.851 151.898 166.675 153.424 166.675C154.586 166.675 155.566 167.249 155.748 168.481H156.476C156.294 166.829 154.908 166.045 153.424 166.045C151.478 166.045 149.924 167.543 149.924 169.783V169.895C149.924 172.121 151.45 173.591 153.424 173.591Z" fill="#1D1D1D"/>
<rect x="1.7832" y="157.979" width="24.644" height="24.644" rx="7.5" stroke="#1D1D1D"/>
<path d="M16.327 164.749L13.9804 168.057C12.1258 167.921 8.92925 168.472 7.5628 168.764L6.00781 162.742C8.4863 161.998 15.2357 160.955 22.4054 162.742L20.907 168.764C20.1908 168.575 18.5831 168.199 17.8819 168.199" stroke="#1D1D1D"/>
<path d="M6.0957 201.5H20.9052C22.2859 201.5 23.4052 202.619 23.4052 204V209.55C23.4052 210.196 23.3269 210.834 23.1467 211.437C20.6365 219.84 15.6585 222.918 13.5424 223.475C10.5565 222.194 4.94327 218.044 3.68044 211.064C3.61891 210.724 3.5957 210.37 3.5957 210.007V204C3.5957 202.619 4.71499 201.5 6.0957 201.5Z" stroke="#1D1D1D"/>
<path d="M10.0723 206.342H16.9294C17.4817 206.342 17.9294 206.79 17.9294 207.342V210.42C17.9294 210.693 17.8993 210.959 17.8328 211.211C16.7033 215.485 14.4927 217.071 13.5425 217.413C12.1353 216.698 9.56154 214.507 9.07227 210.853V207.342C9.07227 206.79 9.51998 206.342 10.0723 206.342Z" stroke="#1D1D1D"/>
<path d="M39.248 216.37L37.918 219.548H38.688L42.748 209.678H41.992L39.654 215.516L37.148 209.678H36.35L39.248 216.37ZM45.0939 213.178L48.8599 217H49.7839L45.9759 213.136L49.5459 209.678H48.6639L45.0939 213.178V209.678H44.3519V217H45.0939V213.178ZM51.2687 209.678V219.548H52.0107V215.334C52.3887 216.23 53.3547 217.112 54.7967 217.112C56.7007 217.112 58.0867 215.67 58.0867 213.374V213.262C58.0867 210.98 56.6447 209.566 54.7967 209.566C53.5087 209.566 52.4167 210.448 52.0107 211.386V209.678H51.2687ZM54.7407 216.482C53.2287 216.482 51.9967 215.404 51.9967 213.402V213.29C51.9967 211.274 53.2987 210.196 54.7267 210.196C56.1267 210.196 57.3167 211.274 57.3167 213.29V213.402C57.3167 215.376 56.2947 216.482 54.7407 216.482ZM62.8615 217.112C64.4435 217.112 65.5775 216.356 65.8995 214.956H65.1575C64.8915 215.978 64.0935 216.482 62.8615 216.482C61.1115 216.482 60.2015 215.376 60.1595 213.402H65.9555V213.136C65.9555 210.714 64.5135 209.566 62.7495 209.566C60.7895 209.566 59.3895 211.106 59.3895 213.304V213.416C59.3895 215.614 60.7475 217.112 62.8615 217.112ZM65.1855 212.8H60.1875C60.3415 211.19 61.3215 210.196 62.7495 210.196C64.1915 210.196 65.1155 211.008 65.1855 212.8ZM72.612 210.308V217H73.354V209.678H67.796V217H68.538V210.308H72.612ZM77.0672 213.738C77.1792 212.688 77.2352 211.092 77.2772 210.308H80.4412V217H81.1832V209.678H76.6052C76.5912 210.168 76.5772 210.644 76.5492 211.12C76.5072 211.946 76.4512 212.94 76.3812 213.668C76.2272 215.236 76.0312 216.342 75.2752 216.342C75.1352 216.342 75.0232 216.328 74.9392 216.3L74.7992 216.244V216.958L74.9392 217.014C75.0232 217.042 75.1492 217.056 75.3312 217.056C76.4932 217.056 76.8852 215.866 77.0672 213.738ZM85.8943 210.28H87.6583V213.444H86.0343C84.7323 213.444 84.1023 212.912 84.1023 211.904V211.862C84.1023 210.812 84.7043 210.28 85.8943 210.28ZM83.7803 217L85.9083 214.018H87.6583V217H88.4143V209.678H85.9363C84.4523 209.678 83.3603 210.336 83.3603 211.862V211.904C83.3603 213.122 84.1163 213.71 85.1663 213.892L82.9123 217H83.7803ZM93.7279 217.112C95.3099 217.112 96.4439 216.356 96.7659 214.956H96.0239C95.7579 215.978 94.9599 216.482 93.7279 216.482C91.9779 216.482 91.0679 215.376 91.0259 213.402H96.8219V213.136C96.8219 210.714 95.3799 209.566 93.6159 209.566C91.6559 209.566 90.2559 211.106 90.2559 213.304V213.416C90.2559 215.614 91.6139 217.112 93.7279 217.112ZM96.0519 212.8H91.0539C91.2079 211.19 92.1879 210.196 93.6159 210.196C95.0579 210.196 95.9819 211.008 96.0519 212.8ZM103.524 210.308V209.678H97.7136V210.308H100.248V217H100.99V210.308H103.524ZM107.795 217.112C109.461 217.112 110.735 216.034 110.917 214.466H110.231C110.049 215.768 109.013 216.482 107.795 216.482C106.255 216.482 105.065 215.348 105.065 213.416V213.304C105.065 211.372 106.269 210.196 107.795 210.196C108.957 210.196 109.937 210.77 110.119 212.002H110.847C110.665 210.35 109.279 209.566 107.795 209.566C105.849 209.566 104.295 211.064 104.295 213.304V213.416C104.295 215.642 105.821 217.112 107.795 217.112ZM115.024 210.28H116.788V213.444H115.164C113.862 213.444 113.232 212.912 113.232 211.904V211.862C113.232 210.812 113.834 210.28 115.024 210.28ZM112.91 217L115.038 214.018H116.788V217H117.544V209.678H115.066C113.582 209.678 112.49 210.336 112.49 211.862V211.904C112.49 213.122 113.246 213.71 114.296 213.892L112.042 217H112.91ZM123.554 217H124.296L128.65 210.756V217H129.392V209.678H128.65L124.296 215.908V209.678H123.554V217ZM132.373 210.448L135.117 217H135.467L138.253 210.448V217H138.995V209.678H137.973L135.341 215.824L132.793 209.678H131.729V217H132.373V210.448ZM142.051 210.448L144.795 217H145.145L147.931 210.448V217H148.673V209.678H147.651L145.019 215.824L142.471 209.678H141.407V217H142.051V210.448ZM153.172 216.37L151.842 219.548H152.612L156.672 209.678H155.916L153.578 215.516L151.072 209.678H150.274L153.172 216.37ZM163.246 213.528V217H163.988V209.678H163.246V212.898H159.032V209.678H158.29V217H159.032V213.528H163.246ZM166.41 217H167.152L171.506 210.756V217H172.248V209.678H171.506L167.152 215.908V209.678H166.41V217ZM179.582 210.308V209.678H173.772V210.308H176.306V217H177.048V210.308H179.582ZM183.825 217.112C185.407 217.112 186.541 216.356 186.863 214.956H186.121C185.855 215.978 185.057 216.482 183.825 216.482C182.075 216.482 181.165 215.376 181.123 213.402H186.919V213.136C186.919 210.714 185.477 209.566 183.713 209.566C181.753 209.566 180.353 211.106 180.353 213.304V213.416C180.353 215.614 181.711 217.112 183.825 217.112ZM186.149 212.8H181.151C181.305 211.19 182.285 210.196 183.713 210.196C185.155 210.196 186.079 211.008 186.149 212.8ZM193.621 210.308V209.678H187.811V210.308H190.345V217H191.087V210.308H193.621Z" fill="#1D1D1D"/>
</svg>
