<svg width="290" height="292" viewBox="0 0 290 292" fill="none" xmlns="http://www.w3.org/2000/svg">
<circle opacity="0.05" cx="95.5" cy="196.5" r="95.5" fill="#3E9320"/>
<path d="M21.52 178.424V179.64L46.096 166.584V166.2L21.52 153.144V154.36L44.304 166.392L21.52 178.424ZM60.7397 142.904V187H61.8917V141.24H61.3797L50.0517 148.92V150.072L60.7397 142.904ZM86.2325 187.384C95.1925 187.384 101.016 181.752 101.016 172.344C101.016 163.384 94.8085 157.752 87.1925 157.752C81.8165 157.752 77.9125 160.184 75.8005 162.296V142.328H98.7125V141.24H74.6485V164.472H75.1605C77.4645 161.464 81.3045 158.84 87.1925 158.84C94.1045 158.84 99.8005 164.216 99.8005 172.344C99.8005 180.856 94.9365 186.296 86.2325 186.296C78.2965 186.296 74.0085 181.112 73.3045 175.928H72.1525C72.6645 181.688 77.7205 187.384 86.2325 187.384Z" fill="#1D1D1D"/>
<path d="M23.768 215H24.51V207.678H23.768V210.576C23.544 210.828 22.914 211.71 21.598 211.71C20.408 211.71 19.708 211.08 19.708 209.512V207.678H18.966V209.54C18.966 211.57 20.03 212.354 21.43 212.354C22.662 212.354 23.348 211.78 23.768 211.318V215ZM28.9952 215.112C30.2272 215.112 31.0112 214.594 31.4732 213.88V215H32.2152V210.156C32.2152 208.294 31.1652 207.566 29.6532 207.566C28.2812 207.566 26.9932 208.224 26.8392 209.75H27.5672C27.7352 208.672 28.5052 208.196 29.6252 208.196C30.9132 208.196 31.4732 208.77 31.4732 210.156V210.814H29.9472C28.1412 210.814 26.5172 211.332 26.5172 213.026C26.5172 214.412 27.5392 215.112 28.9952 215.112ZM29.0512 214.51C27.8332 214.51 27.2592 213.978 27.2592 213.026C27.2592 211.71 28.4492 211.388 29.9752 211.388H31.4732V212.634C31.4732 213.712 30.3952 214.51 29.0512 214.51ZM34.5678 207.678V215H43.4158V207.678H42.6739V214.37H39.3558V207.678H38.6138V214.37H35.3098V207.678H34.5678ZM48.7443 215.112C50.3263 215.112 51.4603 214.356 51.7823 212.956H51.0403C50.7743 213.978 49.9763 214.482 48.7443 214.482C46.9943 214.482 46.0843 213.376 46.0423 211.402H51.8383V211.136C51.8383 208.714 50.3963 207.566 48.6323 207.566C46.6723 207.566 45.2723 209.106 45.2723 211.304V211.416C45.2723 213.614 46.6303 215.112 48.7443 215.112ZM51.0683 210.8H46.0703C46.2243 209.19 47.2043 208.196 48.6323 208.196C50.0743 208.196 50.9983 209.008 51.0683 210.8ZM54.4068 211.178L58.1728 215H59.0968L55.2888 211.136L58.8588 207.678H57.9768L54.4068 211.178V207.678H53.6648V215H54.4068V211.178ZM68.7258 209.512V209.47C68.7258 208.252 67.7318 207.566 66.4158 207.566C65.1278 207.566 64.0358 208.224 63.8818 209.666H64.5958C64.7638 208.7 65.3798 208.196 66.3738 208.196C67.4238 208.196 67.9418 208.7 67.9418 209.498V209.54C67.9418 210.45 67.4238 210.898 66.3878 210.898H65.2818V211.5H66.4858C67.7038 211.5 68.3058 211.976 68.3058 212.914V212.984C68.3058 213.866 67.6618 214.496 66.4298 214.496C65.0998 214.496 64.5118 213.852 64.3578 212.9H63.6298C63.7558 214.258 64.7358 215.126 66.4298 215.126C68.0678 215.126 69.0758 214.174 69.0758 212.942V212.872C69.0758 211.864 68.4318 211.276 67.4238 211.15C68.2498 210.996 68.7258 210.338 68.7258 209.512ZM73.9505 215.112C75.5325 215.112 76.6665 214.356 76.9885 212.956H76.2465C75.9805 213.978 75.1825 214.482 73.9505 214.482C72.2005 214.482 71.2905 213.376 71.2485 211.402H77.0445V211.136C77.0445 208.714 75.6025 207.566 73.8385 207.566C71.8785 207.566 70.4785 209.106 70.4785 211.304V211.416C70.4785 213.614 71.8365 215.112 73.9505 215.112ZM76.2745 210.8H71.2765C71.4305 209.19 72.4105 208.196 73.8385 208.196C75.2805 208.196 76.2045 209.008 76.2745 210.8ZM80.173 211.738C80.285 210.688 80.341 209.092 80.383 208.308H83.547V215H84.289V207.678H79.711C79.697 208.168 79.683 208.644 79.655 209.12C79.613 209.946 79.557 210.94 79.487 211.668C79.333 213.236 79.137 214.342 78.381 214.342C78.241 214.342 78.129 214.328 78.045 214.3L77.905 214.244V214.958L78.045 215.014C78.129 215.042 78.255 215.056 78.437 215.056C79.599 215.056 79.991 213.866 80.173 211.738ZM89.6161 215.112C91.1981 215.112 92.3321 214.356 92.6541 212.956H91.9121C91.6461 213.978 90.8481 214.482 89.6161 214.482C87.8661 214.482 86.9561 213.376 86.9141 211.402H92.7101V211.136C92.7101 208.714 91.2681 207.566 89.5041 207.566C87.5441 207.566 86.1441 209.106 86.1441 211.304V211.416C86.1441 213.614 87.5021 215.112 89.6161 215.112ZM91.9401 210.8H86.9421C87.0961 209.19 88.0761 208.196 89.5041 208.196C90.9461 208.196 91.8701 209.008 91.9401 210.8ZM99.5066 211.528V215H100.249V207.678H99.5066V210.898H95.2926V207.678H94.5506V215H95.2926V211.528H99.5066ZM102.671 215H103.413L107.767 208.756V215H108.509V207.678H107.767L103.413 213.908V207.678H102.671V215ZM20.352 231.738C20.464 230.688 20.562 229.078 20.604 228.294H23.866V234.37H19.652C20.058 233.936 20.198 233.068 20.352 231.738ZM18.812 236.778L18.868 235H24.986L25.042 236.778H25.644V234.37H24.594V227.678H19.946L19.862 229.12C19.806 229.946 19.764 230.94 19.666 231.668C19.512 233.124 19.372 234.188 18.7 234.37H18.21V236.778H18.812ZM28.734 231.738C28.846 230.688 28.902 229.092 28.944 228.308H32.108V235H32.85V227.678H28.272C28.258 228.168 28.244 228.644 28.216 229.12C28.174 229.946 28.118 230.94 28.048 231.668C27.894 233.236 27.698 234.342 26.942 234.342C26.802 234.342 26.69 234.328 26.606 234.3L26.466 234.244V234.958L26.606 235.014C26.69 235.042 26.816 235.056 26.998 235.056C28.16 235.056 28.552 233.866 28.734 231.738ZM37.5611 228.28H39.3251V231.444H37.7011C36.3991 231.444 35.7691 230.912 35.7691 229.904V229.862C35.7691 228.812 36.3711 228.28 37.5611 228.28ZM35.4471 235L37.5751 232.018H39.3251V235H40.0811V227.678H37.6031C36.1191 227.678 35.0271 228.336 35.0271 229.862V229.904C35.0271 231.122 35.7831 231.71 36.8331 231.892L34.5791 235H35.4471ZM51.0777 229.512V229.47C51.0777 228.252 50.0837 227.566 48.7677 227.566C47.4797 227.566 46.3877 228.224 46.2337 229.666H46.9477C47.1157 228.7 47.7317 228.196 48.7257 228.196C49.7757 228.196 50.2937 228.7 50.2937 229.498V229.54C50.2937 230.45 49.7757 230.898 48.7397 230.898H47.6337V231.5H48.8377C50.0557 231.5 50.6577 231.976 50.6577 232.914V232.984C50.6577 233.866 50.0137 234.496 48.7817 234.496C47.4517 234.496 46.8637 233.852 46.7097 232.9H45.9817C46.1077 234.258 47.0877 235.126 48.7817 235.126C50.4197 235.126 51.4277 234.174 51.4277 232.942V232.872C51.4277 231.864 50.7837 231.276 49.7757 231.15C50.6017 230.996 51.0777 230.338 51.0777 229.512ZM54.5805 231.738C54.6925 230.688 54.7905 229.078 54.8325 228.294H58.0945V234.37H53.8805C54.2865 233.936 54.4265 233.068 54.5805 231.738ZM53.0405 236.778L53.0965 235H59.2145L59.2705 236.778H59.8725V234.37H58.8225V227.678H54.1745L54.0905 229.12C54.0345 229.946 53.9925 230.94 53.8945 231.668C53.7405 233.124 53.6005 234.188 52.9285 234.37H52.4385V236.778H53.0405ZM64.383 234.482C62.787 234.482 61.611 233.278 61.611 231.402V231.29C61.611 229.386 62.815 228.196 64.383 228.196C65.951 228.196 67.141 229.344 67.141 231.29V231.402C67.141 233.292 65.951 234.482 64.383 234.482ZM64.369 235.112C66.343 235.112 67.911 233.586 67.911 231.388V231.276C67.911 229.05 66.357 227.566 64.383 227.566C62.423 227.566 60.841 229.092 60.841 231.29V231.402C60.841 233.572 62.395 235.112 64.369 235.112ZM69.753 227.678V237.548H70.495V233.334C70.873 234.23 71.839 235.112 73.281 235.112C75.185 235.112 76.571 233.67 76.571 231.374V231.262C76.571 228.98 75.129 227.566 73.281 227.566C71.993 227.566 70.901 228.448 70.495 229.386V227.678H69.753ZM73.225 234.482C71.713 234.482 70.481 233.404 70.481 231.402V231.29C70.481 229.274 71.783 228.196 73.211 228.196C74.611 228.196 75.801 229.274 75.801 231.29V231.402C75.801 233.376 74.779 234.482 73.225 234.482ZM81.4158 234.482C79.8198 234.482 78.6438 233.278 78.6438 231.402V231.29C78.6438 229.386 79.8478 228.196 81.4158 228.196C82.9838 228.196 84.1738 229.344 84.1738 231.29V231.402C84.1738 233.292 82.9838 234.482 81.4158 234.482ZM81.4018 235.112C83.3758 235.112 84.9438 233.586 84.9438 231.388V231.276C84.9438 229.05 83.3898 227.566 81.4158 227.566C79.4558 227.566 77.8738 229.092 77.8738 231.29V231.402C77.8738 233.572 79.4278 235.112 81.4018 235.112ZM86.7998 227.678V235H89.6558C91.2378 235 92.1478 234.314 92.1478 232.914V232.872C92.1478 231.864 91.5178 231.318 90.4958 231.15C91.3358 230.94 91.7838 230.366 91.7838 229.568V229.526C91.7838 228.196 90.7478 227.678 89.4178 227.678H86.7998ZM87.5418 228.28H89.4038C90.4118 228.28 90.9998 228.644 90.9998 229.554V229.596C90.9998 230.464 90.4678 230.898 89.4178 230.898H87.5418V228.28ZM87.5418 231.5H89.5298C90.7198 231.5 91.3638 231.948 91.3638 232.914V232.956C91.3638 233.922 90.7758 234.398 89.5858 234.398H87.5418V231.5ZM94.0858 227.678V235H96.5498C98.0338 235 99.1258 234.272 99.1258 232.704V232.662C99.1258 231.122 97.9918 230.366 96.4098 230.366H94.8278V227.678H94.0858ZM96.5918 234.412H94.8278V230.954H96.4518C97.7398 230.954 98.3838 231.542 98.3838 232.662V232.704C98.3838 233.768 97.8238 234.412 96.5918 234.412ZM103.23 228.28H104.994V231.444H103.37C102.068 231.444 101.438 230.912 101.438 229.904V229.862C101.438 228.812 102.04 228.28 103.23 228.28ZM101.116 235L103.244 232.018H104.994V235H105.75V227.678H103.272C101.788 227.678 100.696 228.336 100.696 229.862V229.904C100.696 231.122 101.452 231.71 102.502 231.892L100.248 235H101.116ZM112.488 231.178L116.254 235H117.178L113.37 231.136L116.94 227.678H116.058L112.488 231.178V227.678H111.746V235H112.488V231.178ZM118.677 235H119.419L123.773 228.756V235H124.515V227.678H123.773L119.419 233.908V227.678H118.677V235ZM126.851 227.678V235H135.699V227.678H134.957V234.37H131.639V227.678H130.897V234.37H127.593V227.678H126.851ZM141.028 235.112C142.61 235.112 143.744 234.356 144.066 232.956H143.324C143.058 233.978 142.26 234.482 141.028 234.482C139.278 234.482 138.368 233.376 138.326 231.402H144.122V231.136C144.122 228.714 142.68 227.566 140.916 227.566C138.956 227.566 137.556 229.106 137.556 231.304V231.416C137.556 233.614 138.914 235.112 141.028 235.112ZM143.352 230.8H138.354C138.508 229.19 139.488 228.196 140.916 228.196C142.358 228.196 143.282 229.008 143.352 230.8ZM150.5 235H151.242V227.678H150.5V230.576C150.276 230.828 149.646 231.71 148.33 231.71C147.14 231.71 146.44 231.08 146.44 229.512V227.678H145.698V229.54C145.698 231.57 146.762 232.354 148.162 232.354C149.394 232.354 150.08 231.78 150.5 231.318V235ZM158.751 231.528V235H159.493V227.678H158.751V230.898H154.537V227.678H153.795V235H154.537V231.528H158.751ZM161.915 235H162.657L167.011 228.756V235H167.753V227.678H167.011L162.657 233.908V227.678H161.915V235ZM170.818 231.178L174.584 235H175.508L171.7 231.136L175.27 227.678H174.388L170.818 231.178V227.678H170.076V235H170.818V231.178ZM178.87 235.112C180.102 235.112 180.886 234.594 181.348 233.88V235H182.09V230.156C182.09 228.294 181.04 227.566 179.528 227.566C178.156 227.566 176.868 228.224 176.714 229.75H177.442C177.61 228.672 178.38 228.196 179.5 228.196C180.788 228.196 181.348 228.77 181.348 230.156V230.814H179.822C178.016 230.814 176.392 231.332 176.392 233.026C176.392 234.412 177.414 235.112 178.87 235.112ZM178.926 234.51C177.708 234.51 177.134 233.978 177.134 233.026C177.134 231.71 178.324 231.388 179.85 231.388H181.348V232.634C181.348 233.712 180.27 234.51 178.926 234.51Z" fill="#1D1D1D"/>
<rect x="17" y="257" width="78" height="3" rx="1.5" fill="#3E9320"/>
</svg>
