<svg width="291" height="292" viewBox="0 0 291 292" fill="none" xmlns="http://www.w3.org/2000/svg">
<circle opacity="0.05" cx="95.5" cy="196.5" r="95.5" fill="#117592"/>
<rect x="17" y="257" width="78" height="3" rx="1.5" fill="#117592"/>
<path d="M22.2592 129.996V147H32.2712V146.596H22.7111V138.415H30.1547V138.011H22.7111V130.401H31.8431V129.996H22.2592ZM40.9977 134.562V147H41.402V134.562H40.9977ZM47.8705 147H48.4175L42.0203 140.484L48.0608 134.562H47.5376L41.5447 140.484L47.8705 147ZM33.9822 147H34.5291L40.855 140.484L34.8621 134.562H34.3389L40.3794 140.484L33.9822 147ZM55.1859 147.166C57.6829 147.166 59.5379 145.906 60.18 143.647H59.7519C59.1574 145.74 57.3976 146.786 55.1859 146.786C51.7376 146.786 49.8826 144.479 49.8826 140.579H60.2751V140.317C60.2751 136.608 58.1586 134.396 55.0194 134.396C51.8089 134.396 49.4546 136.988 49.4546 140.698V140.888C49.4546 144.527 51.4998 147.166 55.1859 147.166ZM59.8471 140.199H49.8826C50.0015 136.893 52.1894 134.776 55.0194 134.776C57.897 134.776 59.7757 136.655 59.8471 140.199ZM64.6243 140.579C64.8146 138.867 64.9335 135.965 65.0048 134.943H71.7112V146.619H63.0072C64.0298 145.835 64.3152 143.742 64.6243 140.579ZM61.8181 150.02L61.8895 147H73.3759L73.4472 150.02H73.7802V146.619H72.1393V134.562H64.6243L64.4816 136.75C64.4103 137.963 64.3152 139.438 64.22 140.46C63.8871 143.932 63.5304 146.239 62.27 146.619H61.4852V150.02H61.8181ZM85.293 140.674V147H85.721V134.562H85.293V140.294H76.8981V134.562H76.4701V147H76.8981V140.674H85.293ZM94.4564 147.166C96.9535 147.166 98.8084 145.906 99.4505 143.647H99.0225C98.4279 145.74 96.6681 146.786 94.4564 146.786C91.0081 146.786 89.1532 144.479 89.1532 140.579H99.5456V140.317C99.5456 136.608 97.4291 134.396 94.29 134.396C91.0795 134.396 88.7251 136.988 88.7251 140.698V140.888C88.7251 144.527 90.7703 147.166 94.4564 147.166ZM99.1176 140.199H89.1532C89.2721 136.893 91.46 134.776 94.29 134.776C97.1675 134.776 99.0462 136.655 99.1176 140.199ZM102.558 134.562V147H107.385C110.049 147 111.357 145.787 111.357 143.599V143.528C111.357 141.721 110.263 140.698 108.336 140.436C109.74 140.175 110.715 139.366 110.715 137.725V137.654C110.715 135.632 109.311 134.562 107.124 134.562H102.558ZM102.986 134.943H107.124C109.097 134.943 110.263 135.823 110.263 137.654V137.725C110.263 139.366 109.145 140.294 107.147 140.294H102.986V134.943ZM102.986 140.674H107.147C109.549 140.674 110.905 141.625 110.905 143.528V143.599C110.905 145.621 109.74 146.619 107.385 146.619H102.986V140.674ZM123.449 140.674V147H123.877V134.562H123.449V140.294H115.054V134.562H114.626V147H115.054V140.674H123.449ZM131.328 147.166C133.706 147.166 135.299 145.977 135.942 144.717V147H136.37V138.748C136.37 135.965 135.085 134.396 132.208 134.396C129.925 134.396 127.903 135.537 127.594 137.892H127.999C128.403 135.704 130.115 134.776 132.208 134.776C134.776 134.776 135.942 135.989 135.942 138.748V140.056H132.398C129.473 140.056 127.024 140.864 127.024 143.742C127.024 145.93 128.664 147.166 131.328 147.166ZM131.328 146.786C128.879 146.786 127.452 145.74 127.452 143.742C127.452 141.007 129.687 140.436 132.398 140.436H135.942V143.385C135.942 145.169 133.801 146.786 131.328 146.786ZM143.841 134.919H147.623V141.364H144.341C141.796 141.364 140.322 140.294 140.322 138.201V138.13C140.322 135.965 141.582 134.919 143.841 134.919ZM148.051 147V134.562H143.841C141.392 134.562 139.894 135.728 139.894 138.13V138.201C139.894 140.199 141.107 141.34 143.176 141.649L139.323 147H139.87L143.627 141.697C143.889 141.721 144.079 141.721 144.341 141.721H147.623V147H148.051ZM30.7492 170.674V177H31.1773V164.562H30.7492V170.294H22.3544V164.562H21.9263V177H22.3544V170.674H30.7492ZM40.0553 176.786C37.1302 176.786 34.6094 174.479 34.6094 170.888V170.698C34.6094 167.012 37.2254 164.8 40.1029 164.8C42.9567 164.8 45.5013 166.94 45.5013 170.674V170.864C45.5013 174.551 42.9091 176.786 40.0553 176.786ZM40.0316 177.166C43.1945 177.166 45.9294 174.622 45.9294 170.864V170.674C45.9294 166.845 43.2421 164.42 40.1029 164.42C36.9638 164.42 34.1813 166.964 34.1813 170.698V170.888C34.1813 174.574 36.8686 177.166 40.0316 177.166ZM48.9189 164.562V181.328H49.347V173.243C49.9891 175.145 51.7014 177.166 54.674 177.166C57.6467 177.166 60.1675 174.907 60.1675 170.888V170.698C60.1675 166.822 57.6467 164.396 54.674 164.396C52.0105 164.396 50.0604 166.322 49.347 168.439V164.562H48.9189ZM54.674 176.786C51.8916 176.786 49.347 174.574 49.347 170.888V170.698C49.347 166.988 52.1056 164.776 54.674 164.776C57.3851 164.776 59.7395 166.94 59.7395 170.698V170.888C59.7395 174.598 57.504 176.786 54.674 176.786ZM63.5989 165.133L68.9498 177H69.1876L74.6811 165.133V177H75.1091V164.562H74.5146L69.0924 176.263L63.813 164.562H63.1709V177H63.5989V165.133ZM82.567 177.166C84.9452 177.166 86.5385 175.977 87.1806 174.717V177H87.6087V168.748C87.6087 165.965 86.3245 164.396 83.4469 164.396C81.1639 164.396 79.1425 165.537 78.8333 167.892H79.2376C79.6419 165.704 81.3542 164.776 83.4469 164.776C86.0153 164.776 87.1806 165.989 87.1806 168.748V170.056H83.6372C80.7121 170.056 78.2626 170.864 78.2626 173.742C78.2626 175.93 79.9035 177.166 82.567 177.166ZM82.567 176.786C80.1175 176.786 78.6907 175.74 78.6907 173.742C78.6907 171.007 80.9261 170.436 83.6372 170.436H87.1806V173.385C87.1806 175.169 85.0403 176.786 82.567 176.786Z" fill="#1D1D1D"/>
<path d="M24.256 221.112C26.23 221.112 27.798 219.642 27.798 217.332V217.248C27.798 215.064 26.426 213.566 24.48 213.566C23.01 213.566 21.834 214.378 21.372 215.666H21.33C21.442 212.628 22.296 211.032 24.816 210.92L25.292 210.906C26.454 210.85 26.958 210.752 27.28 210.626V209.982C26.93 210.108 26.384 210.192 25.264 210.234L24.774 210.248C21.582 210.36 20.742 212.838 20.742 216.128V216.996C20.742 219.684 22.268 221.112 24.256 221.112ZM24.27 220.482C22.688 220.482 21.498 219.278 21.498 217.318V217.29C21.498 215.33 22.8 214.196 24.41 214.196C25.978 214.196 27.042 215.316 27.042 217.276V217.346C27.042 219.32 25.838 220.482 24.27 220.482ZM32.5767 221.112C34.1587 221.112 35.2927 220.356 35.6147 218.956H34.8727C34.6067 219.978 33.8087 220.482 32.5767 220.482C30.8267 220.482 29.9167 219.376 29.8747 217.402H35.6707V217.136C35.6707 214.714 34.2287 213.566 32.4647 213.566C30.5047 213.566 29.1047 215.106 29.1047 217.304V217.416C29.1047 219.614 30.4627 221.112 32.5767 221.112ZM34.9007 216.8H29.9027C30.0567 215.19 31.0367 214.196 32.4647 214.196C33.9067 214.196 34.8307 215.008 34.9007 216.8ZM38.7992 217.738C38.9112 216.688 38.9672 215.092 39.0092 214.308H42.1732V221H42.9152V213.678H38.3372C38.3232 214.168 38.3092 214.644 38.2812 215.12C38.2392 215.946 38.1832 216.94 38.1132 217.668C37.9592 219.236 37.7632 220.342 37.0072 220.342C36.8672 220.342 36.7552 220.328 36.6712 220.3L36.5312 220.244V220.958L36.6712 221.014C36.7552 221.042 36.8812 221.056 37.0632 221.056C38.2252 221.056 38.6172 219.866 38.7992 217.738ZM46.0583 217.178L49.8243 221H50.7483L46.9403 217.136L50.5103 213.678H49.6283L46.0583 217.178V213.678H45.3163V221H46.0583V217.178ZM54.1108 221.112C55.3428 221.112 56.1268 220.594 56.5888 219.88V221H57.3308V216.156C57.3308 214.294 56.2808 213.566 54.7688 213.566C53.3968 213.566 52.1088 214.224 51.9548 215.75H52.6828C52.8508 214.672 53.6208 214.196 54.7408 214.196C56.0288 214.196 56.5888 214.77 56.5888 216.156V216.814H55.0628C53.2568 216.814 51.6328 217.332 51.6328 219.026C51.6328 220.412 52.6548 221.112 54.1108 221.112ZM54.1668 220.51C52.9488 220.51 52.3748 219.978 52.3748 219.026C52.3748 217.71 53.5648 217.388 55.0908 217.388H56.5888V218.634C56.5888 219.712 55.5108 220.51 54.1668 220.51ZM58.9835 222.386L59.4875 222.638L60.7895 220.16L60.0615 219.824L58.9835 222.386ZM66.6538 213.678V221H69.5098C71.0918 221 72.0018 220.314 72.0018 218.914V218.872C72.0018 217.864 71.3718 217.318 70.3498 217.15C71.1898 216.94 71.6378 216.366 71.6378 215.568V215.526C71.6378 214.196 70.6018 213.678 69.2718 213.678H66.6538ZM67.3958 214.28H69.2578C70.2658 214.28 70.8538 214.644 70.8538 215.554V215.596C70.8538 216.464 70.3218 216.898 69.2718 216.898H67.3958V214.28ZM67.3958 217.5H69.3838C70.5738 217.5 71.2178 217.948 71.2178 218.914V218.956C71.2178 219.922 70.6298 220.398 69.4398 220.398H67.3958V217.5ZM73.9397 221H74.6817L79.0357 214.756V221H79.7777V213.678H79.0357L74.6817 219.908V213.678H73.9397V221ZM87.1123 214.308V213.678H81.3023V214.308H83.8363V221H84.5783V214.308H87.1123ZM90.5119 221.112C91.7439 221.112 92.5279 220.594 92.9899 219.88V221H93.7319V216.156C93.7319 214.294 92.6819 213.566 91.1699 213.566C89.7979 213.566 88.5099 214.224 88.3559 215.75H89.0839C89.2519 214.672 90.0219 214.196 91.1419 214.196C92.4299 214.196 92.9899 214.77 92.9899 216.156V216.814H91.4639C89.6579 216.814 88.0339 217.332 88.0339 219.026C88.0339 220.412 89.0559 221.112 90.5119 221.112ZM90.5679 220.51C89.3499 220.51 88.7759 219.978 88.7759 219.026C88.7759 217.71 89.9659 217.388 91.4919 217.388H92.9899V218.634C92.9899 219.712 91.9119 220.51 90.5679 220.51ZM96.7286 214.448L99.4726 221H99.8226L102.609 214.448V221H103.351V213.678H102.329L99.6966 219.824L97.1486 213.678H96.0846V221H96.7286V214.448ZM105.763 221H106.505L110.859 214.756V221H111.601V213.678H110.859L106.505 219.908V213.678H105.763V221ZM118.894 217.528V221H119.636V213.678H118.894V216.898H114.68V213.678H113.938V221H114.68V217.528H118.894ZM125.04 220.482C123.444 220.482 122.268 219.278 122.268 217.402V217.29C122.268 215.386 123.472 214.196 125.04 214.196C126.608 214.196 127.798 215.344 127.798 217.29V217.402C127.798 219.292 126.608 220.482 125.04 220.482ZM125.026 221.112C127 221.112 128.568 219.586 128.568 217.388V217.276C128.568 215.05 127.014 213.566 125.04 213.566C123.08 213.566 121.498 215.092 121.498 217.29V217.402C121.498 219.572 123.052 221.112 125.026 221.112ZM130.424 213.678V221H133.28C134.862 221 135.772 220.314 135.772 218.914V218.872C135.772 217.864 135.142 217.318 134.12 217.15C134.96 216.94 135.408 216.366 135.408 215.568V215.526C135.408 214.196 134.372 213.678 133.042 213.678H130.424ZM131.166 214.28H133.028C134.036 214.28 134.624 214.644 134.624 215.554V215.596C134.624 216.464 134.092 216.898 133.042 216.898H131.166V214.28ZM131.166 217.5H133.154C134.344 217.5 134.988 217.948 134.988 218.914V218.956C134.988 219.922 134.4 220.398 133.21 220.398H131.166V217.5ZM21.162 241H21.904L26.258 234.756V241H27V233.678H26.258L21.904 239.908V233.678H21.162V241ZM33.5888 234.448L36.3328 241H36.6828L39.4688 234.448V241H40.2108V233.678H39.1888L36.5568 239.824L34.0088 233.678H32.9448V241H33.5888V234.448ZM42.6233 241H43.3653L47.7193 234.756V241H48.4613V233.678H47.7193L43.3653 239.908V233.678H42.6233V241ZM55.7539 237.528V241H56.4959V233.678H55.7539V236.898H51.5399V233.678H50.7979V241H51.5399V237.528H55.7539ZM61.8298 241.112C63.4118 241.112 64.5458 240.356 64.8678 238.956H64.1258C63.8598 239.978 63.0618 240.482 61.8298 240.482C60.0798 240.482 59.1698 239.376 59.1278 237.402H64.9238V237.136C64.9238 234.714 63.4818 233.566 61.7178 233.566C59.7578 233.566 58.3578 235.106 58.3578 237.304V237.416C58.3578 239.614 59.7158 241.112 61.8298 241.112ZM64.1538 236.8H59.1558C59.3098 235.19 60.2898 234.196 61.7178 234.196C63.1598 234.196 64.0838 235.008 64.1538 236.8ZM66.7503 233.678V243.548H67.4923V239.334C67.8703 240.23 68.8363 241.112 70.2783 241.112C72.1823 241.112 73.5683 239.67 73.5683 237.374V237.262C73.5683 234.98 72.1263 233.566 70.2783 233.566C68.9903 233.566 67.8983 234.448 67.4923 235.386V233.678H66.7503ZM70.2223 240.482C68.7103 240.482 67.4783 239.404 67.4783 237.402V237.29C67.4783 235.274 68.7803 234.196 70.2083 234.196C71.6083 234.196 72.7983 235.274 72.7983 237.29V237.402C72.7983 239.376 71.7763 240.482 70.2223 240.482ZM77.3631 241.112C78.5951 241.112 79.3791 240.594 79.8411 239.88V241H80.5831V236.156C80.5831 234.294 79.5331 233.566 78.0211 233.566C76.6491 233.566 75.3611 234.224 75.2071 235.75H75.9351C76.1031 234.672 76.8731 234.196 77.9931 234.196C79.2811 234.196 79.8411 234.77 79.8411 236.156V236.814H78.3151C76.5091 236.814 74.8851 237.332 74.8851 239.026C74.8851 240.412 75.9071 241.112 77.3631 241.112ZM77.4191 240.51C76.2011 240.51 75.6271 239.978 75.6271 239.026C75.6271 237.71 76.8171 237.388 78.3431 237.388H79.8411V238.634C79.8411 239.712 78.7631 240.51 77.4191 240.51ZM84.2238 237.738C84.3358 236.688 84.3918 235.092 84.4338 234.308H87.5978V241H88.3398V233.678H83.7618C83.7478 234.168 83.7338 234.644 83.7058 235.12C83.6638 235.946 83.6078 236.94 83.5378 237.668C83.3838 239.236 83.1878 240.342 82.4318 240.342C82.2918 240.342 82.1798 240.328 82.0958 240.3L81.9558 240.244V240.958L82.0958 241.014C82.1798 241.042 82.3058 241.056 82.4878 241.056C83.6498 241.056 84.0418 239.866 84.2238 237.738ZM93.7369 240.482C92.1409 240.482 90.9649 239.278 90.9649 237.402V237.29C90.9649 235.386 92.1689 234.196 93.7369 234.196C95.3049 234.196 96.4949 235.344 96.4949 237.29V237.402C96.4949 239.292 95.3049 240.482 93.7369 240.482ZM93.7229 241.112C95.6969 241.112 97.2649 239.586 97.2649 237.388V237.276C97.2649 235.05 95.7109 233.566 93.7369 233.566C91.7769 233.566 90.1949 235.092 90.1949 237.29V237.402C90.1949 239.572 91.7489 241.112 93.7229 241.112ZM99.1209 233.678V241H101.977C103.559 241 104.469 240.314 104.469 238.914V238.872C104.469 237.864 103.839 237.318 102.817 237.15C103.657 236.94 104.105 236.366 104.105 235.568V235.526C104.105 234.196 103.069 233.678 101.739 233.678H99.1209ZM99.8629 234.28H101.725C102.733 234.28 103.321 234.644 103.321 235.554V235.596C103.321 236.464 102.789 236.898 101.739 236.898H99.8629V234.28ZM99.8629 237.5H101.851C103.041 237.5 103.685 237.948 103.685 238.914V238.956C103.685 239.922 103.097 240.398 101.907 240.398H99.8629V237.5Z" fill="#1D1D1D"/>
</svg>
