<svg width="290" height="292" viewBox="0 0 290 292" fill="none" xmlns="http://www.w3.org/2000/svg">
<circle opacity="0.08" cx="95.5" cy="196.5" r="95.5" fill="#F3B03E"/>
<path d="M18.344 186.68V187H47.08V185.912H20.52L37.928 168.504C43.496 162.936 45.992 158.392 45.992 152.824C45.992 144.888 40.424 140.856 33.256 140.856C26.088 140.856 20.392 145.336 19.688 153.656H20.84C21.8 145.784 26.6 141.944 33.256 141.944C39.912 141.944 44.776 145.464 44.776 152.824C44.776 157.944 42.6 162.232 36.968 167.864L18.344 186.68ZM70.2457 186.296C60.3257 186.296 54.5657 179.832 54.5657 166.84V161.464C54.5657 148.984 60.1337 141.944 70.0537 141.944C79.9737 141.944 85.9257 149.304 85.9257 161.272V166.648C85.9257 179.64 80.5497 186.296 70.2457 186.296ZM70.2457 187.384C81.2537 187.384 87.1417 180.152 87.1417 166.648V161.272C87.1417 148.216 80.4857 140.856 70.0537 140.856C59.3657 140.856 53.3497 148.216 53.3497 161.464V166.84C53.3497 180.216 59.4297 187.384 70.2457 187.384ZM110.953 186.296C101.033 186.296 95.2735 179.832 95.2735 166.84V161.464C95.2735 148.984 100.841 141.944 110.761 141.944C120.681 141.944 126.633 149.304 126.633 161.272V166.648C126.633 179.64 121.257 186.296 110.953 186.296ZM110.953 187.384C121.961 187.384 127.849 180.152 127.849 166.648V161.272C127.849 148.216 121.193 140.856 110.761 140.856C100.073 140.856 94.0575 148.216 94.0575 161.464V166.84C94.0575 180.216 100.137 187.384 110.953 187.384ZM143.228 159.416C138.876 159.416 134.972 156.216 134.972 150.84C134.972 145.4 138.876 142.008 143.228 142.008C147.772 142.008 151.548 145.336 151.548 150.712C151.548 156.216 147.644 159.416 143.228 159.416ZM143.228 160.44C148.22 160.44 152.7 156.92 152.7 150.712C152.7 144.888 148.412 140.984 143.228 140.984C138.236 140.984 133.82 144.888 133.82 150.84C133.82 156.856 138.364 160.44 143.228 160.44ZM169.148 141.24L138.62 187H139.9L170.428 141.24H169.148ZM165.756 186.296C161.404 186.296 157.5 183.096 157.5 177.72C157.5 172.28 161.404 168.888 165.756 168.888C170.3 168.888 174.076 172.216 174.076 177.592C174.076 183.096 170.172 186.296 165.756 186.296ZM165.756 187.32C170.748 187.32 175.228 183.8 175.228 177.592C175.228 171.768 170.94 167.864 165.756 167.864C160.764 167.864 156.348 171.768 156.348 177.72C156.348 183.736 160.892 187.32 165.756 187.32Z" fill="#1D1D1D"/>
<path d="M18.89 217.178L22.656 221H23.58L19.772 217.136L23.342 213.678H22.46L18.89 217.178V213.678H18.148V221H18.89V217.178ZM26.3668 217.738C26.4788 216.688 26.5348 215.092 26.5768 214.308H29.7408V221H30.4828V213.678H25.9048C25.8908 214.168 25.8768 214.644 25.8488 215.12C25.8068 215.946 25.7508 216.94 25.6808 217.668C25.5268 219.236 25.3308 220.342 24.5748 220.342C24.4348 220.342 24.3228 220.328 24.2388 220.3L24.0988 220.244V220.958L24.2388 221.014C24.3228 221.042 24.4488 221.056 24.6308 221.056C25.7928 221.056 26.1848 219.866 26.3668 217.738ZM35.8099 221.112C37.3919 221.112 38.5259 220.356 38.8479 218.956H38.1059C37.8399 219.978 37.0419 220.482 35.8099 220.482C34.0599 220.482 33.1499 219.376 33.1079 217.402H38.9039V217.136C38.9039 214.714 37.4619 213.566 35.6979 213.566C33.7379 213.566 32.3379 215.106 32.3379 217.304V217.416C32.3379 219.614 33.6959 221.112 35.8099 221.112ZM38.1339 216.8H33.1359C33.2899 215.19 34.2699 214.196 35.6979 214.196C37.1399 214.196 38.0639 215.008 38.1339 216.8ZM45.6057 214.308V213.678H39.7957V214.308H42.3297V221H43.0717V214.308H45.6057ZM51.816 221H52.558V213.678H51.816V216.576C51.592 216.828 50.962 217.71 49.646 217.71C48.456 217.71 47.756 217.08 47.756 215.512V213.678H47.014V215.54C47.014 217.57 48.078 218.354 49.478 218.354C50.71 218.354 51.396 217.78 51.816 217.318V221ZM57.0432 221.112C58.2752 221.112 59.0592 220.594 59.5212 219.88V221H60.2632V216.156C60.2632 214.294 59.2132 213.566 57.7012 213.566C56.3292 213.566 55.0412 214.224 54.8872 215.75H55.6152C55.7832 214.672 56.5532 214.196 57.6732 214.196C58.9612 214.196 59.5212 214.77 59.5212 216.156V216.814H57.9952C56.1892 216.814 54.5652 217.332 54.5652 219.026C54.5652 220.412 55.5872 221.112 57.0432 221.112ZM57.0992 220.51C55.8812 220.51 55.3072 219.978 55.3072 219.026C55.3072 217.71 56.4972 217.388 58.0232 217.388H59.5212V218.634C59.5212 219.712 58.4432 220.51 57.0992 220.51ZM67.4772 214.308V213.678H61.6672V214.308H64.2012V221H64.9432V214.308H67.4772ZM69.8095 217.178L73.5755 221H74.4995L70.6915 217.136L74.2615 213.678H73.3795L69.8095 217.178V213.678H69.0675V221H69.8095V217.178ZM75.9983 221H76.7403L81.0943 214.756V221H81.8363V213.678H81.0943L76.7403 219.908V213.678H75.9983V221ZM83.4729 222.386L83.9769 222.638L85.2789 220.16L84.5509 219.824L83.4729 222.386ZM96.0992 217.528V221H96.8412V213.678H96.0992V216.898H91.8852V213.678H91.1432V221H91.8852V217.528H96.0992ZM102.175 221.112C103.757 221.112 104.891 220.356 105.213 218.956H104.471C104.205 219.978 103.407 220.482 102.175 220.482C100.425 220.482 99.5151 219.376 99.4731 217.402H105.269V217.136C105.269 214.714 103.827 213.566 102.063 213.566C100.103 213.566 98.7031 215.106 98.7031 217.304V217.416C98.7031 219.614 100.061 221.112 102.175 221.112ZM104.499 216.8H99.5011C99.6551 215.19 100.635 214.196 102.063 214.196C103.505 214.196 104.429 215.008 104.499 216.8ZM110.092 220.482C108.496 220.482 107.32 219.278 107.32 217.402V217.29C107.32 215.386 108.524 214.196 110.092 214.196C111.66 214.196 112.85 215.344 112.85 217.29V217.402C112.85 219.292 111.66 220.482 110.092 220.482ZM110.078 221.112C112.052 221.112 113.62 219.586 113.62 217.388V217.276C113.62 215.05 112.066 213.566 110.092 213.566C108.132 213.566 106.55 215.092 106.55 217.29V217.402C106.55 219.572 108.104 221.112 110.078 221.112ZM118.57 221.112C120.544 221.112 122.112 219.642 122.112 217.332V217.248C122.112 215.064 120.74 213.566 118.794 213.566C117.324 213.566 116.148 214.378 115.686 215.666H115.644C115.756 212.628 116.61 211.032 119.13 210.92L119.606 210.906C120.768 210.85 121.272 210.752 121.594 210.626V209.982C121.244 210.108 120.698 210.192 119.578 210.234L119.088 210.248C115.896 210.36 115.056 212.838 115.056 216.128V216.996C115.056 219.684 116.582 221.112 118.57 221.112ZM118.584 220.482C117.002 220.482 115.812 219.278 115.812 217.318V217.29C115.812 215.33 117.114 214.196 118.724 214.196C120.292 214.196 121.356 215.316 121.356 217.276V217.346C121.356 219.32 120.152 220.482 118.584 220.482ZM125.802 217.22L123.086 221H123.898L126.222 217.724L128.546 221H129.428L126.656 217.164L129.162 213.678H128.336L126.25 216.66L124.136 213.678H123.254L125.802 217.22ZM133.713 220.482C132.117 220.482 130.941 219.278 130.941 217.402V217.29C130.941 215.386 132.145 214.196 133.713 214.196C135.281 214.196 136.471 215.344 136.471 217.29V217.402C136.471 219.292 135.281 220.482 133.713 220.482ZM133.699 221.112C135.673 221.112 137.241 219.586 137.241 217.388V217.276C137.241 215.05 135.687 213.566 133.713 213.566C131.753 213.566 130.171 215.092 130.171 217.29V217.402C130.171 219.572 131.725 221.112 133.699 221.112ZM140.082 217.738C140.194 216.688 140.292 215.078 140.334 214.294H143.596V220.37H139.382C139.788 219.936 139.928 219.068 140.082 217.738ZM138.542 222.778L138.598 221H144.716L144.772 222.778H145.374V220.37H144.324V213.678H139.676L139.592 215.12C139.536 215.946 139.494 216.94 139.396 217.668C139.242 219.124 139.102 220.188 138.43 220.37H137.94V222.778H138.542ZM146.971 221H147.713L152.067 214.756V221H152.809V213.678H152.067L147.713 219.908V213.678H146.971V221ZM155.789 214.448L158.533 221H158.883L161.669 214.448V221H162.411V213.678H161.389L158.757 219.824L156.209 213.678H155.145V221H155.789V214.448ZM167.806 220.482C166.21 220.482 165.034 219.278 165.034 217.402V217.29C165.034 215.386 166.238 214.196 167.806 214.196C169.374 214.196 170.564 215.344 170.564 217.29V217.402C170.564 219.292 169.374 220.482 167.806 220.482ZM167.792 221.112C169.766 221.112 171.334 219.586 171.334 217.388V217.276C171.334 215.05 169.78 213.566 167.806 213.566C165.846 213.566 164.264 215.092 164.264 217.29V217.402C164.264 219.572 165.818 221.112 167.792 221.112ZM176.06 212.376C177.012 212.376 177.81 211.662 177.88 210.654H177.222C177.166 211.312 176.732 211.844 176.06 211.844C175.402 211.844 175.01 211.312 174.968 210.654H174.296C174.366 211.662 175.108 212.376 176.06 212.376ZM173.19 221H173.932L178.286 214.756V221H179.028V213.678H178.286L173.932 219.908V213.678H173.19V221ZM19.352 237.738C19.464 236.688 19.562 235.078 19.604 234.294H22.866V240.37H18.652C19.058 239.936 19.198 239.068 19.352 237.738ZM17.812 242.778L17.868 241H23.986L24.042 242.778H24.644V240.37H23.594V233.678H18.946L18.862 235.12C18.806 235.946 18.764 236.94 18.666 237.668C18.512 239.124 18.372 240.188 17.7 240.37H17.21V242.778H17.812ZM27.734 237.738C27.846 236.688 27.902 235.092 27.944 234.308H31.108V241H31.85V233.678H27.272C27.258 234.168 27.244 234.644 27.216 235.12C27.174 235.946 27.118 236.94 27.048 237.668C26.894 239.236 26.698 240.342 25.942 240.342C25.802 240.342 25.69 240.328 25.606 240.3L25.466 240.244V240.958L25.606 241.014C25.69 241.042 25.816 241.056 25.998 241.056C27.16 241.056 27.552 239.866 27.734 237.738ZM36.5611 234.28H38.3251V237.444H36.7011C35.3991 237.444 34.7691 236.912 34.7691 235.904V235.862C34.7691 234.812 35.3711 234.28 36.5611 234.28ZM34.4471 241L36.5751 238.018H38.3251V241H39.0811V233.678H36.6031C35.1191 233.678 34.0271 234.336 34.0271 235.862V235.904C34.0271 237.122 34.7831 237.71 35.8331 237.892L33.5791 241H34.4471ZM50.3717 234.308V241H51.1137V233.678H45.5557V241H46.2977V234.308H50.3717ZM53.5389 241H54.2809L58.6349 234.756V241H59.3769V233.678H58.6349L54.2809 239.908V233.678H53.5389V241ZM71.0095 242.778H71.6115V240.37H70.5615V233.678H69.8195V240.37H66.5015V233.678H65.7595V240.37H62.4555V233.678H61.7135V241H70.9535L71.0095 242.778ZM76.054 241.112C77.636 241.112 78.77 240.356 79.092 238.956H78.35C78.084 239.978 77.286 240.482 76.054 240.482C74.304 240.482 73.394 239.376 73.352 237.402H79.148V237.136C79.148 234.714 77.706 233.566 75.942 233.566C73.982 233.566 72.582 235.106 72.582 237.304V237.416C72.582 239.614 73.94 241.112 76.054 241.112ZM78.378 236.8H73.38C73.534 235.19 74.514 234.196 75.942 234.196C77.384 234.196 78.308 235.008 78.378 236.8ZM80.9885 233.678V241H83.8445C85.4265 241 86.3365 240.314 86.3365 238.914V238.872C86.3365 237.864 85.7065 237.318 84.6845 237.15C85.5245 236.94 85.9725 236.366 85.9725 235.568V235.526C85.9725 234.196 84.9365 233.678 83.6065 233.678H80.9885ZM81.7305 234.28H83.5925C84.6005 234.28 85.1885 234.644 85.1885 235.554V235.596C85.1885 236.464 84.6565 236.898 83.6065 236.898H81.7305V234.28ZM81.7305 237.5H83.7185C84.9085 237.5 85.5525 237.948 85.5525 238.914V238.956C85.5525 239.922 84.9645 240.398 83.7745 240.398H81.7305V237.5ZM90.2748 241.112C91.5068 241.112 92.2908 240.594 92.7528 239.88V241H93.4948V236.156C93.4948 234.294 92.4448 233.566 90.9328 233.566C89.5608 233.566 88.2728 234.224 88.1188 235.75H88.8468C89.0148 234.672 89.7848 234.196 90.9048 234.196C92.1928 234.196 92.7528 234.77 92.7528 236.156V236.814H91.2268C89.4208 236.814 87.7968 237.332 87.7968 239.026C87.7968 240.412 88.8188 241.112 90.2748 241.112ZM90.3308 240.51C89.1128 240.51 88.5388 239.978 88.5388 239.026C88.5388 237.71 89.7288 237.388 91.2548 237.388H92.7528V238.634C92.7528 239.712 91.6748 240.51 90.3308 240.51ZM95.8335 233.678V243.548H96.5755V239.334C96.9535 240.23 97.9195 241.112 99.3615 241.112C101.265 241.112 102.651 239.67 102.651 237.374V237.262C102.651 234.98 101.209 233.566 99.3615 233.566C98.0735 233.566 96.9815 234.448 96.5755 235.386V233.678H95.8335ZM99.3055 240.482C97.7935 240.482 96.5615 239.404 96.5615 237.402V237.29C96.5615 235.274 97.8635 234.196 99.2915 234.196C100.691 234.196 101.881 235.274 101.881 237.29V237.402C101.881 239.376 100.859 240.482 99.3055 240.482ZM107.426 241.112C109.008 241.112 110.142 240.356 110.464 238.956H109.722C109.456 239.978 108.658 240.482 107.426 240.482C105.676 240.482 104.766 239.376 104.724 237.402H110.52V237.136C110.52 234.714 109.078 233.566 107.314 233.566C105.354 233.566 103.954 235.106 103.954 237.304V237.416C103.954 239.614 105.312 241.112 107.426 241.112ZM109.75 236.8H104.752C104.906 235.19 105.886 234.196 107.314 234.196C108.756 234.196 109.68 235.008 109.75 236.8ZM117.317 237.528V241H118.059V233.678H117.317V236.898H113.103V233.678H112.361V241H113.103V237.528H117.317ZM120.481 241H121.223L125.577 234.756V241H126.319V233.678H125.577L121.223 239.908V233.678H120.481V241ZM130.951 234.28H132.715V237.444H131.091C129.789 237.444 129.159 236.912 129.159 235.904V235.862C129.159 234.812 129.761 234.28 130.951 234.28ZM128.837 241L130.965 238.018H132.715V241H133.471V233.678H130.993C129.509 233.678 128.417 234.336 128.417 235.862V235.904C128.417 237.122 129.173 237.71 130.223 237.892L127.969 241H128.837Z" fill="#1D1D1D"/>
<rect x="17" y="257" width="78" height="3" rx="1.5" fill="#F3B03E"/>
</svg>
