<svg width="290" height="292" viewBox="0 0 290 292" fill="none" xmlns="http://www.w3.org/2000/svg">
<circle cx="95.5" cy="196.5" r="95.5" fill="#F3F7F6"/>
<path d="M29.032 142.904V187H30.184V141.24H29.672L18.344 148.92V150.072L29.032 142.904ZM58.6207 186.296C48.7007 186.296 42.9407 179.832 42.9407 166.84V161.464C42.9407 148.984 48.5087 141.944 58.4287 141.944C68.3487 141.944 74.3007 149.304 74.3007 161.272V166.648C74.3007 179.64 68.9247 186.296 58.6207 186.296ZM58.6207 187.384C69.6287 187.384 75.5167 180.152 75.5167 166.648V161.272C75.5167 148.216 68.8607 140.856 58.4287 140.856C47.7407 140.856 41.7247 148.216 41.7247 161.464V166.84C41.7247 180.216 47.8047 187.384 58.6207 187.384ZM99.3285 186.296C89.4085 186.296 83.6485 179.832 83.6485 166.84V161.464C83.6485 148.984 89.2165 141.944 99.1365 141.944C109.056 141.944 115.008 149.304 115.008 161.272V166.648C115.008 179.64 109.632 186.296 99.3285 186.296ZM99.3285 187.384C110.336 187.384 116.224 180.152 116.224 166.648V161.272C116.224 148.216 109.568 140.856 99.1365 140.856C88.4485 140.856 82.4325 148.216 82.4325 161.464V166.84C82.4325 180.216 88.5125 187.384 99.3285 187.384ZM135.172 165.624V179.64H136.324V165.624H149.38V164.6H136.324V150.584H135.172V164.6H122.116V165.624H135.172Z" fill="#1D1D1D"/>
<path d="M20.766 221.112C22.712 221.112 24.182 219.586 24.182 217.346V217.234C24.182 214.994 22.726 213.566 20.71 213.566C19.086 213.566 17.854 214.588 17.588 216.114H18.288C18.568 214.826 19.52 214.196 20.696 214.196C22.166 214.196 23.272 215.162 23.398 216.912H19.436V217.514H23.398C23.328 219.362 22.278 220.482 20.766 220.482C19.506 220.482 18.526 219.894 18.302 218.564H17.574C17.798 220.3 19.198 221.112 20.766 221.112ZM27.2555 217.738C27.3675 216.688 27.4235 215.092 27.4655 214.308H30.6295V221H31.3715V213.678H26.7935C26.7795 214.168 26.7655 214.644 26.7375 215.12C26.6955 215.946 26.6395 216.94 26.5695 217.668C26.4155 219.236 26.2195 220.342 25.4635 220.342C25.3235 220.342 25.2115 220.328 25.1275 220.3L24.9875 220.244V220.958L25.1275 221.014C25.2115 221.042 25.3375 221.056 25.5195 221.056C26.6815 221.056 27.0735 219.866 27.2555 217.738ZM36.6986 221.112C38.2806 221.112 39.4146 220.356 39.7366 218.956H38.9946C38.7286 219.978 37.9306 220.482 36.6986 220.482C34.9486 220.482 34.0386 219.376 33.9966 217.402H39.7926V217.136C39.7926 214.714 38.3506 213.566 36.5866 213.566C34.6266 213.566 33.2266 215.106 33.2266 217.304V217.416C33.2266 219.614 34.5846 221.112 36.6986 221.112ZM39.0226 216.8H34.0246C34.1786 215.19 35.1586 214.196 36.5866 214.196C38.0286 214.196 38.9526 215.008 39.0226 216.8ZM42.2771 214.448L45.0211 221H45.3711L48.1571 214.448V221H48.8991V213.678H47.8771L45.2451 219.824L42.6971 213.678H41.6331V221H42.2771V214.448ZM54.2236 221.112C55.8056 221.112 56.9396 220.356 57.2616 218.956H56.5196C56.2536 219.978 55.4556 220.482 54.2236 220.482C52.4736 220.482 51.5636 219.376 51.5216 217.402H57.3176V217.136C57.3176 214.714 55.8756 213.566 54.1116 213.566C52.1516 213.566 50.7516 215.106 50.7516 217.304V217.416C50.7516 219.614 52.1096 221.112 54.2236 221.112ZM56.5476 216.8H51.5496C51.7036 215.19 52.6836 214.196 54.1116 214.196C55.5536 214.196 56.4776 215.008 56.5476 216.8ZM64.1141 217.528V221H64.8561V213.678H64.1141V216.898H59.9001V213.678H59.1581V221H59.9001V217.528H64.1141ZM72.276 214.308V213.678H66.466V214.308H69V221H69.742V214.308H72.276ZM76.5889 220.482C74.9929 220.482 73.8169 219.278 73.8169 217.402V217.29C73.8169 215.386 75.0209 214.196 76.5889 214.196C78.1569 214.196 79.3469 215.344 79.3469 217.29V217.402C79.3469 219.292 78.1569 220.482 76.5889 220.482ZM76.5749 221.112C78.5489 221.112 80.1169 219.586 80.1169 217.388V217.276C80.1169 215.05 78.5629 213.566 76.5889 213.566C74.6289 213.566 73.0469 215.092 73.0469 217.29V217.402C73.0469 219.572 74.6009 221.112 76.5749 221.112ZM81.9729 213.678V221H84.8289C86.4109 221 87.3209 220.314 87.3209 218.914V218.872C87.3209 217.864 86.6909 217.318 85.6689 217.15C86.5089 216.94 86.9569 216.366 86.9569 215.568V215.526C86.9569 214.196 85.9209 213.678 84.5909 213.678H81.9729ZM82.7149 214.28H84.5769C85.5849 214.28 86.1729 214.644 86.1729 215.554V215.596C86.1729 216.464 85.6409 216.898 84.5909 216.898H82.7149V214.28ZM82.7149 217.5H84.7029C85.8929 217.5 86.5369 217.948 86.5369 218.914V218.956C86.5369 219.922 85.9489 220.398 84.7589 220.398H82.7149V217.5ZM92.867 221H93.609L97.963 214.756V221H98.705V213.678H97.963L93.609 219.908V213.678H92.867V221ZM107.047 221.112C108.279 221.112 109.063 220.594 109.525 219.88V221H110.267V216.156C110.267 214.294 109.217 213.566 107.705 213.566C106.333 213.566 105.045 214.224 104.891 215.75H105.619C105.787 214.672 106.557 214.196 107.677 214.196C108.965 214.196 109.525 214.77 109.525 216.156V216.814H107.999C106.193 216.814 104.569 217.332 104.569 219.026C104.569 220.412 105.591 221.112 107.047 221.112ZM107.103 220.51C105.885 220.51 105.311 219.978 105.311 219.026C105.311 217.71 106.501 217.388 108.027 217.388H109.525V218.634C109.525 219.712 108.447 220.51 107.103 220.51ZM117.575 217.528V221H118.317V213.678H117.575V216.898H113.361V213.678H112.619V221H113.361V217.528H117.575ZM125.737 214.308V213.678H119.927V214.308H122.461V221H123.203V214.308H125.737ZM127.342 221H128.084L132.438 214.756V221H133.18V213.678H132.438L128.084 219.908V213.678H127.342V221ZM138.498 220.482C136.902 220.482 135.726 219.278 135.726 217.402V217.29C135.726 215.386 136.93 214.196 138.498 214.196C140.066 214.196 141.256 215.344 141.256 217.29V217.402C141.256 219.292 140.066 220.482 138.498 220.482ZM138.484 221.112C140.458 221.112 142.026 219.586 142.026 217.388V217.276C142.026 215.05 140.472 213.566 138.498 213.566C136.538 213.566 134.956 215.092 134.956 217.29V217.402C134.956 219.572 136.51 221.112 138.484 221.112ZM144.61 217.178L148.376 221H149.3L145.492 217.136L149.062 213.678H148.18L144.61 217.178V213.678H143.868V221H144.61V217.178ZM153.466 221.112C155.132 221.112 156.406 220.034 156.588 218.466H155.902C155.72 219.768 154.684 220.482 153.466 220.482C151.926 220.482 150.736 219.348 150.736 217.416V217.304C150.736 215.372 151.94 214.196 153.466 214.196C154.628 214.196 155.608 214.77 155.79 216.002H156.518C156.336 214.35 154.95 213.566 153.466 213.566C151.52 213.566 149.966 215.064 149.966 217.304V217.416C149.966 219.642 151.492 221.112 153.466 221.112ZM158.399 221H159.141L163.495 214.756V221H164.237V213.678H163.495L159.141 219.908V213.678H158.399V221ZM167.764 217.738C167.876 216.688 167.974 215.078 168.016 214.294H171.278V220.37H167.064C167.47 219.936 167.61 219.068 167.764 217.738ZM166.224 222.778L166.28 221H172.398L172.454 222.778H173.056V220.37H172.006V213.678H167.358L167.274 215.12C167.218 215.946 167.176 216.94 167.078 217.668C166.924 219.124 166.784 220.188 166.112 220.37H165.622V222.778H166.224ZM176.585 221.112C177.817 221.112 178.601 220.594 179.063 219.88V221H179.805V216.156C179.805 214.294 178.755 213.566 177.243 213.566C175.871 213.566 174.583 214.224 174.429 215.75H175.157C175.325 214.672 176.095 214.196 177.215 214.196C178.503 214.196 179.063 214.77 179.063 216.156V216.814H177.537C175.731 216.814 174.107 217.332 174.107 219.026C174.107 220.412 175.129 221.112 176.585 221.112ZM176.641 220.51C175.423 220.51 174.849 219.978 174.849 219.026C174.849 217.71 176.039 217.388 177.565 217.388H179.063V218.634C179.063 219.712 177.985 220.51 176.641 220.51ZM187.114 217.528V221H187.856V213.678H187.114V216.898H182.9V213.678H182.158V221H182.9V217.528H187.114ZM195.276 214.308V213.678H189.466V214.308H192V221H192.742V214.308H195.276ZM199.588 220.482C197.992 220.482 196.816 219.278 196.816 217.402V217.29C196.816 215.386 198.02 214.196 199.588 214.196C201.156 214.196 202.346 215.344 202.346 217.29V217.402C202.346 219.292 201.156 220.482 199.588 220.482ZM199.574 221.112C201.548 221.112 203.116 219.586 203.116 217.388V217.276C203.116 215.05 201.562 213.566 199.588 213.566C197.628 213.566 196.046 215.092 196.046 217.29V217.402C196.046 219.572 197.6 221.112 199.574 221.112ZM204.972 213.678V221H207.828C209.41 221 210.32 220.314 210.32 218.914V218.872C210.32 217.864 209.69 217.318 208.668 217.15C209.508 216.94 209.956 216.366 209.956 215.568V215.526C209.956 214.196 208.92 213.678 207.59 213.678H204.972ZM205.714 214.28H207.576C208.584 214.28 209.172 214.644 209.172 215.554V215.596C209.172 216.464 208.64 216.898 207.59 216.898H205.714V214.28ZM205.714 217.5H207.702C208.892 217.5 209.536 217.948 209.536 218.914V218.956C209.536 219.922 208.948 220.398 207.758 220.398H205.714V217.5ZM19.352 237.738C19.464 236.688 19.562 235.078 19.604 234.294H22.866V240.37H18.652C19.058 239.936 19.198 239.068 19.352 237.738ZM17.812 242.778L17.868 241H23.986L24.042 242.778H24.644V240.37H23.594V233.678H18.946L18.862 235.12C18.806 235.946 18.764 236.94 18.666 237.668C18.512 239.124 18.372 240.188 17.7 240.37H17.21V242.778H17.812ZM27.734 237.738C27.846 236.688 27.902 235.092 27.944 234.308H31.108V241H31.85V233.678H27.272C27.258 234.168 27.244 234.644 27.216 235.12C27.174 235.946 27.118 236.94 27.048 237.668C26.894 239.236 26.698 240.342 25.942 240.342C25.802 240.342 25.69 240.328 25.606 240.3L25.466 240.244V240.958L25.606 241.014C25.69 241.042 25.816 241.056 25.998 241.056C27.16 241.056 27.552 239.866 27.734 237.738ZM36.5611 234.28H38.3251V237.444H36.7011C35.3991 237.444 34.7691 236.912 34.7691 235.904V235.862C34.7691 234.812 35.3711 234.28 36.5611 234.28ZM34.4471 241L36.5751 238.018H38.3251V241H39.0811V233.678H36.6031C35.1191 233.678 34.0271 234.336 34.0271 235.862V235.904C34.0271 237.122 34.7831 237.71 35.8331 237.892L33.5791 241H34.4471ZM46.1997 234.448L48.9437 241H49.2937L52.0797 234.448V241H52.8217V233.678H51.7997L49.1677 239.824L46.6197 233.678H45.5557V241H46.1997V234.448ZM58.2162 240.482C56.6202 240.482 55.4442 239.278 55.4442 237.402V237.29C55.4442 235.386 56.6482 234.196 58.2162 234.196C59.7842 234.196 60.9742 235.344 60.9742 237.29V237.402C60.9742 239.292 59.7842 240.482 58.2162 240.482ZM58.2022 241.112C60.1762 241.112 61.7442 239.586 61.7442 237.388V237.276C61.7442 235.05 60.1902 233.566 58.2162 233.566C56.2562 233.566 54.6742 235.092 54.6742 237.29V237.402C54.6742 239.572 56.2282 241.112 58.2022 241.112ZM64.8199 237.738C64.9319 236.688 64.9879 235.092 65.0299 234.308H68.1939V241H68.9359V233.678H64.3579C64.3439 234.168 64.3299 234.644 64.3019 235.12C64.2599 235.946 64.2039 236.94 64.1339 237.668C63.9799 239.236 63.7839 240.342 63.0279 240.342C62.8879 240.342 62.7759 240.328 62.6919 240.3L62.5519 240.244V240.958L62.6919 241.014C62.7759 241.042 62.9019 241.056 63.0839 241.056C64.2459 241.056 64.6379 239.866 64.8199 237.738ZM74.333 240.482C72.737 240.482 71.561 239.278 71.561 237.402V237.29C71.561 235.386 72.765 234.196 74.333 234.196C75.901 234.196 77.091 235.344 77.091 237.29V237.402C77.091 239.292 75.901 240.482 74.333 240.482ZM74.319 241.112C76.293 241.112 77.861 239.586 77.861 237.388V237.276C77.861 235.05 76.307 233.566 74.333 233.566C72.373 233.566 70.791 235.092 70.791 237.29V237.402C70.791 239.572 72.345 241.112 74.319 241.112ZM80.702 237.738C80.814 236.688 80.912 235.078 80.954 234.294H84.216V240.37H80.002C80.408 239.936 80.548 239.068 80.702 237.738ZM79.162 242.778L79.218 241H85.336L85.392 242.778H85.994V240.37H84.944V233.678H80.296L80.212 235.12C80.156 235.946 80.114 236.94 80.016 237.668C79.862 239.124 79.722 240.188 79.05 240.37H78.56V242.778H79.162ZM90.5045 240.482C88.9085 240.482 87.7325 239.278 87.7325 237.402V237.29C87.7325 235.386 88.9365 234.196 90.5045 234.196C92.0725 234.196 93.2625 235.344 93.2625 237.29V237.402C93.2625 239.292 92.0725 240.482 90.5045 240.482ZM90.4905 241.112C92.4645 241.112 94.0325 239.586 94.0325 237.388V237.276C94.0325 235.05 92.4785 233.566 90.5045 233.566C88.5445 233.566 86.9625 235.092 86.9625 237.29V237.402C86.9625 239.572 88.5165 241.112 90.4905 241.112ZM98.8285 241.112C100.495 241.112 101.769 240.034 101.951 238.466H101.265C101.083 239.768 100.047 240.482 98.8285 240.482C97.2885 240.482 96.0985 239.348 96.0985 237.416V237.304C96.0985 235.372 97.3025 234.196 98.8285 234.196C99.9905 234.196 100.971 234.77 101.153 236.002H101.881C101.699 234.35 100.313 233.566 98.8285 233.566C96.8825 233.566 95.3285 235.064 95.3285 237.304V237.416C95.3285 239.642 96.8545 241.112 98.8285 241.112ZM108.76 234.308V233.678H102.95V234.308H105.484V241H106.226V234.308H108.76ZM110.365 241H111.107L115.461 234.756V241H116.203V233.678H115.461L111.107 239.908V233.678H110.365V241ZM122.147 241H122.889L127.243 234.756V241H127.985V233.678H127.243L122.889 239.908V233.678H122.147V241ZM133.93 241H134.672L139.026 234.756V241H139.768V233.678H139.026L134.672 239.908V233.678H133.93V241ZM142.749 234.448L145.493 241H145.843L148.629 234.448V241H149.371V233.678H148.349L145.717 239.824L143.169 233.678H142.105V241H142.749V234.448ZM152.427 234.448L155.171 241H155.521L158.307 234.448V241H159.049V233.678H158.027L155.395 239.824L152.847 233.678H151.783V241H152.427V234.448ZM163.548 240.37L162.218 243.548H162.988L167.048 233.678H166.292L163.954 239.516L161.448 233.678H160.65L163.548 240.37ZM173.622 237.528V241H174.364V233.678H173.622V236.898H169.408V233.678H168.666V241H169.408V237.528H173.622ZM176.786 241H177.528L181.882 234.756V241H182.624V233.678H181.882L177.528 239.908V233.678H176.786V241ZM189.958 234.308V233.678H184.148V234.308H186.682V241H187.424V234.308H189.958ZM194.201 241.112C195.783 241.112 196.917 240.356 197.239 238.956H196.497C196.231 239.978 195.433 240.482 194.201 240.482C192.451 240.482 191.541 239.376 191.499 237.402H197.295V237.136C197.295 234.714 195.853 233.566 194.089 233.566C192.129 233.566 190.729 235.106 190.729 237.304V237.416C190.729 239.614 192.087 241.112 194.201 241.112ZM196.525 236.8H191.527C191.681 235.19 192.661 234.196 194.089 234.196C195.531 234.196 196.455 235.008 196.525 236.8ZM203.997 234.308V233.678H198.187V234.308H200.721V241H201.463V234.308H203.997ZM207.397 241.112C208.629 241.112 209.413 240.594 209.875 239.88V241H210.617V236.156C210.617 234.294 209.567 233.566 208.055 233.566C206.683 233.566 205.395 234.224 205.241 235.75H205.969C206.137 234.672 206.907 234.196 208.027 234.196C209.315 234.196 209.875 234.77 209.875 236.156V236.814H208.349C206.543 236.814 204.919 237.332 204.919 239.026C204.919 240.412 205.941 241.112 207.397 241.112ZM207.453 240.51C206.235 240.51 205.661 239.978 205.661 239.026C205.661 237.71 206.851 237.388 208.377 237.388H209.875V238.634C209.875 239.712 208.797 240.51 207.453 240.51Z" fill="#1D1D1D"/>
<rect x="17" y="257" width="78" height="3" rx="1.5" fill="#146957"/>
</svg>
